{"glyphs":{"0":{"ha":572,"x_min":35,"x_max":537,"o":"m 285 10 l 285 10 q 196 10 141 -33 q 86 -76 61 -158 q 35 -240 35 -355 l 35 -355 q 35 -470 61 -552 q 86 -635 142 -679 q 198 -724 287 -724 l 287 -724 q 376 -724 431 -681 q 486 -638 512 -556 q 537 -475 537 -359 l 537 -359 q 537 -273 523 -205 q 508 -137 478 -89 q 448 -41 400 -15 q 352 10 285 10 z m 286 -136 l 286 -136 q 304 -136 317 -150 q 329 -164 336 -192 q 343 -220 346 -261 q 349 -303 349 -358 l 349 -358 q 349 -412 346 -453 q 343 -495 336 -522 q 329 -550 317 -564 q 304 -578 286 -578 l 286 -578 q 268 -578 256 -564 q 243 -550 236 -522 q 229 -494 226 -452 q 223 -411 223 -356 l 223 -356 q 223 -302 226 -260 q 229 -219 236 -191 q 243 -164 256 -150 q 268 -136 286 -136 z"},"1":{"ha":572,"x_min":37,"x_max":454,"o":"m 454 -714 l 454 0 l 261 0 l 261 -355 q 261 -394 262 -435 q 262 -477 264 -512 l 264 -512 q 250 -496 237 -482 q 224 -468 207 -453 l 207 -453 l 135 -392 l 37 -517 l 278 -714 l 454 -714 z"},"2":{"ha":572,"x_min":18,"x_max":535,"o":"m 535 0 l 27 0 l 27 -127 l 214 -322 q 258 -367 284 -397 q 310 -428 322 -452 q 333 -477 333 -504 l 333 -504 q 333 -526 325 -540 q 316 -554 300 -561 q 284 -569 262 -569 l 262 -569 q 227 -569 192 -548 q 156 -528 119 -494 l 119 -494 l 18 -613 q 54 -644 93 -669 q 132 -694 180 -709 q 227 -724 289 -724 l 289 -724 q 364 -724 416 -697 q 468 -671 496 -627 q 523 -583 523 -529 l 523 -529 q 523 -467 502 -419 q 481 -372 439 -325 q 397 -278 333 -216 l 333 -216 l 273 -158 l 273 -153 l 535 -153 l 535 0 z"},"3":{"ha":572,"x_min":29,"x_max":529,"o":"m 238 11 l 238 11 q 174 11 126 1 q 77 -9 33 -26 l 33 -26 l 33 -178 q 75 -156 123 -145 q 170 -135 218 -135 l 218 -135 q 280 -135 309 -156 q 337 -177 337 -215 l 337 -215 q 337 -241 324 -259 q 311 -277 280 -287 q 248 -297 190 -297 l 190 -297 l 144 -297 l 144 -434 l 189 -434 q 242 -434 273 -444 q 303 -455 316 -473 q 329 -491 329 -515 l 329 -515 q 329 -547 307 -562 q 284 -578 246 -578 l 246 -578 q 206 -578 171 -565 q 136 -552 104 -532 l 104 -532 l 29 -652 q 80 -684 138 -704 q 196 -724 272 -724 l 272 -724 q 346 -724 401 -702 q 455 -681 485 -640 q 514 -600 514 -543 l 514 -543 q 514 -497 495 -464 q 475 -431 442 -409 q 409 -388 368 -376 l 368 -376 l 368 -373 q 443 -360 486 -320 q 529 -280 529 -206 l 529 -206 q 529 -147 498 -97 q 467 -48 403 -18 q 338 11 238 11 z"},"4":{"ha":572,"x_min":16,"x_max":559,"o":"m 484 0 l 298 0 l 298 -139 l 16 -139 l 16 -276 l 304 -714 l 484 -714 l 484 -278 l 559 -278 l 559 -139 l 484 -139 l 484 0 z m 251 -384 l 184 -278 l 298 -278 l 298 -356 q 298 -379 299 -397 q 299 -416 300 -433 q 301 -451 302 -470 l 302 -470 l 298 -470 q 290 -451 280 -432 q 269 -413 251 -384 l 251 -384 z"},"5":{"ha":572,"x_min":47,"x_max":532,"o":"m 246 10 l 246 10 q 184 10 136 1 q 88 -8 47 -26 l 47 -26 l 47 -179 q 88 -160 133 -148 q 178 -136 226 -136 l 226 -136 q 266 -136 292 -146 q 317 -156 330 -177 q 342 -198 342 -230 l 342 -230 q 342 -277 313 -301 q 283 -325 230 -325 l 230 -325 q 201 -325 177 -320 q 153 -315 129 -307 l 129 -307 l 60 -341 l 91 -714 l 490 -714 l 490 -561 l 250 -561 l 238 -455 q 258 -460 275 -462 q 292 -464 321 -464 l 321 -464 q 378 -464 426 -439 q 474 -414 503 -364 q 532 -314 532 -237 l 532 -237 q 532 -158 500 -103 q 467 -48 404 -19 q 340 10 246 10 z"},"6":{"ha":572,"x_min":29,"x_max":545,"o":"m 297 10 l 297 10 q 239 10 190 -9 q 141 -28 105 -67 q 69 -106 49 -166 q 29 -227 29 -311 l 29 -311 q 29 -370 38 -429 q 47 -488 70 -541 q 92 -594 133 -635 q 174 -676 239 -700 q 303 -724 395 -724 l 395 -724 q 423 -724 448 -722 q 472 -721 498 -716 l 498 -716 l 498 -569 q 473 -574 448 -576 q 423 -578 395 -578 l 395 -578 q 327 -578 286 -555 q 244 -533 225 -491 q 206 -450 204 -393 l 204 -393 l 210 -393 q 223 -417 242 -435 q 260 -454 287 -465 q 314 -476 350 -476 l 350 -476 q 412 -476 456 -449 q 499 -422 522 -370 q 545 -318 545 -244 l 545 -244 q 545 -164 515 -107 q 484 -50 429 -20 q 373 10 297 10 z m 291 -136 l 291 -136 q 324 -136 343 -161 q 361 -186 361 -238 l 361 -238 q 361 -285 345 -309 q 328 -334 293 -334 l 293 -334 q 270 -334 253 -323 q 236 -312 227 -293 q 218 -275 218 -251 l 218 -251 q 218 -227 223 -206 q 228 -185 238 -169 q 247 -154 261 -145 q 274 -136 291 -136 z"},"7":{"ha":572,"x_min":27,"x_max":541,"o":"m 291 0 l 89 0 l 337 -561 l 27 -561 l 27 -714 l 541 -714 l 541 -602 l 291 0 z"},"8":{"ha":572,"x_min":28,"x_max":544,"o":"m 287 12 l 287 12 q 196 12 139 -13 q 81 -39 55 -84 q 28 -129 28 -187 l 28 -187 q 28 -234 44 -267 q 59 -301 89 -326 q 118 -351 159 -372 l 159 -372 q 129 -393 104 -418 q 78 -443 63 -475 q 47 -508 47 -550 l 47 -550 q 47 -607 78 -645 q 108 -684 163 -704 q 218 -724 289 -724 l 289 -724 q 358 -724 412 -704 q 465 -684 495 -645 q 525 -606 525 -550 l 525 -550 q 525 -504 508 -471 q 490 -439 462 -416 q 434 -393 400 -375 l 400 -375 q 436 -354 469 -329 q 502 -304 523 -271 q 544 -238 544 -191 l 544 -191 q 544 -133 517 -87 q 490 -41 433 -14 q 376 12 287 12 z m 284 -125 l 284 -125 q 325 -125 343 -144 q 360 -164 360 -189 l 360 -189 q 360 -208 354 -223 q 348 -239 335 -253 q 321 -268 300 -282 l 300 -282 l 283 -293 q 260 -279 244 -264 q 228 -249 220 -232 q 212 -215 212 -194 l 212 -194 q 212 -164 230 -144 q 247 -125 284 -125 z m 288 -453 l 288 -453 q 303 -463 315 -474 q 327 -486 335 -500 q 342 -515 342 -533 l 342 -533 q 342 -558 327 -572 q 311 -587 286 -587 l 286 -587 q 259 -587 245 -572 q 231 -557 231 -532 l 231 -532 q 231 -515 238 -501 q 244 -488 257 -476 q 270 -465 288 -453 z"},"9":{"ha":572,"x_min":27,"x_max":543,"o":"m 177 10 l 177 10 q 149 10 124 8 q 98 6 72 2 l 72 2 l 72 -145 q 97 -141 123 -138 q 149 -136 177 -136 l 177 -136 q 229 -136 265 -149 q 301 -162 324 -186 q 346 -210 358 -244 q 369 -279 372 -321 l 372 -321 l 366 -321 q 355 -295 336 -276 q 316 -258 288 -248 q 260 -238 221 -238 l 221 -238 q 161 -238 118 -265 q 74 -292 51 -344 q 27 -396 27 -470 l 27 -470 q 27 -550 58 -607 q 89 -664 145 -694 q 200 -724 275 -724 l 275 -724 q 333 -724 382 -705 q 431 -686 467 -645 q 503 -605 523 -541 q 543 -477 543 -388 l 543 -388 q 543 -334 534 -277 q 525 -221 503 -169 q 480 -118 439 -77 q 398 -37 334 -13 q 269 10 177 10 z m 282 -380 l 282 -380 q 306 -380 322 -392 q 338 -404 346 -423 q 354 -443 354 -465 l 354 -465 q 354 -487 350 -507 q 346 -527 337 -543 q 328 -559 315 -568 q 301 -578 281 -578 l 281 -578 q 248 -578 230 -554 q 211 -530 211 -481 l 211 -481 q 211 -435 227 -407 q 243 -380 282 -380 z"},"\r":{"ha":309,"x_min":0,"x_max":0,"o":""}," ":{"ha":309,"x_min":0,"x_max":0,"o":""},"ഀ":{"ha":0,"x_min":-462,"x_max":-93,"o":"m -462 -708 l -462 -708 q -462 -775 -413 -819 q -364 -864 -278 -864 l -278 -864 q -192 -864 -142 -820 q -93 -776 -93 -708 l -93 -708 q -93 -642 -141 -597 q -189 -552 -278 -552 l -278 -552 q -366 -552 -414 -597 q -462 -642 -462 -708 z m -336 -708 l -336 -708 q -336 -686 -322 -669 q -309 -653 -278 -653 l -278 -653 q -247 -653 -233 -670 q -219 -688 -219 -709 l -219 -709 q -219 -732 -234 -747 q -250 -763 -278 -763 l -278 -763 q -308 -763 -322 -747 q -336 -731 -336 -708 z"},"ഁ":{"ha":0,"x_min":-490,"x_max":-67,"o":"m -278 -631 l -278 -631 q -392 -631 -441 -678 q -490 -726 -490 -799 l -490 -799 q -490 -820 -487 -836 q -485 -852 -481 -864 l -481 -864 l -377 -843 q -380 -833 -381 -824 q -382 -815 -382 -807 l -382 -807 q -382 -777 -369 -759 q -356 -742 -332 -734 q -309 -727 -278 -727 l -278 -727 q -251 -727 -227 -734 q -204 -741 -189 -759 q -175 -777 -175 -809 l -175 -809 q -175 -817 -176 -825 q -177 -833 -180 -843 l -180 -843 l -76 -863 q -72 -851 -69 -835 q -67 -819 -67 -800 l -67 -800 q -67 -724 -115 -677 q -164 -631 -278 -631 z m -279 -748 l -279 -748 q -316 -748 -331 -764 q -347 -780 -347 -807 l -347 -807 q -347 -830 -332 -846 q -318 -863 -279 -863 l -279 -863 q -239 -863 -224 -846 q -210 -830 -210 -804 l -210 -804 q -210 -779 -225 -763 q -240 -748 -279 -748 z"},"ം":{"ha":533,"x_min":27,"x_max":506,"o":"m 267 12 l 267 12 q 189 12 136 -13 q 82 -38 55 -82 q 27 -127 27 -185 l 27 -185 q 27 -243 56 -287 q 84 -332 138 -357 q 191 -382 265 -382 l 265 -382 q 342 -382 396 -357 q 449 -333 478 -289 q 506 -245 506 -185 l 506 -185 q 506 -125 479 -81 q 451 -37 398 -12 q 344 12 267 12 z m 265 -258 l 265 -258 q 237 -258 217 -239 q 197 -221 197 -184 l 197 -184 q 197 -150 217 -131 q 236 -112 267 -112 l 267 -112 q 296 -112 316 -130 q 336 -148 336 -185 l 336 -185 q 336 -221 316 -239 q 296 -258 265 -258 z"},"ഃ":{"ha":385,"x_min":28,"x_max":357,"o":"m 28 -439 l 28 -439 q 28 -500 72 -540 q 115 -581 192 -581 l 192 -581 q 269 -581 313 -541 q 357 -501 357 -439 l 357 -439 q 357 -379 314 -338 q 271 -297 192 -297 l 192 -297 q 113 -297 71 -338 q 28 -379 28 -439 z m 146 -439 l 146 -439 q 146 -420 158 -407 q 169 -394 192 -394 l 192 -394 q 215 -394 227 -407 q 239 -421 239 -440 l 239 -440 q 239 -460 226 -472 q 213 -484 192 -484 l 192 -484 q 170 -484 158 -471 q 146 -459 146 -439 z m 28 -130 l 28 -130 q 28 -190 72 -231 q 115 -272 192 -272 l 192 -272 q 269 -272 313 -231 q 357 -190 357 -130 l 357 -130 q 357 -70 314 -29 q 271 12 192 12 l 192 12 q 113 12 71 -28 q 28 -69 28 -130 z m 146 -131 l 146 -131 q 146 -110 158 -97 q 169 -85 192 -85 l 192 -85 q 215 -85 227 -97 q 239 -110 239 -131 l 239 -131 q 239 -150 226 -162 q 213 -175 192 -175 l 192 -175 q 170 -175 158 -162 q 146 -150 146 -131 z"},"ഄ":{"ha":675,"x_min":30,"x_max":645,"o":"m 50 -355 l 50 -355 l 217 -327 q 210 -304 207 -279 q 204 -255 204 -235 l 204 -235 q 204 -174 239 -146 q 274 -118 337 -118 l 337 -118 q 401 -118 436 -146 q 471 -174 471 -234 l 471 -234 q 471 -253 468 -278 q 465 -304 458 -327 l 458 -327 l 625 -355 q 633 -330 639 -296 q 645 -262 645 -230 l 645 -230 q 645 -158 617 -104 q 589 -50 522 -20 q 455 9 337 9 l 337 9 q 220 9 153 -20 q 86 -50 58 -104 q 30 -158 30 -230 l 30 -230 q 30 -264 36 -297 q 42 -330 50 -355 z m 272 -195 l 272 -427 l 403 -427 l 403 -195 l 272 -195 z"},"അ":{"ha":1733,"x_min":35,"x_max":1702,"o":"m 428 -581 l 428 -581 q 488 -581 534 -575 q 580 -570 636 -553 l 636 -553 q 653 -549 661 -536 q 669 -524 684 -519 l 684 -519 q 727 -507 765 -487 q 803 -467 827 -439 q 850 -411 850 -374 l 850 -374 q 850 -348 841 -326 q 832 -305 812 -287 q 791 -270 757 -256 l 757 -256 l 756 -271 q 807 -253 834 -221 q 861 -189 861 -139 l 861 -139 q 861 -101 840 -66 q 818 -32 766 -10 q 713 12 620 12 l 620 12 q 518 12 455 -21 q 392 -55 363 -112 q 334 -170 334 -241 l 334 -241 q 334 -305 356 -355 q 377 -405 415 -443 q 453 -481 503 -509 l 503 -509 q 515 -516 528 -527 q 540 -539 553 -544 l 553 -544 q 601 -564 655 -572 q 708 -581 763 -581 l 763 -581 q 833 -581 882 -569 q 931 -557 969 -534 q 1006 -512 1040 -480 l 1040 -480 l 1125 -192 l 1125 0 l 938 0 l 938 -234 q 938 -300 927 -349 q 916 -399 880 -428 l 880 -428 q 861 -444 833 -452 q 804 -461 766 -461 l 766 -461 q 744 -461 722 -457 q 700 -454 679 -449 l 679 -449 q 644 -442 613 -425 q 582 -409 558 -383 q 534 -357 521 -322 q 507 -287 507 -244 l 507 -244 q 507 -174 538 -143 q 568 -113 615 -113 l 615 -113 q 647 -113 665 -122 q 682 -132 682 -154 l 682 -154 q 682 -173 666 -184 q 650 -196 615 -196 l 615 -196 l 578 -196 l 578 -322 l 600 -322 q 638 -322 655 -335 q 671 -349 671 -372 l 671 -372 q 671 -402 645 -419 q 618 -436 560 -441 l 560 -441 q 527 -449 498 -453 q 469 -458 433 -458 l 433 -458 q 356 -458 310 -435 q 264 -412 244 -372 q 224 -333 224 -281 l 224 -281 q 224 -241 235 -206 q 245 -172 266 -138 q 287 -105 317 -68 l 317 -68 l 181 12 q 138 -27 105 -70 q 72 -114 54 -166 q 35 -219 35 -284 l 35 -284 q 35 -334 54 -386 q 72 -438 117 -482 q 161 -527 237 -554 q 313 -581 428 -581 z m 1440 12 l 1440 12 q 1355 12 1302 -18 q 1249 -48 1225 -97 q 1200 -147 1200 -205 l 1200 -205 q 1200 -300 1255 -355 q 1309 -410 1408 -410 l 1408 -410 q 1471 -410 1518 -379 q 1564 -349 1592 -302 q 1619 -255 1623 -205 l 1623 -205 l 1550 -203 q 1545 -227 1533 -248 q 1520 -269 1501 -282 q 1481 -295 1454 -295 l 1454 -295 q 1418 -295 1399 -272 q 1380 -250 1380 -205 l 1380 -205 q 1380 -174 1388 -154 q 1396 -135 1411 -125 q 1425 -116 1443 -116 l 1443 -116 q 1468 -116 1485 -129 q 1502 -142 1511 -170 q 1519 -198 1519 -242 l 1519 -242 q 1519 -257 1518 -273 q 1516 -290 1514 -305 l 1514 -305 q 1513 -309 1515 -317 q 1517 -325 1515 -329 l 1515 -329 q 1510 -363 1483 -390 q 1456 -418 1412 -434 q 1367 -451 1308 -451 l 1308 -451 q 1260 -451 1232 -441 q 1203 -431 1183 -416 l 1183 -416 q 1158 -397 1146 -368 q 1133 -340 1129 -306 q 1125 -273 1125 -238 l 1125 -238 l 1125 -154 l 992 -450 q 1024 -484 1066 -513 q 1107 -543 1166 -562 q 1225 -581 1306 -581 l 1306 -581 q 1404 -581 1479 -553 q 1553 -525 1603 -477 q 1652 -429 1677 -367 q 1702 -305 1702 -237 l 1702 -237 q 1702 -157 1672 -101 q 1642 -46 1584 -17 q 1525 12 1440 12 z"},"ആ":{"ha":1919,"x_min":35,"x_max":1894,"o":"m 428 -581 l 428 -581 q 488 -581 534 -575 q 580 -570 636 -553 l 636 -553 q 653 -549 661 -536 q 669 -524 684 -519 l 684 -519 q 727 -507 765 -487 q 803 -467 827 -439 q 850 -411 850 -374 l 850 -374 q 850 -348 841 -326 q 832 -305 812 -287 q 791 -270 757 -256 l 757 -256 l 756 -271 q 807 -253 834 -221 q 861 -189 861 -139 l 861 -139 q 861 -101 840 -66 q 818 -32 766 -10 q 713 12 620 12 l 620 12 q 518 12 455 -21 q 392 -55 363 -112 q 334 -170 334 -241 l 334 -241 q 334 -305 356 -355 q 377 -405 415 -443 q 453 -481 503 -509 l 503 -509 q 515 -516 528 -527 q 540 -539 553 -544 l 553 -544 q 601 -564 655 -572 q 708 -581 763 -581 l 763 -581 q 833 -581 882 -569 q 931 -557 969 -534 q 1006 -512 1040 -480 l 1040 -480 l 1125 -225 l 1125 0 l 938 0 l 938 -234 q 938 -300 927 -349 q 916 -399 880 -428 l 880 -428 q 861 -444 833 -452 q 804 -461 766 -461 l 766 -461 q 744 -461 722 -457 q 700 -454 679 -449 l 679 -449 q 644 -442 613 -425 q 582 -409 558 -383 q 534 -357 521 -322 q 507 -287 507 -244 l 507 -244 q 507 -174 538 -143 q 568 -113 615 -113 l 615 -113 q 647 -113 665 -122 q 682 -132 682 -154 l 682 -154 q 682 -173 666 -184 q 650 -196 615 -196 l 615 -196 l 578 -196 l 578 -322 l 600 -322 q 638 -322 655 -335 q 671 -349 671 -372 l 671 -372 q 671 -402 645 -419 q 618 -436 560 -441 l 560 -441 q 527 -449 498 -453 q 469 -458 433 -458 l 433 -458 q 356 -458 310 -435 q 264 -412 244 -372 q 224 -333 224 -281 l 224 -281 q 224 -241 235 -206 q 245 -172 266 -138 q 287 -105 317 -68 l 317 -68 l 181 12 q 138 -27 105 -70 q 72 -114 54 -166 q 35 -219 35 -284 l 35 -284 q 35 -334 54 -386 q 72 -438 117 -482 q 161 -527 237 -554 q 313 -581 428 -581 z m 1302 -581 l 1302 -581 q 1392 -581 1467 -553 q 1542 -526 1594 -470 q 1645 -414 1666 -326 l 1666 -326 q 1671 -304 1674 -281 q 1677 -258 1677 -232 l 1677 -232 q 1677 -148 1650 -94 q 1622 -40 1567 -14 q 1511 12 1426 12 l 1426 12 q 1353 12 1300 -13 q 1247 -38 1218 -83 q 1189 -128 1189 -189 l 1189 -189 q 1189 -296 1270 -353 q 1351 -411 1496 -411 l 1496 -411 q 1515 -411 1533 -410 q 1551 -409 1569 -407 l 1569 -407 l 1614 -404 q 1702 -389 1765 -348 q 1827 -308 1861 -246 q 1894 -184 1894 -104 l 1894 -104 q 1894 -46 1877 9 q 1859 64 1818 107 q 1776 150 1706 176 q 1636 201 1531 201 l 1531 201 q 1484 201 1436 194 q 1388 187 1346 173 l 1346 173 l 1395 52 q 1430 62 1461 66 q 1491 70 1525 70 l 1525 70 q 1585 70 1623 53 q 1661 36 1681 9 q 1701 -18 1709 -48 q 1716 -79 1716 -106 l 1716 -106 q 1716 -153 1705 -187 q 1693 -222 1670 -245 q 1647 -268 1614 -280 l 1614 -280 l 1578 -286 q 1562 -289 1545 -290 q 1527 -292 1507 -292 l 1507 -292 q 1457 -292 1427 -277 q 1396 -263 1383 -238 q 1369 -214 1369 -184 l 1369 -184 q 1369 -161 1376 -144 q 1383 -128 1397 -120 q 1411 -112 1430 -112 l 1430 -112 q 1465 -112 1485 -138 q 1505 -164 1505 -233 l 1505 -233 q 1505 -257 1502 -279 q 1499 -301 1493 -321 l 1493 -321 l 1476 -372 q 1458 -396 1434 -413 q 1410 -431 1377 -441 q 1344 -451 1298 -451 l 1298 -451 q 1256 -451 1229 -441 q 1202 -431 1182 -416 l 1182 -416 q 1158 -397 1146 -369 q 1133 -342 1129 -308 q 1125 -275 1125 -238 l 1125 -238 l 1125 -212 l 992 -450 q 1024 -484 1065 -513 q 1106 -543 1164 -562 q 1222 -581 1302 -581 z"},"ഇ":{"ha":1111,"x_min":32,"x_max":1076,"o":"m 371 -581 l 371 -581 q 447 -581 498 -568 q 548 -555 582 -534 q 616 -513 644 -488 l 644 -488 l 587 -494 q 625 -537 681 -559 q 736 -581 807 -581 l 807 -581 q 876 -581 927 -560 q 977 -539 1010 -502 q 1043 -465 1060 -416 q 1076 -368 1076 -312 l 1076 -312 q 1076 -227 1051 -167 q 1026 -108 982 -71 l 982 -71 q 951 -45 911 -29 q 870 -14 812 -7 q 753 0 668 0 l 668 0 l 318 0 q 283 0 269 2 q 254 3 244 8 l 244 8 q 234 12 230 19 q 225 26 225 36 l 225 36 q 225 46 229 53 q 232 59 239 64 l 239 64 q 249 71 266 74 q 283 77 321 77 l 321 77 l 1052 77 l 1052 206 l 308 206 q 241 206 197 200 q 152 194 115 175 l 115 175 q 80 157 59 124 q 37 91 37 42 l 37 42 q 37 -2 54 -33 q 70 -64 98 -83 l 98 -83 q 122 -100 151 -109 q 180 -119 218 -123 q 255 -127 306 -127 l 306 -127 l 643 -127 q 699 -127 736 -131 q 773 -136 797 -146 q 821 -156 839 -172 l 839 -172 q 865 -195 876 -228 q 886 -262 886 -303 l 886 -303 q 886 -347 875 -380 q 864 -414 843 -433 q 821 -452 788 -452 l 788 -452 q 770 -452 755 -446 q 740 -441 729 -428 l 729 -428 q 718 -415 712 -392 q 705 -369 705 -328 l 705 -328 l 705 -161 l 521 -161 l 521 -272 q 521 -337 511 -372 q 500 -408 475 -427 l 475 -427 q 458 -440 432 -448 q 405 -457 364 -457 l 364 -457 q 338 -457 313 -454 q 287 -451 264 -444 q 240 -438 222 -427 q 204 -416 193 -399 l 193 -399 q 187 -389 187 -379 q 186 -369 184 -358 l 184 -358 q 183 -351 183 -340 q 182 -329 182 -318 l 182 -318 q 182 -283 197 -265 q 212 -248 236 -248 l 236 -248 q 262 -248 274 -261 q 285 -275 285 -294 l 285 -294 q 285 -310 279 -320 q 273 -330 262 -335 q 250 -340 234 -340 l 234 -340 q 211 -340 190 -332 q 168 -324 142 -310 l 142 -310 l 86 -354 q 103 -370 133 -388 q 163 -406 199 -419 q 235 -433 270 -433 l 270 -433 q 332 -433 372 -414 q 412 -396 432 -364 q 452 -332 452 -292 l 452 -292 q 452 -250 433 -215 q 413 -180 367 -159 q 321 -138 239 -138 l 239 -138 q 180 -138 133 -160 q 86 -182 59 -226 q 32 -270 32 -334 l 32 -334 q 32 -397 69 -453 q 105 -510 181 -545 q 256 -581 371 -581 z"},"ഈ":{"ha":1988,"x_min":32,"x_max":1953,"o":"m 371 -581 l 371 -581 q 447 -581 498 -568 q 548 -555 582 -534 q 616 -513 644 -488 l 644 -488 l 587 -494 q 625 -537 681 -559 q 736 -581 807 -581 l 807 -581 q 876 -581 927 -560 q 977 -539 1010 -502 q 1043 -465 1060 -416 q 1076 -368 1076 -312 l 1076 -312 q 1076 -227 1051 -167 q 1026 -108 982 -71 l 982 -71 q 951 -45 911 -29 q 870 -14 812 -7 q 753 0 668 0 l 668 0 l 318 0 q 283 0 269 2 q 254 3 244 8 l 244 8 q 234 12 230 19 q 225 26 225 36 l 225 36 q 225 46 229 53 q 232 59 239 64 l 239 64 q 249 71 266 74 q 283 77 321 77 l 321 77 l 1052 77 l 1052 206 l 308 206 q 241 206 197 200 q 152 194 115 175 l 115 175 q 80 157 59 124 q 37 91 37 42 l 37 42 q 37 -2 54 -33 q 70 -64 98 -83 l 98 -83 q 122 -100 151 -109 q 180 -119 218 -123 q 255 -127 306 -127 l 306 -127 l 643 -127 q 699 -127 736 -131 q 773 -136 797 -146 q 821 -156 839 -172 l 839 -172 q 865 -195 876 -228 q 886 -262 886 -303 l 886 -303 q 886 -347 875 -380 q 864 -414 843 -433 q 821 -452 788 -452 l 788 -452 q 770 -452 755 -446 q 740 -441 729 -428 l 729 -428 q 718 -415 712 -392 q 705 -369 705 -328 l 705 -328 l 705 -161 l 521 -161 l 521 -272 q 521 -337 511 -372 q 500 -408 475 -427 l 475 -427 q 458 -440 432 -448 q 405 -457 364 -457 l 364 -457 q 338 -457 313 -454 q 287 -451 264 -444 q 240 -438 222 -427 q 204 -416 193 -399 l 193 -399 q 187 -389 187 -379 q 186 -369 184 -358 l 184 -358 q 183 -351 183 -340 q 182 -329 182 -318 l 182 -318 q 182 -283 197 -265 q 212 -248 236 -248 l 236 -248 q 262 -248 274 -261 q 285 -275 285 -294 l 285 -294 q 285 -310 279 -320 q 273 -330 262 -335 q 250 -340 234 -340 l 234 -340 q 211 -340 190 -332 q 168 -324 142 -310 l 142 -310 l 86 -354 q 103 -370 133 -388 q 163 -406 199 -419 q 235 -433 270 -433 l 270 -433 q 332 -433 372 -414 q 412 -396 432 -364 q 452 -332 452 -292 l 452 -292 q 452 -250 433 -215 q 413 -180 367 -159 q 321 -138 239 -138 l 239 -138 q 180 -138 133 -160 q 86 -182 59 -226 q 32 -270 32 -334 l 32 -334 q 32 -397 69 -453 q 105 -510 181 -545 q 256 -581 371 -581 z m 1701 -581 l 1701 -581 q 1779 -581 1836 -549 q 1892 -517 1923 -456 q 1953 -395 1953 -307 l 1953 -307 q 1953 -207 1917 -135 q 1881 -64 1808 -26 q 1735 12 1625 12 l 1625 12 q 1535 12 1471 -3 q 1406 -18 1348 -47 l 1348 -47 l 1414 -165 q 1468 -138 1510 -128 q 1552 -118 1604 -118 l 1604 -118 q 1662 -118 1697 -138 q 1732 -159 1748 -201 q 1763 -244 1763 -308 l 1763 -308 q 1763 -382 1741 -417 q 1719 -453 1687 -453 l 1687 -453 q 1675 -453 1666 -449 q 1657 -446 1651 -439 l 1651 -439 q 1641 -427 1638 -407 q 1634 -388 1634 -353 l 1634 -353 l 1634 -268 l 1449 -268 l 1449 -345 q 1449 -377 1445 -402 q 1441 -427 1429 -439 l 1429 -439 q 1421 -447 1412 -450 q 1403 -453 1392 -453 l 1392 -453 q 1364 -453 1346 -433 q 1328 -413 1328 -376 l 1328 -376 q 1328 -352 1332 -331 q 1336 -311 1342 -293 l 1342 -293 l 1162 -254 q 1152 -285 1147 -318 q 1141 -352 1141 -380 l 1141 -380 q 1141 -434 1167 -479 q 1192 -525 1244 -553 q 1296 -581 1377 -581 l 1377 -581 q 1440 -581 1481 -562 q 1522 -543 1552 -514 l 1552 -514 l 1530 -514 q 1565 -552 1608 -566 q 1651 -581 1701 -581 z"},"ഉ":{"ha":793,"x_min":32,"x_max":759,"o":"m 389 -581 l 389 -581 q 487 -581 558 -558 q 628 -535 673 -495 q 717 -456 738 -404 q 759 -352 759 -294 l 759 -294 q 759 -218 733 -162 q 707 -106 667 -74 l 667 -74 q 635 -48 593 -31 q 550 -15 489 -7 q 428 0 340 0 l 340 0 l 318 0 q 283 0 269 2 q 254 3 244 8 l 244 8 q 234 12 230 19 q 225 26 225 36 l 225 36 q 225 46 229 53 q 232 59 239 64 l 239 64 q 249 71 266 74 q 283 77 321 77 l 321 77 l 740 77 l 740 206 l 308 206 q 241 206 197 200 q 152 194 115 175 l 115 175 q 80 157 59 124 q 37 91 37 42 l 37 42 q 37 -2 54 -33 q 70 -64 98 -83 l 98 -83 q 134 -108 181 -117 q 228 -127 298 -127 l 298 -127 l 316 -127 q 379 -127 418 -131 q 457 -136 481 -146 q 505 -156 523 -172 l 523 -172 q 548 -195 559 -226 q 569 -258 569 -296 l 569 -296 q 569 -334 556 -363 q 543 -393 519 -414 q 494 -435 459 -446 q 424 -457 380 -457 l 380 -457 q 343 -457 313 -454 q 283 -451 260 -444 q 236 -437 218 -425 q 200 -414 188 -398 l 188 -398 q 181 -388 184 -378 q 186 -369 184 -358 l 184 -358 q 183 -351 183 -340 q 182 -329 182 -318 l 182 -318 q 182 -283 197 -265 q 212 -248 236 -248 l 236 -248 q 262 -248 274 -261 q 285 -275 285 -294 l 285 -294 q 285 -310 279 -320 q 273 -330 262 -335 q 250 -340 234 -340 l 234 -340 q 211 -340 190 -332 q 168 -324 142 -310 l 142 -310 l 86 -354 q 103 -370 133 -388 q 163 -406 199 -419 q 235 -433 270 -433 l 270 -433 q 332 -433 372 -414 q 412 -396 432 -364 q 452 -332 452 -292 l 452 -292 q 452 -250 433 -215 q 413 -180 367 -159 q 321 -138 239 -138 l 239 -138 q 180 -138 133 -160 q 86 -182 59 -225 q 32 -269 32 -333 l 32 -333 q 32 -379 53 -423 q 73 -467 117 -503 q 160 -539 228 -560 q 295 -581 389 -581 z"},"ഊ":{"ha":1667,"x_min":32,"x_max":1632,"o":"m 389 -581 l 389 -581 q 487 -581 558 -558 q 628 -535 673 -495 q 717 -456 738 -404 q 759 -352 759 -294 l 759 -294 q 759 -218 733 -162 q 707 -106 667 -74 l 667 -74 q 635 -48 593 -31 q 550 -15 489 -7 q 428 0 340 0 l 340 0 l 318 0 q 283 0 269 2 q 254 3 244 8 l 244 8 q 234 12 230 19 q 225 26 225 36 l 225 36 q 225 46 229 53 q 232 59 239 64 l 239 64 q 249 71 266 74 q 283 77 321 77 l 321 77 l 740 77 l 740 206 l 308 206 q 241 206 197 200 q 152 194 115 175 l 115 175 q 80 157 59 124 q 37 91 37 42 l 37 42 q 37 -2 54 -33 q 70 -64 98 -83 l 98 -83 q 134 -108 181 -117 q 228 -127 298 -127 l 298 -127 l 316 -127 q 379 -127 418 -131 q 457 -136 481 -146 q 505 -156 523 -172 l 523 -172 q 548 -195 559 -226 q 569 -258 569 -296 l 569 -296 q 569 -334 556 -363 q 543 -393 519 -414 q 494 -435 459 -446 q 424 -457 380 -457 l 380 -457 q 343 -457 313 -454 q 283 -451 260 -444 q 236 -437 218 -425 q 200 -414 188 -398 l 188 -398 q 181 -388 184 -378 q 186 -369 184 -358 l 184 -358 q 183 -351 183 -340 q 182 -329 182 -318 l 182 -318 q 182 -283 197 -265 q 212 -248 236 -248 l 236 -248 q 262 -248 274 -261 q 285 -275 285 -294 l 285 -294 q 285 -310 279 -320 q 273 -330 262 -335 q 250 -340 234 -340 l 234 -340 q 211 -340 190 -332 q 168 -324 142 -310 l 142 -310 l 86 -354 q 103 -370 133 -388 q 163 -406 199 -419 q 235 -433 270 -433 l 270 -433 q 332 -433 372 -414 q 412 -396 432 -364 q 452 -332 452 -292 l 452 -292 q 452 -250 433 -215 q 413 -180 367 -159 q 321 -138 239 -138 l 239 -138 q 180 -138 133 -160 q 86 -182 59 -225 q 32 -269 32 -333 l 32 -333 q 32 -379 53 -423 q 73 -467 117 -503 q 160 -539 228 -560 q 295 -581 389 -581 z m 1380 -581 l 1380 -581 q 1458 -581 1515 -549 q 1571 -517 1602 -456 q 1632 -395 1632 -307 l 1632 -307 q 1632 -207 1596 -135 q 1560 -64 1487 -26 q 1414 12 1304 12 l 1304 12 q 1214 12 1150 -3 q 1085 -18 1027 -47 l 1027 -47 l 1093 -165 q 1147 -138 1189 -128 q 1231 -118 1283 -118 l 1283 -118 q 1341 -118 1376 -138 q 1411 -159 1427 -201 q 1442 -244 1442 -308 l 1442 -308 q 1442 -382 1420 -417 q 1398 -453 1366 -453 l 1366 -453 q 1354 -453 1345 -449 q 1336 -446 1330 -439 l 1330 -439 q 1320 -427 1317 -407 q 1313 -388 1313 -353 l 1313 -353 l 1313 -268 l 1128 -268 l 1128 -345 q 1128 -377 1124 -402 q 1120 -427 1108 -439 l 1108 -439 q 1100 -447 1091 -450 q 1082 -453 1071 -453 l 1071 -453 q 1043 -453 1025 -433 q 1007 -413 1007 -376 l 1007 -376 q 1007 -352 1011 -331 q 1015 -311 1021 -293 l 1021 -293 l 841 -254 q 831 -285 826 -318 q 820 -352 820 -380 l 820 -380 q 820 -434 846 -479 q 871 -525 923 -553 q 975 -581 1056 -581 l 1056 -581 q 1119 -581 1160 -562 q 1201 -543 1231 -514 l 1231 -514 l 1209 -514 q 1244 -552 1287 -566 q 1330 -581 1380 -581 z"},"ഋ":{"ha":1061,"x_min":30,"x_max":1031,"o":"m 779 -581 l 779 -581 q 898 -581 965 -515 q 1031 -449 1031 -339 l 1031 -339 q 1031 -269 1005 -215 q 978 -162 929 -127 l 929 -127 q 877 -90 806 -75 q 735 -61 650 -61 l 650 -61 l 411 -61 q 355 -61 304 -67 q 253 -73 210 -87 q 167 -102 132 -127 l 132 -127 q 83 -162 57 -215 q 30 -269 30 -339 l 30 -339 q 30 -412 60 -466 q 90 -521 148 -551 q 205 -581 287 -581 l 287 -581 q 361 -581 411 -555 q 461 -530 486 -488 q 511 -446 511 -395 l 511 -395 q 511 -333 485 -294 q 459 -256 410 -238 q 360 -221 290 -221 l 290 -221 q 248 -221 210 -237 q 172 -254 141 -280 q 110 -306 86 -332 l 86 -332 l 130 -426 q 152 -400 172 -379 q 192 -358 215 -346 q 238 -334 266 -334 l 266 -334 q 292 -334 312 -348 q 331 -362 331 -399 l 331 -399 q 331 -429 316 -445 q 301 -461 274 -461 l 274 -461 q 253 -461 236 -447 q 219 -434 209 -408 q 199 -383 199 -345 l 199 -345 q 199 -332 200 -321 q 201 -310 203 -299 l 203 -299 l 203 -274 q 217 -240 247 -219 q 276 -199 319 -189 q 361 -179 412 -176 q 463 -173 520 -173 l 520 -173 l 539 -173 q 595 -173 647 -176 q 698 -179 741 -189 q 784 -199 815 -219 q 845 -240 858 -274 l 858 -274 l 858 -297 q 860 -309 861 -320 q 862 -332 862 -345 l 862 -345 q 862 -383 853 -408 q 843 -434 826 -447 q 809 -461 788 -461 l 788 -461 q 760 -461 745 -445 q 730 -429 730 -399 l 730 -399 q 730 -362 750 -348 q 769 -334 795 -334 l 795 -334 q 824 -334 847 -346 q 869 -358 890 -379 q 910 -400 931 -426 l 931 -426 l 975 -332 q 952 -306 920 -280 q 888 -254 850 -237 q 812 -221 767 -221 l 767 -221 q 699 -221 650 -238 q 601 -256 576 -294 q 550 -333 550 -395 l 550 -395 q 550 -446 576 -488 q 601 -530 652 -555 q 703 -581 779 -581 z m 541 261 l 541 261 q 392 261 295 241 q 198 221 151 177 q 103 132 103 59 l 103 59 q 103 3 134 -33 q 165 -69 216 -90 q 266 -112 327 -120 q 387 -129 446 -129 l 446 -129 l 615 -129 q 674 -129 735 -120 q 795 -112 846 -90 q 896 -69 927 -33 q 958 3 958 59 l 958 59 q 958 132 912 177 q 865 221 773 241 q 680 261 541 261 z m 532 128 l 532 128 q 614 128 666 120 q 717 111 742 92 q 767 72 767 39 l 767 39 q 767 13 751 -3 q 735 -19 706 -28 q 676 -38 636 -41 q 595 -45 545 -45 l 545 -45 l 516 -45 q 450 -45 400 -38 q 350 -31 322 -13 q 294 5 294 39 l 294 39 q 294 72 319 92 q 344 111 397 120 q 449 128 532 128 z"},"ഌ":{"ha":1369,"x_min":33,"x_max":1338,"o":"m 422 -581 l 422 -581 q 516 -581 582 -558 q 648 -535 704 -480 l 704 -480 l 737 -404 l 761 -317 l 761 0 l 574 0 l 574 -273 q 574 -338 564 -371 q 554 -404 529 -424 l 529 -424 q 511 -438 484 -445 q 456 -453 418 -453 l 418 -453 q 360 -453 311 -429 q 261 -405 232 -358 q 202 -312 202 -244 l 202 -244 l 202 -240 q 202 -188 212 -159 q 222 -130 238 -119 q 254 -108 273 -108 l 273 -108 q 290 -108 302 -114 q 313 -121 319 -135 q 325 -150 325 -173 l 325 -173 q 325 -205 310 -222 q 294 -240 267 -240 l 267 -240 q 233 -240 207 -220 q 180 -200 139 -156 l 139 -156 l 118 -276 q 158 -310 205 -334 q 252 -359 316 -359 l 316 -359 q 380 -359 422 -336 q 464 -313 485 -273 q 506 -233 506 -180 l 506 -180 q 506 -121 481 -77 q 456 -34 406 -11 q 355 12 278 12 l 278 12 q 209 12 154 -14 q 98 -41 66 -97 q 33 -154 33 -244 l 33 -244 q 33 -352 85 -427 q 136 -503 224 -542 q 312 -581 422 -581 z m 1076 12 l 1076 12 q 991 12 938 -18 q 885 -48 861 -97 q 836 -147 836 -205 l 836 -205 q 836 -300 891 -355 q 945 -410 1044 -410 l 1044 -410 q 1107 -410 1154 -379 q 1200 -349 1228 -302 q 1255 -255 1259 -205 l 1259 -205 l 1186 -203 q 1181 -227 1169 -248 q 1156 -269 1137 -282 q 1117 -295 1090 -295 l 1090 -295 q 1054 -295 1035 -272 q 1016 -250 1016 -205 l 1016 -205 q 1016 -174 1024 -154 q 1032 -135 1047 -125 q 1061 -116 1079 -116 l 1079 -116 q 1104 -116 1121 -129 q 1138 -142 1147 -170 q 1155 -198 1155 -242 l 1155 -242 q 1155 -257 1154 -273 q 1152 -290 1150 -305 l 1150 -305 q 1149 -309 1151 -317 q 1153 -325 1151 -329 l 1151 -329 q 1146 -363 1119 -390 q 1092 -418 1048 -434 q 1003 -451 944 -451 l 944 -451 q 896 -451 868 -441 q 839 -431 819 -416 l 819 -416 q 794 -397 782 -368 q 769 -340 765 -306 q 761 -273 761 -238 l 761 -238 l 761 -154 l 628 -450 q 660 -484 702 -513 q 743 -543 802 -562 q 860 -581 940 -581 l 940 -581 q 1039 -581 1114 -553 q 1188 -525 1238 -477 q 1288 -429 1313 -367 q 1338 -305 1338 -237 l 1338 -237 q 1338 -157 1308 -101 q 1278 -46 1220 -17 q 1161 12 1076 12 z"},"എ":{"ha":1455,"x_min":27,"x_max":1415,"o":"m 285 -372 l 285 -372 q 375 -372 431 -342 q 486 -312 512 -266 q 538 -221 538 -173 l 538 -173 q 538 -151 533 -124 q 528 -98 518 -76 l 518 -76 l 521 -128 l 972 -128 l 974 0 l 392 0 l 329 -70 q 340 -87 350 -110 q 360 -133 360 -163 l 360 -163 q 360 -195 343 -220 q 326 -245 287 -245 l 287 -245 q 262 -245 245 -234 q 228 -223 220 -204 q 212 -185 212 -160 l 212 -160 q 212 -129 223 -101 q 234 -74 252 -45 l 252 -45 l 108 13 q 72 -25 50 -70 q 27 -115 27 -170 l 27 -170 q 27 -233 60 -278 q 93 -324 151 -348 q 209 -372 285 -372 z m 1023 -581 l 1023 -581 q 1124 -581 1198 -551 q 1272 -522 1320 -467 q 1368 -413 1392 -338 q 1415 -263 1415 -171 l 1415 -171 q 1415 -86 1398 -16 q 1380 53 1350 113 q 1319 173 1278 229 l 1278 229 l 1125 154 q 1158 102 1180 52 q 1202 1 1214 -54 q 1225 -109 1225 -172 l 1225 -172 q 1225 -232 1214 -283 q 1203 -334 1179 -372 q 1154 -411 1116 -432 q 1078 -453 1024 -453 l 1024 -453 q 949 -453 901 -413 q 852 -374 829 -303 q 805 -233 805 -140 l 805 -140 q 805 -127 806 -110 q 806 -93 807 -75 l 807 -75 q 807 -70 807 -64 q 807 -58 807 -53 l 807 -53 q 809 -11 818 24 q 826 59 843 81 q 860 102 886 102 l 886 102 q 901 102 908 95 l 908 95 q 913 90 916 83 q 918 75 918 56 l 918 56 l 918 -378 l 1105 -378 l 1105 12 q 1105 87 1088 125 q 1071 163 1045 185 l 1045 185 q 1018 207 983 218 q 947 228 891 228 l 891 228 q 804 228 743 188 q 682 147 651 64 q 619 -20 619 -148 l 619 -148 q 619 -238 643 -317 q 667 -396 717 -455 q 767 -514 843 -547 q 919 -581 1023 -581 z"},"ഏ":{"ha":1476,"x_min":29,"x_max":1446,"o":"m 287 -372 l 287 -372 q 377 -372 433 -342 q 488 -312 514 -266 q 540 -221 540 -173 l 540 -173 q 540 -151 535 -124 q 530 -98 520 -76 l 520 -76 l 523 -128 l 974 -128 l 976 0 l 394 0 l 331 -70 q 342 -87 352 -110 q 362 -133 362 -163 l 362 -163 q 362 -195 345 -220 q 328 -245 289 -245 l 289 -245 q 264 -245 247 -234 q 230 -223 222 -204 q 214 -185 214 -160 l 214 -160 q 214 -129 225 -101 q 236 -74 254 -45 l 254 -45 l 110 13 q 74 -25 52 -70 q 29 -115 29 -170 l 29 -170 q 29 -233 62 -278 q 95 -324 153 -348 q 211 -372 287 -372 z m 1075 -581 l 1075 -581 q 1175 -581 1244 -560 q 1313 -540 1356 -505 q 1398 -471 1417 -427 q 1436 -384 1436 -337 l 1436 -337 q 1436 -287 1422 -250 q 1408 -214 1383 -187 q 1358 -161 1326 -139 l 1326 -139 l 1329 -154 q 1385 -130 1416 -86 q 1446 -42 1446 23 l 1446 23 q 1446 96 1417 141 q 1387 186 1333 207 q 1279 228 1205 228 l 1205 228 q 1186 228 1159 226 q 1132 224 1115 220 l 1115 220 l 1133 95 q 1144 98 1156 99 q 1167 100 1175 100 l 1175 100 q 1205 100 1224 90 q 1242 80 1250 62 q 1258 43 1258 17 l 1258 17 q 1258 -24 1231 -50 q 1203 -76 1150 -76 l 1150 -76 l 1150 -202 q 1179 -211 1201 -225 q 1223 -239 1236 -262 q 1248 -285 1248 -321 l 1248 -321 q 1248 -360 1229 -389 q 1210 -419 1171 -436 q 1131 -453 1070 -453 l 1070 -453 q 975 -453 917 -411 q 859 -369 833 -298 q 807 -228 807 -140 l 807 -140 q 807 -127 808 -110 q 808 -93 809 -75 l 809 -75 q 809 -70 809 -64 q 809 -58 809 -53 l 809 -53 q 811 -11 820 24 q 828 59 845 81 q 862 102 888 102 l 888 102 q 903 102 910 95 l 910 95 q 915 90 918 83 q 920 75 920 56 l 920 56 l 920 -378 l 1107 -378 l 1107 12 q 1107 87 1090 125 q 1073 163 1047 185 l 1047 185 q 1020 207 985 218 q 949 228 893 228 l 893 228 q 806 228 745 188 q 684 147 653 64 q 621 -20 621 -148 l 621 -148 q 621 -242 650 -321 q 678 -400 735 -458 q 791 -517 876 -549 q 961 -581 1075 -581 z"},"ഐ":{"ha":2294,"x_min":35,"x_max":2254,"o":"m 280 12 l 280 12 q 211 12 156 -14 q 100 -40 68 -97 q 35 -154 35 -245 l 35 -245 q 35 -317 62 -378 q 88 -440 140 -485 q 192 -531 268 -556 q 344 -581 443 -581 l 443 -581 q 546 -581 616 -555 q 685 -529 727 -486 q 768 -443 787 -390 q 805 -337 805 -284 l 805 -284 q 805 -219 787 -166 q 768 -114 735 -70 q 702 -27 658 12 l 658 12 l 520 -69 q 550 -104 571 -137 q 591 -171 602 -206 q 613 -241 613 -281 l 613 -281 q 613 -334 593 -372 q 573 -410 533 -431 q 492 -452 428 -452 l 428 -452 q 361 -452 311 -426 q 260 -400 232 -353 q 204 -307 204 -244 l 204 -244 q 204 -190 214 -160 q 224 -131 240 -119 q 256 -108 275 -108 l 275 -108 q 292 -108 304 -114 q 315 -121 321 -135 q 327 -150 327 -173 l 327 -173 q 327 -205 312 -222 q 296 -240 269 -240 l 269 -240 q 235 -240 209 -220 q 182 -200 141 -156 l 141 -156 l 120 -276 q 160 -310 206 -334 q 251 -359 318 -359 l 318 -359 q 382 -359 424 -336 q 466 -313 487 -272 q 508 -232 508 -179 l 508 -179 q 508 -120 483 -77 q 458 -34 408 -11 q 357 12 280 12 z m 1124 -372 l 1124 -372 q 1214 -372 1270 -342 q 1325 -312 1351 -266 q 1377 -221 1377 -173 l 1377 -173 q 1377 -151 1372 -124 q 1367 -98 1357 -76 l 1357 -76 l 1360 -128 l 1811 -128 l 1813 0 l 1231 0 l 1168 -70 q 1179 -87 1189 -110 q 1199 -133 1199 -163 l 1199 -163 q 1199 -195 1182 -220 q 1165 -245 1126 -245 l 1126 -245 q 1101 -245 1084 -234 q 1067 -223 1059 -204 q 1051 -185 1051 -160 l 1051 -160 q 1051 -129 1062 -101 q 1073 -74 1091 -45 l 1091 -45 l 947 13 q 911 -25 889 -70 q 866 -115 866 -170 l 866 -170 q 866 -233 899 -278 q 932 -324 990 -348 q 1048 -372 1124 -372 z m 1862 -581 l 1862 -581 q 1963 -581 2037 -551 q 2111 -522 2159 -467 q 2207 -413 2231 -338 q 2254 -263 2254 -171 l 2254 -171 q 2254 -86 2237 -16 q 2219 53 2189 113 q 2158 173 2117 229 l 2117 229 l 1964 154 q 1997 102 2019 52 q 2041 1 2053 -54 q 2064 -109 2064 -172 l 2064 -172 q 2064 -232 2053 -283 q 2042 -334 2018 -372 q 1993 -411 1955 -432 q 1917 -453 1863 -453 l 1863 -453 q 1788 -453 1740 -413 q 1691 -374 1668 -303 q 1644 -233 1644 -140 l 1644 -140 q 1644 -127 1645 -110 q 1645 -93 1646 -75 l 1646 -75 q 1646 -70 1646 -64 q 1646 -58 1646 -53 l 1646 -53 q 1648 -11 1657 24 q 1665 59 1682 81 q 1699 102 1725 102 l 1725 102 q 1740 102 1747 95 l 1747 95 q 1752 90 1755 83 q 1757 75 1757 56 l 1757 56 l 1757 -378 l 1944 -378 l 1944 12 q 1944 87 1927 125 q 1910 163 1884 185 l 1884 185 q 1857 207 1822 218 q 1786 228 1730 228 l 1730 228 q 1643 228 1582 188 q 1521 147 1490 64 q 1458 -20 1458 -148 l 1458 -148 q 1458 -238 1482 -317 q 1506 -396 1556 -455 q 1606 -514 1682 -547 q 1758 -581 1862 -581 z"},"ഒ":{"ha":878,"x_min":33,"x_max":847,"o":"m 515 -581 l 515 -581 q 638 -581 708 -557 q 778 -534 807 -496 q 836 -458 836 -413 l 836 -413 q 836 -386 828 -362 q 820 -338 801 -318 q 781 -298 746 -281 l 746 -281 l 747 -287 q 800 -268 824 -231 q 847 -195 847 -148 l 847 -148 q 847 -71 790 -29 q 732 12 622 12 l 622 12 q 588 12 560 9 q 532 5 508 0 l 508 0 l 533 -123 q 545 -120 562 -118 q 578 -116 591 -116 l 591 -116 q 626 -116 644 -127 q 661 -138 661 -164 l 661 -164 q 661 -178 655 -187 q 649 -197 638 -204 l 638 -204 q 625 -212 606 -214 q 587 -217 552 -217 l 552 -217 l 543 -217 l 543 -343 l 550 -343 q 586 -343 604 -346 q 622 -349 635 -359 l 635 -359 q 643 -365 647 -373 q 650 -382 650 -393 l 650 -393 q 650 -428 611 -440 q 572 -453 500 -453 l 500 -453 q 455 -453 404 -443 q 352 -433 306 -410 q 260 -387 231 -349 q 202 -311 202 -254 l 202 -254 l 202 -238 q 202 -188 212 -159 q 222 -131 238 -119 q 254 -108 273 -108 l 273 -108 q 290 -108 302 -115 q 313 -122 319 -136 q 325 -151 325 -173 l 325 -173 q 325 -205 310 -222 q 294 -240 267 -240 l 267 -240 q 233 -240 207 -220 q 180 -200 139 -156 l 139 -156 l 118 -276 q 158 -310 205 -334 q 252 -359 316 -359 l 316 -359 q 380 -359 422 -336 q 464 -313 485 -273 q 506 -233 506 -180 l 506 -180 q 506 -121 481 -77 q 456 -34 406 -11 q 355 12 278 12 l 278 12 q 209 12 154 -14 q 98 -40 66 -96 q 33 -153 33 -242 l 33 -242 q 33 -327 70 -390 q 106 -454 172 -496 q 238 -539 326 -560 q 413 -581 515 -581 z"},"ഓ":{"ha":1489,"x_min":33,"x_max":1454,"o":"m 515 -581 l 515 -581 q 638 -581 708 -557 q 778 -534 807 -496 q 836 -458 836 -413 l 836 -413 q 836 -386 828 -362 q 820 -338 801 -318 q 781 -298 746 -281 l 746 -281 l 747 -287 q 800 -268 824 -231 q 847 -195 847 -148 l 847 -148 q 847 -71 790 -29 q 732 12 622 12 l 622 12 q 588 12 560 9 q 532 5 508 0 l 508 0 l 533 -123 q 545 -120 562 -118 q 578 -116 591 -116 l 591 -116 q 626 -116 644 -127 q 661 -138 661 -164 l 661 -164 q 661 -178 655 -187 q 649 -197 638 -204 l 638 -204 q 625 -212 606 -214 q 587 -217 552 -217 l 552 -217 l 543 -217 l 543 -343 l 550 -343 q 586 -343 604 -346 q 622 -349 635 -359 l 635 -359 q 643 -365 647 -373 q 650 -382 650 -393 l 650 -393 q 650 -428 611 -440 q 572 -453 500 -453 l 500 -453 q 455 -453 404 -443 q 352 -433 306 -410 q 260 -387 231 -349 q 202 -311 202 -254 l 202 -254 l 202 -238 q 202 -188 212 -159 q 222 -131 238 -119 q 254 -108 273 -108 l 273 -108 q 290 -108 302 -115 q 313 -122 319 -136 q 325 -151 325 -173 l 325 -173 q 325 -205 310 -222 q 294 -240 267 -240 l 267 -240 q 233 -240 207 -220 q 180 -200 139 -156 l 139 -156 l 118 -276 q 158 -310 205 -334 q 252 -359 316 -359 l 316 -359 q 380 -359 422 -336 q 464 -313 485 -273 q 506 -233 506 -180 l 506 -180 q 506 -121 481 -77 q 456 -34 406 -11 q 355 12 278 12 l 278 12 q 209 12 154 -14 q 98 -40 66 -96 q 33 -153 33 -242 l 33 -242 q 33 -327 70 -390 q 106 -454 172 -496 q 238 -539 326 -560 q 413 -581 515 -581 z m 1454 -287 l 1454 -287 q 1454 -228 1441 -174 q 1428 -120 1396 -78 q 1364 -36 1309 -12 q 1253 12 1168 12 l 1168 12 q 1092 12 1043 -5 q 993 -23 963 -52 q 933 -81 918 -116 q 902 -151 893 -186 l 893 -186 l 1085 -218 q 1093 -188 1103 -165 q 1112 -142 1129 -129 q 1145 -116 1172 -116 l 1172 -116 q 1204 -116 1224 -136 q 1244 -157 1253 -194 q 1262 -232 1262 -284 l 1262 -284 q 1262 -336 1253 -373 q 1244 -411 1225 -432 q 1205 -453 1174 -453 l 1174 -453 q 1149 -453 1132 -439 q 1115 -426 1105 -403 q 1095 -380 1088 -351 l 1088 -351 l 895 -384 q 907 -420 927 -455 q 946 -490 978 -518 q 1009 -547 1058 -564 q 1107 -581 1178 -581 l 1178 -581 q 1259 -581 1313 -556 q 1366 -532 1397 -490 q 1428 -448 1441 -395 q 1454 -343 1454 -287 z"},"ഔ":{"ha":1752,"x_min":33,"x_max":1717,"o":"m 515 -581 l 515 -581 q 638 -581 708 -557 q 778 -534 807 -496 q 836 -458 836 -413 l 836 -413 q 836 -386 828 -362 q 820 -338 801 -318 q 781 -298 746 -281 l 746 -281 l 747 -287 q 800 -268 824 -231 q 847 -195 847 -148 l 847 -148 q 847 -71 790 -29 q 732 12 622 12 l 622 12 q 588 12 560 9 q 532 5 508 0 l 508 0 l 533 -123 q 545 -120 562 -118 q 578 -116 591 -116 l 591 -116 q 626 -116 644 -127 q 661 -138 661 -164 l 661 -164 q 661 -178 655 -187 q 649 -197 638 -204 l 638 -204 q 625 -212 606 -214 q 587 -217 552 -217 l 552 -217 l 543 -217 l 543 -343 l 550 -343 q 586 -343 604 -346 q 622 -349 635 -359 l 635 -359 q 643 -365 647 -373 q 650 -382 650 -393 l 650 -393 q 650 -428 611 -440 q 572 -453 500 -453 l 500 -453 q 455 -453 404 -443 q 352 -433 306 -410 q 260 -387 231 -349 q 202 -311 202 -254 l 202 -254 l 202 -238 q 202 -188 212 -159 q 222 -131 238 -119 q 254 -108 273 -108 l 273 -108 q 290 -108 302 -115 q 313 -122 319 -136 q 325 -151 325 -173 l 325 -173 q 325 -205 310 -222 q 294 -240 267 -240 l 267 -240 q 233 -240 207 -220 q 180 -200 139 -156 l 139 -156 l 118 -276 q 158 -310 205 -334 q 252 -359 316 -359 l 316 -359 q 380 -359 422 -336 q 464 -313 485 -273 q 506 -233 506 -180 l 506 -180 q 506 -121 481 -77 q 456 -34 406 -11 q 355 12 278 12 l 278 12 q 209 12 154 -14 q 98 -40 66 -96 q 33 -153 33 -242 l 33 -242 q 33 -327 70 -390 q 106 -454 172 -496 q 238 -539 326 -560 q 413 -581 515 -581 z m 1465 -581 l 1465 -581 q 1543 -581 1600 -549 q 1656 -517 1687 -456 q 1717 -395 1717 -307 l 1717 -307 q 1717 -207 1681 -135 q 1645 -64 1572 -26 q 1499 12 1389 12 l 1389 12 q 1299 12 1235 -3 q 1170 -18 1112 -47 l 1112 -47 l 1178 -165 q 1232 -138 1274 -128 q 1316 -118 1368 -118 l 1368 -118 q 1426 -118 1461 -138 q 1496 -159 1512 -201 q 1527 -244 1527 -308 l 1527 -308 q 1527 -382 1505 -417 q 1483 -453 1451 -453 l 1451 -453 q 1439 -453 1430 -449 q 1421 -446 1415 -439 l 1415 -439 q 1405 -427 1402 -407 q 1398 -388 1398 -353 l 1398 -353 l 1398 -268 l 1213 -268 l 1213 -345 q 1213 -377 1209 -402 q 1205 -427 1193 -439 l 1193 -439 q 1185 -447 1176 -450 q 1167 -453 1156 -453 l 1156 -453 q 1128 -453 1110 -433 q 1092 -413 1092 -376 l 1092 -376 q 1092 -352 1096 -331 q 1100 -311 1106 -293 l 1106 -293 l 926 -254 q 916 -285 911 -318 q 905 -352 905 -380 l 905 -380 q 905 -434 931 -479 q 956 -525 1008 -553 q 1060 -581 1141 -581 l 1141 -581 q 1204 -581 1245 -562 q 1286 -543 1316 -514 l 1316 -514 l 1294 -514 q 1329 -552 1372 -566 q 1415 -581 1465 -581 z"},"ക":{"ha":1209,"x_min":27,"x_max":1182,"o":"m 250 12 l 250 12 q 144 12 86 -35 q 27 -82 27 -167 l 27 -167 q 27 -220 50 -255 q 72 -290 107 -312 l 107 -312 q 138 -331 176 -341 q 213 -351 264 -355 q 314 -359 383 -359 l 383 -359 l 854 -359 q 943 -359 1000 -351 q 1057 -343 1102 -317 l 1102 -317 q 1139 -296 1161 -260 q 1182 -224 1182 -167 l 1182 -167 q 1182 -77 1123 -32 q 1064 12 966 12 l 966 12 q 943 12 918 10 q 893 7 871 2 l 871 2 l 900 -121 q 911 -118 923 -117 q 934 -116 944 -116 l 944 -116 q 973 -116 987 -130 q 1001 -144 1001 -167 l 1001 -167 q 1001 -185 994 -196 q 986 -208 974 -215 l 974 -215 q 957 -225 929 -228 q 900 -231 851 -231 l 851 -231 l 330 -231 q 286 -231 263 -226 q 239 -222 225 -211 l 225 -211 q 215 -204 209 -193 q 203 -182 203 -168 l 203 -168 q 203 -150 211 -138 q 219 -126 235 -120 q 250 -115 274 -115 l 274 -115 q 303 -115 330 -125 q 356 -135 384 -157 l 384 -157 l 456 -46 q 422 -25 392 -12 q 361 1 328 7 q 294 12 250 12 z m 607 -581 l 607 -581 q 714 -581 779 -544 q 844 -507 873 -441 q 902 -375 902 -287 l 902 -287 q 902 -191 869 -124 q 836 -57 771 -22 q 706 12 608 12 l 608 12 q 528 12 471 -10 q 413 -32 376 -80 l 376 -80 q 345 -118 328 -170 q 311 -223 311 -287 l 311 -287 q 311 -427 385 -504 q 459 -581 607 -581 z m 607 -453 l 607 -453 q 548 -453 521 -408 q 494 -364 494 -283 l 494 -283 q 494 -233 506 -195 q 518 -157 543 -136 q 568 -116 607 -116 l 607 -116 q 645 -116 670 -136 q 695 -156 707 -194 q 719 -232 719 -286 l 719 -286 q 719 -339 707 -376 q 695 -413 671 -433 q 646 -453 607 -453 z"},"ഖ":{"ha":1161,"x_min":32,"x_max":1105,"o":"m 441 -581 l 441 -581 q 543 -581 613 -555 q 683 -529 726 -486 q 768 -443 787 -390 q 805 -337 805 -284 l 805 -284 q 805 -227 790 -186 q 775 -146 746 -111 q 717 -76 676 -35 l 676 -35 l 619 0 l 564 0 l 538 -79 q 560 -109 577 -140 q 594 -172 605 -206 q 615 -241 615 -281 l 615 -281 q 615 -334 594 -372 q 573 -410 532 -431 q 491 -452 429 -452 l 429 -452 q 372 -452 320 -428 q 267 -405 234 -358 q 201 -312 201 -243 l 201 -243 l 201 -236 q 201 -186 211 -158 q 221 -130 237 -119 q 253 -108 272 -108 l 272 -108 q 289 -108 301 -114 q 312 -121 318 -135 q 324 -150 324 -173 l 324 -173 q 324 -205 309 -222 q 293 -240 267 -240 l 267 -240 q 233 -240 206 -220 q 179 -200 138 -156 l 138 -156 l 117 -276 q 157 -310 204 -334 q 251 -359 315 -359 l 315 -359 q 379 -359 421 -336 q 463 -313 484 -273 q 505 -233 505 -180 l 505 -180 q 505 -121 480 -77 q 455 -34 405 -11 q 354 12 277 12 l 277 12 q 208 12 153 -14 q 97 -40 65 -95 q 32 -150 32 -237 l 32 -237 q 32 -341 81 -418 q 130 -495 222 -538 q 313 -581 441 -581 z m 918 -569 l 1105 -569 l 1105 0 l 609 0 l 695 -128 l 918 -128 l 918 -569 z"},"ഗ":{"ha":1025,"x_min":35,"x_max":990,"o":"m 700 -581 l 700 -581 q 791 -581 856 -545 q 921 -510 956 -446 q 990 -383 990 -300 l 990 -300 q 990 -237 974 -185 q 958 -134 927 -86 q 896 -39 851 12 l 851 12 l 712 -69 q 743 -112 763 -148 q 782 -185 791 -220 q 800 -256 800 -296 l 800 -296 q 800 -356 786 -390 q 771 -424 748 -438 q 724 -452 696 -452 l 696 -452 q 677 -452 663 -447 q 648 -442 638 -432 l 638 -432 q 619 -414 614 -382 q 608 -350 608 -305 l 608 -305 l 608 -275 q 608 -220 600 -176 q 591 -132 574 -99 q 556 -67 528 -44 l 528 -44 q 494 -16 445 -2 q 396 12 325 12 l 325 12 q 234 12 169 -23 q 104 -59 70 -122 q 35 -186 35 -269 l 35 -269 q 35 -332 51 -383 q 67 -435 99 -482 q 130 -530 174 -581 l 174 -581 l 313 -500 q 282 -457 263 -420 q 243 -384 234 -348 q 225 -313 225 -273 l 225 -273 q 225 -214 240 -179 q 254 -145 278 -131 q 302 -117 329 -117 l 329 -117 q 349 -117 363 -122 q 377 -127 387 -137 l 387 -137 q 406 -155 412 -187 q 417 -219 417 -264 l 417 -264 l 417 -303 q 417 -380 437 -435 q 456 -490 499 -524 l 499 -524 q 534 -552 581 -566 q 628 -581 700 -581 z"},"ഘ":{"ha":1533,"x_min":27,"x_max":1478,"o":"m 285 -581 l 285 -581 q 375 -581 431 -551 q 486 -521 512 -475 q 538 -430 538 -382 l 538 -382 q 538 -360 533 -333 q 528 -307 518 -285 l 518 -285 l 521 -335 l 732 -335 l 742 -209 l 392 -209 l 329 -279 q 340 -296 350 -319 q 360 -342 360 -372 l 360 -372 q 360 -404 343 -429 q 326 -454 287 -454 l 287 -454 q 262 -454 245 -443 q 228 -432 220 -413 q 212 -394 212 -369 l 212 -369 q 212 -338 223 -310 q 234 -283 252 -254 l 252 -254 l 108 -196 q 72 -234 50 -279 q 27 -324 27 -379 l 27 -379 q 27 -442 60 -487 q 93 -533 151 -557 q 209 -581 285 -581 z m 1291 -569 l 1478 -569 l 1478 0 l 608 0 l 608 -297 q 608 -380 631 -431 q 654 -483 694 -517 l 694 -517 q 732 -549 784 -565 q 836 -581 902 -581 l 902 -581 q 973 -581 1024 -564 q 1075 -548 1112 -516 l 1112 -516 q 1152 -481 1173 -429 q 1193 -378 1193 -296 l 1193 -296 l 1193 -209 l 794 -209 l 794 -128 l 1291 -128 l 1291 -569 z m 901 -453 l 901 -453 q 846 -453 820 -421 q 794 -389 794 -339 l 794 -339 l 794 -335 l 1007 -335 l 1007 -339 q 1007 -391 980 -422 q 952 -453 901 -453 z"},"ങ":{"ha":1248,"x_min":33,"x_max":1217,"o":"m 422 -581 l 422 -581 q 516 -581 582 -558 q 648 -535 704 -480 l 704 -480 l 730 -390 l 761 -239 l 761 0 l 574 0 l 574 -273 q 574 -338 564 -371 q 554 -404 529 -424 l 529 -424 q 511 -438 484 -445 q 456 -453 418 -453 l 418 -453 q 360 -453 311 -429 q 261 -405 232 -358 q 202 -312 202 -244 l 202 -244 l 202 -240 q 202 -188 212 -159 q 222 -130 238 -119 q 254 -108 273 -108 l 273 -108 q 290 -108 302 -114 q 313 -121 319 -135 q 325 -150 325 -173 l 325 -173 q 325 -205 310 -222 q 294 -240 267 -240 l 267 -240 q 233 -240 207 -220 q 180 -200 139 -156 l 139 -156 l 118 -276 q 158 -310 205 -334 q 252 -359 316 -359 l 316 -359 q 380 -359 422 -336 q 464 -313 485 -273 q 506 -233 506 -180 l 506 -180 q 506 -121 481 -77 q 456 -34 406 -11 q 355 12 278 12 l 278 12 q 209 12 154 -14 q 98 -41 66 -97 q 33 -154 33 -244 l 33 -244 q 33 -352 85 -427 q 136 -503 224 -542 q 312 -581 422 -581 z m 953 -581 l 953 -581 q 1041 -581 1097 -559 q 1153 -537 1180 -500 q 1206 -464 1206 -419 l 1206 -419 q 1206 -389 1198 -363 q 1189 -338 1169 -318 q 1149 -298 1114 -282 l 1114 -282 l 1113 -287 q 1168 -268 1193 -231 q 1217 -195 1217 -148 l 1217 -148 q 1217 -74 1160 -31 q 1102 12 992 12 l 992 12 q 956 12 924 8 q 892 3 868 -2 l 868 -2 l 891 -126 q 908 -122 925 -119 q 942 -116 961 -116 l 961 -116 q 996 -116 1014 -127 q 1031 -138 1031 -164 l 1031 -164 q 1031 -178 1025 -187 q 1019 -197 1008 -204 l 1008 -204 q 995 -212 977 -214 q 958 -217 926 -217 l 926 -217 l 888 -217 l 888 -343 l 922 -343 q 954 -343 973 -347 q 992 -351 1004 -361 l 1004 -361 q 1012 -367 1016 -376 q 1020 -385 1020 -397 l 1020 -397 q 1020 -422 999 -437 q 978 -453 935 -453 l 935 -453 q 890 -453 859 -437 q 827 -421 804 -392 l 804 -392 q 785 -368 776 -337 q 767 -307 764 -269 q 761 -232 761 -187 l 761 -187 l 761 -70 l 585 -70 l 585 -241 l 590 -326 q 612 -407 661 -464 q 709 -521 783 -551 q 856 -581 953 -581 z"},"ച":{"ha":1053,"x_min":20,"x_max":998,"o":"m 811 -569 l 998 -569 l 998 0 l 20 0 l 20 -128 l 491 -128 l 404 -100 q 433 -121 448 -146 q 462 -172 462 -203 l 462 -203 q 462 -232 448 -252 q 434 -273 399 -273 l 399 -273 q 370 -273 355 -253 q 339 -234 339 -199 l 339 -199 q 339 -192 340 -186 q 340 -180 341 -173 l 341 -173 l 158 -158 q 156 -171 155 -187 q 154 -204 154 -212 l 154 -212 q 154 -301 215 -350 q 276 -400 400 -400 l 400 -400 q 472 -400 519 -383 q 565 -366 592 -339 q 618 -313 629 -283 q 640 -253 640 -226 l 640 -226 q 640 -203 634 -181 q 628 -159 617 -139 q 606 -120 590 -102 l 590 -102 l 564 -128 l 811 -128 l 811 -569 z"},"ഛ":{"ha":1532,"x_min":20,"x_max":1501,"o":"m 400 -400 l 400 -400 q 472 -400 519 -383 q 565 -366 592 -339 q 618 -313 629 -283 q 640 -253 640 -226 l 640 -226 q 640 -203 634 -181 q 628 -159 617 -139 q 606 -120 590 -102 l 590 -102 l 564 -128 l 811 -128 l 915 0 l 20 0 l 20 -128 l 491 -128 l 404 -100 q 433 -121 448 -146 q 462 -172 462 -203 l 462 -203 q 462 -232 448 -252 q 434 -273 399 -273 l 399 -273 q 370 -273 355 -253 q 339 -234 339 -199 l 339 -199 q 339 -192 340 -186 q 340 -180 341 -173 l 341 -173 l 158 -158 q 156 -171 155 -187 q 154 -204 154 -212 l 154 -212 q 154 -301 215 -350 q 276 -400 400 -400 z m 1089 -581 l 1089 -581 q 1195 -581 1273 -553 q 1351 -525 1402 -477 q 1452 -429 1477 -367 q 1501 -305 1501 -237 l 1501 -237 q 1501 -157 1471 -101 q 1441 -46 1383 -17 q 1324 12 1239 12 l 1239 12 q 1154 12 1101 -18 q 1048 -48 1024 -97 q 999 -147 999 -205 l 999 -205 q 999 -300 1054 -355 q 1108 -410 1207 -410 l 1207 -410 q 1270 -410 1317 -379 q 1363 -349 1391 -302 q 1418 -255 1422 -205 l 1422 -205 l 1349 -203 q 1344 -227 1332 -248 q 1319 -269 1300 -282 q 1280 -295 1253 -295 l 1253 -295 q 1217 -295 1198 -272 q 1179 -250 1179 -205 l 1179 -205 q 1179 -174 1187 -154 q 1195 -135 1210 -125 q 1224 -116 1242 -116 l 1242 -116 q 1267 -116 1284 -129 q 1301 -142 1310 -170 q 1318 -198 1318 -242 l 1318 -242 q 1318 -257 1317 -273 q 1315 -290 1313 -305 l 1313 -305 q 1312 -309 1314 -317 q 1316 -325 1314 -329 l 1314 -329 q 1309 -363 1283 -390 q 1256 -418 1211 -434 q 1166 -451 1103 -451 l 1103 -451 q 1036 -451 991 -431 q 945 -411 922 -373 q 899 -335 899 -281 l 899 -281 q 899 -242 909 -209 q 919 -176 937 -145 q 955 -115 979 -84 l 979 -84 l 920 0 l 845 0 l 808 -65 q 774 -100 752 -133 q 730 -167 720 -204 q 709 -241 709 -284 l 709 -284 q 709 -337 729 -390 q 749 -443 793 -486 q 837 -529 910 -555 q 983 -581 1089 -581 z"},"ജ":{"ha":1064,"x_min":27,"x_max":1028,"o":"m 325 -581 l 325 -581 q 393 -581 439 -571 q 484 -562 516 -547 q 547 -532 572 -515 l 572 -515 l 545 -507 q 588 -547 642 -564 q 695 -581 762 -581 l 762 -581 q 857 -581 916 -550 q 974 -519 1001 -470 q 1028 -422 1028 -370 l 1028 -370 q 1028 -324 1016 -288 q 1004 -253 980 -226 q 955 -200 918 -181 l 918 -181 l 691 -153 l 529 -142 q 490 -139 457 -138 q 423 -137 394 -137 l 394 -137 l 228 -137 q 215 -137 207 -136 q 199 -135 194 -132 l 194 -132 q 190 -130 188 -126 q 186 -123 186 -118 l 186 -118 q 186 -111 191 -106 q 196 -102 206 -99 q 216 -97 232 -97 l 232 -97 q 252 -97 278 -99 q 304 -101 337 -106 q 370 -112 410 -121 l 410 -121 q 438 -127 466 -133 q 494 -139 522 -143 q 549 -148 575 -152 q 601 -156 626 -158 l 626 -158 q 643 -165 670 -178 q 697 -191 728 -204 q 758 -218 786 -227 q 814 -237 832 -237 l 832 -237 q 873 -237 912 -226 q 951 -216 977 -189 q 1002 -163 1002 -113 l 1002 -113 q 1002 -52 956 -20 q 909 12 820 12 l 820 12 q 745 12 703 -7 q 660 -26 643 -57 q 626 -88 626 -122 l 626 -122 q 626 -163 647 -190 q 667 -217 694 -231 l 694 -231 l 838 -222 q 822 -215 806 -201 q 789 -188 778 -171 q 766 -154 766 -134 l 766 -134 q 766 -115 777 -102 q 788 -89 813 -89 l 813 -89 q 836 -89 847 -97 q 857 -105 857 -118 l 857 -118 q 857 -126 854 -133 q 850 -140 841 -144 q 831 -149 813 -149 l 813 -149 q 791 -149 771 -138 q 750 -127 724 -105 l 724 -105 l 725 -128 q 710 -117 687 -103 q 664 -89 632 -74 q 599 -59 553 -44 l 553 -44 q 487 -23 430 -11 q 372 1 320 7 q 268 12 218 12 l 218 12 q 164 12 121 0 q 78 -12 53 -40 q 27 -69 27 -118 l 27 -118 q 27 -153 41 -175 q 55 -198 77 -212 l 77 -212 q 110 -233 155 -238 q 200 -244 267 -244 l 267 -244 l 610 -244 q 659 -244 691 -245 q 722 -247 745 -251 q 767 -255 788 -264 l 788 -264 q 820 -277 834 -299 q 848 -321 848 -357 l 848 -357 q 848 -386 836 -408 q 823 -430 800 -442 q 776 -455 741 -455 l 741 -455 q 716 -455 699 -449 q 682 -444 671 -432 l 671 -432 q 660 -419 653 -396 q 646 -374 646 -333 l 646 -333 l 646 -269 l 480 -269 l 480 -296 q 480 -347 472 -382 q 464 -417 437 -439 l 437 -439 q 419 -454 393 -463 q 366 -472 326 -472 l 326 -472 q 281 -472 246 -465 q 210 -459 191 -448 l 191 -448 q 188 -446 187 -441 q 185 -436 183 -433 l 183 -433 q 177 -425 175 -414 q 172 -404 172 -393 l 172 -393 q 172 -365 185 -354 q 197 -344 214 -344 l 214 -344 q 229 -344 238 -349 q 246 -354 250 -362 q 254 -371 254 -380 l 254 -380 q 254 -399 242 -409 q 230 -420 209 -420 l 209 -420 q 193 -420 177 -417 q 160 -415 143 -407 l 143 -407 l 93 -439 q 129 -460 166 -470 q 203 -480 246 -480 l 246 -480 q 290 -480 324 -468 q 358 -457 377 -432 q 396 -408 396 -369 l 396 -369 q 396 -338 380 -310 q 364 -282 326 -264 q 287 -247 217 -247 l 217 -247 q 135 -247 84 -283 q 33 -319 33 -396 l 33 -396 q 33 -454 67 -495 q 101 -536 166 -558 q 231 -581 325 -581 z"},"ഝ":{"ha":1902,"x_min":35,"x_max":1867,"o":"m 783 -581 l 783 -581 q 856 -581 911 -567 q 965 -553 1008 -525 l 1008 -525 q 1064 -488 1092 -430 q 1120 -372 1120 -286 l 1120 -286 l 1120 -270 q 1120 -218 1126 -187 q 1131 -156 1149 -138 l 1149 -138 q 1159 -129 1172 -123 q 1185 -117 1205 -117 l 1205 -117 q 1226 -117 1240 -122 q 1254 -128 1266 -140 l 1266 -140 q 1281 -156 1286 -183 q 1290 -210 1290 -256 l 1290 -256 l 1290 -569 l 1477 -569 l 1477 -241 q 1477 -202 1483 -179 q 1489 -156 1502 -141 l 1502 -141 q 1511 -131 1525 -124 q 1539 -117 1559 -117 l 1559 -117 q 1588 -117 1615 -132 q 1642 -147 1660 -181 q 1677 -216 1677 -274 l 1677 -274 q 1677 -314 1668 -349 q 1659 -384 1640 -420 q 1620 -457 1589 -500 l 1589 -500 l 1728 -581 q 1773 -530 1804 -482 q 1835 -435 1851 -384 q 1867 -333 1867 -270 l 1867 -270 q 1867 -189 1833 -125 q 1799 -62 1735 -25 q 1671 12 1580 12 l 1580 12 q 1513 12 1467 -6 q 1420 -24 1375 -63 l 1375 -63 l 1391 -68 q 1364 -40 1333 -22 q 1302 -5 1266 4 q 1229 12 1183 12 l 1183 12 q 1131 12 1087 -1 q 1043 -15 1008 -43 l 1008 -43 q 980 -66 963 -98 q 946 -130 938 -169 q 930 -209 930 -256 l 930 -256 l 930 -260 q 930 -298 925 -329 q 919 -361 908 -385 q 896 -409 877 -424 l 877 -424 q 859 -440 833 -448 q 806 -457 772 -457 l 772 -457 q 747 -457 724 -454 q 701 -451 680 -444 l 680 -444 l 648 -434 q 610 -417 581 -386 q 552 -356 536 -316 q 520 -276 520 -230 l 520 -230 q 520 -187 530 -162 q 540 -137 556 -126 q 571 -116 589 -116 l 589 -116 q 608 -116 624 -126 q 639 -136 649 -161 q 659 -186 659 -230 l 659 -230 q 659 -278 644 -318 q 628 -358 601 -388 q 573 -419 537 -435 l 537 -435 l 507 -445 q 488 -451 468 -454 q 448 -457 427 -457 l 427 -457 q 353 -457 309 -434 q 264 -412 244 -372 q 224 -333 224 -281 l 224 -281 q 224 -241 235 -206 q 245 -172 266 -138 q 287 -105 317 -68 l 317 -68 l 181 12 q 138 -27 105 -70 q 72 -114 54 -166 q 35 -219 35 -284 l 35 -284 q 35 -334 54 -386 q 72 -438 115 -482 q 158 -527 231 -554 q 303 -581 412 -581 l 412 -581 q 480 -581 537 -569 q 593 -558 646 -532 l 646 -532 l 680 -498 q 757 -456 802 -393 q 846 -330 846 -226 l 846 -226 q 846 -145 817 -92 q 787 -39 730 -13 q 673 12 590 12 l 590 12 q 508 12 451 -15 q 393 -43 363 -97 q 333 -151 333 -229 l 333 -229 q 333 -292 354 -341 q 375 -391 415 -429 q 454 -468 507 -497 l 507 -497 l 540 -528 q 596 -555 652 -568 q 708 -581 783 -581 z"},"ഞ":{"ha":1701,"x_min":33,"x_max":1666,"o":"m 422 -581 l 422 -581 q 516 -581 582 -558 q 648 -535 704 -480 l 704 -480 l 731 -397 l 761 -239 l 761 0 l 574 0 l 574 -273 q 574 -338 564 -371 q 554 -404 529 -424 l 529 -424 q 511 -438 484 -445 q 456 -453 418 -453 l 418 -453 q 360 -453 311 -429 q 261 -405 232 -358 q 202 -312 202 -244 l 202 -244 l 202 -240 q 202 -188 212 -159 q 222 -130 238 -119 q 254 -108 273 -108 l 273 -108 q 290 -108 302 -114 q 313 -121 319 -135 q 325 -150 325 -173 l 325 -173 q 325 -205 310 -222 q 294 -240 267 -240 l 267 -240 q 233 -240 207 -220 q 180 -200 139 -156 l 139 -156 l 118 -276 q 158 -310 205 -334 q 252 -359 316 -359 l 316 -359 q 380 -359 422 -336 q 464 -313 485 -273 q 506 -233 506 -180 l 506 -180 q 506 -121 481 -77 q 456 -34 406 -11 q 355 12 278 12 l 278 12 q 209 12 154 -14 q 98 -41 66 -97 q 33 -154 33 -244 l 33 -244 q 33 -352 85 -427 q 136 -503 224 -542 q 312 -581 422 -581 z m 933 -581 l 933 -581 q 1001 -581 1056 -569 q 1110 -558 1163 -532 l 1163 -532 l 1194 -498 q 1271 -456 1316 -393 q 1360 -330 1360 -226 l 1360 -226 q 1360 -145 1331 -92 q 1302 -39 1245 -13 q 1188 12 1104 12 l 1104 12 q 1022 12 965 -15 q 907 -43 877 -97 q 847 -151 847 -229 l 847 -229 q 847 -292 869 -341 q 890 -391 930 -430 q 970 -469 1023 -498 l 1023 -498 l 1056 -528 q 1112 -555 1173 -568 q 1234 -581 1303 -581 l 1303 -581 q 1408 -581 1478 -555 q 1548 -529 1590 -486 q 1631 -443 1649 -390 q 1666 -337 1666 -284 l 1666 -284 q 1666 -219 1648 -166 q 1629 -114 1596 -70 q 1563 -27 1519 12 l 1519 12 l 1384 -68 q 1414 -103 1435 -136 q 1455 -170 1466 -205 q 1477 -241 1477 -281 l 1477 -281 q 1477 -336 1457 -375 q 1437 -415 1397 -436 q 1356 -457 1292 -457 l 1292 -457 q 1264 -457 1241 -454 q 1217 -451 1196 -444 l 1196 -444 l 1164 -434 q 1126 -417 1097 -386 q 1067 -356 1051 -316 q 1034 -276 1034 -230 l 1034 -230 q 1034 -187 1044 -162 q 1054 -137 1070 -126 q 1085 -116 1103 -116 l 1103 -116 q 1122 -116 1138 -126 q 1153 -136 1163 -161 q 1173 -186 1173 -230 l 1173 -230 q 1173 -278 1158 -318 q 1142 -358 1115 -388 q 1087 -419 1051 -435 l 1051 -435 l 1021 -445 q 1008 -450 989 -452 q 969 -455 952 -456 q 935 -457 926 -457 l 926 -457 q 883 -457 856 -448 q 829 -440 811 -425 l 811 -425 q 784 -403 773 -364 q 761 -325 761 -254 l 761 -254 l 761 -20 l 594 -20 l 594 -232 l 632 -466 q 662 -497 700 -523 q 738 -549 794 -565 q 850 -581 933 -581 z"},"ട":{"ha":651,"x_min":14,"x_max":630,"o":"m 314 -581 l 314 -581 q 419 -581 499 -558 q 579 -536 630 -509 l 630 -509 l 557 -396 q 499 -422 446 -437 q 393 -452 325 -452 l 325 -452 q 286 -452 263 -445 q 240 -438 230 -426 q 220 -415 220 -399 l 220 -399 q 220 -388 225 -379 q 230 -371 237 -366 l 237 -366 q 248 -359 271 -356 q 293 -353 329 -353 l 329 -353 l 348 -353 q 434 -353 483 -340 q 532 -328 566 -301 l 566 -301 q 593 -279 608 -247 q 622 -216 622 -172 l 622 -172 q 622 -118 592 -76 q 561 -35 497 -11 q 433 12 331 12 l 331 12 q 235 12 157 -7 q 79 -26 14 -59 l 14 -59 l 85 -177 q 130 -154 167 -141 q 204 -128 239 -122 q 274 -117 314 -117 l 314 -117 q 358 -117 383 -124 q 408 -131 419 -144 q 430 -158 430 -175 l 430 -175 q 430 -185 427 -192 q 423 -200 418 -205 l 418 -205 q 406 -216 386 -219 q 366 -223 327 -223 l 327 -223 l 304 -223 q 227 -223 173 -233 q 118 -244 80 -275 l 80 -275 q 55 -295 42 -325 q 28 -355 28 -398 l 28 -398 q 28 -451 59 -492 q 90 -533 154 -557 q 217 -581 314 -581 z"},"ഠ":{"ha":750,"x_min":35,"x_max":715,"o":"m 373 -581 l 373 -581 q 483 -581 560 -544 q 636 -507 676 -440 q 715 -373 715 -284 l 715 -284 q 715 -195 675 -128 q 635 -62 560 -25 q 484 12 375 12 l 375 12 q 258 12 183 -28 q 107 -69 71 -137 q 35 -205 35 -287 l 35 -287 q 35 -376 75 -442 q 115 -508 191 -544 q 266 -581 373 -581 z m 375 -118 l 375 -118 q 426 -118 460 -139 q 493 -160 510 -198 q 526 -236 526 -286 l 526 -286 q 526 -336 510 -373 q 493 -410 460 -430 q 426 -451 375 -451 l 375 -451 q 303 -451 264 -408 q 224 -365 224 -286 l 224 -286 q 224 -209 263 -163 q 302 -118 375 -118 z"},"ഡ":{"ha":1395,"x_min":35,"x_max":1360,"o":"m 674 12 l 674 12 q 621 12 577 -1 q 532 -15 497 -43 l 497 -43 q 469 -66 451 -97 q 433 -129 425 -170 q 417 -212 417 -266 l 417 -266 l 417 -305 q 417 -350 412 -382 q 406 -414 387 -432 l 387 -432 q 377 -442 363 -447 q 349 -452 329 -452 l 329 -452 q 302 -452 278 -438 q 254 -424 240 -390 q 225 -356 225 -296 l 225 -296 q 225 -256 234 -220 q 243 -185 263 -148 q 282 -112 313 -69 l 313 -69 l 174 12 q 130 -39 99 -86 q 67 -134 51 -185 q 35 -237 35 -300 l 35 -300 q 35 -383 70 -446 q 104 -510 169 -545 q 234 -581 325 -581 l 325 -581 q 396 -581 445 -567 q 493 -553 527 -525 l 527 -525 q 555 -503 573 -470 q 591 -438 600 -394 q 608 -350 608 -291 l 608 -291 l 608 -276 q 608 -220 614 -188 q 619 -156 638 -138 l 638 -138 q 648 -129 662 -123 q 675 -117 696 -117 l 696 -117 q 717 -117 732 -122 q 746 -128 758 -140 l 758 -140 q 774 -156 779 -183 q 783 -210 783 -256 l 783 -256 l 783 -569 l 970 -569 l 970 -241 q 970 -202 976 -179 q 982 -156 995 -141 l 995 -141 q 1004 -131 1018 -124 q 1032 -117 1052 -117 l 1052 -117 q 1081 -117 1108 -132 q 1135 -147 1153 -181 q 1170 -216 1170 -274 l 1170 -274 q 1170 -314 1161 -349 q 1152 -384 1133 -420 q 1113 -457 1082 -500 l 1082 -500 l 1221 -581 q 1266 -530 1297 -482 q 1328 -435 1344 -384 q 1360 -333 1360 -270 l 1360 -270 q 1360 -189 1326 -125 q 1292 -62 1228 -25 q 1164 12 1073 12 l 1073 12 q 1006 12 960 -6 q 913 -24 868 -63 l 868 -63 l 884 -68 q 842 -26 793 -7 q 744 12 674 12 z"},"ഢ":{"ha":1544,"x_min":35,"x_max":1511,"o":"m 674 12 l 674 12 q 621 12 577 -1 q 532 -15 497 -43 l 497 -43 q 469 -66 451 -97 q 433 -129 425 -170 q 417 -212 417 -266 l 417 -266 l 417 -305 q 417 -350 412 -382 q 406 -414 387 -432 l 387 -432 q 377 -442 363 -447 q 349 -452 329 -452 l 329 -452 q 302 -452 278 -438 q 254 -424 240 -390 q 225 -356 225 -296 l 225 -296 q 225 -256 234 -220 q 243 -185 263 -148 q 282 -112 313 -69 l 313 -69 l 174 12 q 130 -39 99 -86 q 67 -134 51 -185 q 35 -237 35 -300 l 35 -300 q 35 -383 70 -446 q 104 -510 169 -545 q 234 -581 325 -581 l 325 -581 q 396 -581 445 -567 q 493 -553 527 -525 l 527 -525 q 555 -503 573 -470 q 591 -438 600 -394 q 608 -350 608 -291 l 608 -291 l 608 -276 q 608 -220 614 -188 q 619 -156 638 -138 l 638 -138 q 648 -129 662 -123 q 675 -117 696 -117 l 696 -117 q 717 -117 732 -122 q 746 -128 758 -140 l 758 -140 q 774 -156 779 -183 q 783 -210 783 -256 l 783 -256 l 783 -569 l 970 -569 l 970 -241 l 884 -68 q 842 -26 793 -7 q 744 12 674 12 z m 1266 -581 l 1266 -581 q 1336 -581 1391 -554 q 1446 -528 1479 -472 q 1511 -416 1511 -325 l 1511 -325 q 1511 -217 1460 -142 q 1408 -67 1320 -27 q 1232 12 1122 12 l 1122 12 q 1028 12 962 -11 q 896 -34 840 -89 l 840 -89 l 793 -330 l 793 -549 l 970 -549 l 970 -296 q 970 -232 980 -198 q 990 -165 1015 -145 l 1015 -145 q 1033 -131 1061 -123 q 1088 -116 1126 -116 l 1126 -116 q 1185 -116 1234 -140 q 1283 -164 1313 -210 q 1342 -257 1342 -325 l 1342 -325 l 1342 -329 q 1342 -382 1332 -410 q 1322 -439 1306 -450 q 1290 -461 1271 -461 l 1271 -461 q 1255 -461 1243 -454 q 1231 -448 1225 -433 q 1219 -419 1219 -396 l 1219 -396 q 1219 -364 1235 -346 q 1250 -329 1277 -329 l 1277 -329 q 1311 -329 1338 -349 q 1365 -369 1405 -413 l 1405 -413 l 1426 -293 q 1386 -259 1340 -234 q 1293 -210 1228 -210 l 1228 -210 q 1164 -210 1122 -233 q 1080 -256 1059 -296 q 1038 -337 1038 -389 l 1038 -389 q 1038 -449 1063 -492 q 1088 -535 1139 -558 q 1189 -581 1266 -581 z"},"ണ":{"ha":1556,"x_min":33,"x_max":1521,"o":"m 422 -581 l 422 -581 q 516 -581 582 -558 q 648 -535 704 -480 l 704 -480 l 655 -502 q 691 -540 737 -560 q 783 -581 852 -581 l 852 -581 q 911 -581 956 -563 q 1001 -546 1045 -499 l 1045 -499 l 1029 -506 q 1074 -545 1121 -563 q 1167 -581 1234 -581 l 1234 -581 q 1325 -581 1389 -544 q 1453 -507 1487 -443 q 1521 -380 1521 -299 l 1521 -299 q 1521 -236 1505 -185 q 1489 -134 1458 -86 q 1427 -39 1382 12 l 1382 12 l 1243 -69 q 1274 -112 1294 -148 q 1313 -185 1322 -220 q 1331 -256 1331 -295 l 1331 -295 q 1331 -353 1314 -387 q 1296 -422 1269 -437 q 1242 -452 1213 -452 l 1213 -452 q 1193 -452 1179 -445 q 1165 -439 1156 -428 l 1156 -428 q 1143 -413 1137 -390 q 1131 -367 1131 -328 l 1131 -328 l 1131 0 l 944 0 l 944 -313 q 944 -358 938 -385 q 931 -413 916 -429 l 916 -429 q 906 -440 890 -446 q 874 -452 852 -452 l 852 -452 q 831 -452 816 -445 q 800 -439 789 -427 l 789 -427 q 774 -411 768 -382 q 761 -353 761 -305 l 761 -305 l 761 0 l 574 0 l 574 -273 q 574 -338 564 -371 q 554 -404 529 -424 l 529 -424 q 511 -438 484 -445 q 456 -453 418 -453 l 418 -453 q 360 -453 311 -429 q 261 -405 232 -358 q 202 -312 202 -244 l 202 -244 l 202 -240 q 202 -188 212 -159 q 222 -130 238 -119 q 254 -108 273 -108 l 273 -108 q 290 -108 302 -114 q 313 -121 319 -135 q 325 -150 325 -173 l 325 -173 q 325 -205 310 -222 q 294 -240 267 -240 l 267 -240 q 233 -240 207 -220 q 180 -200 139 -156 l 139 -156 l 118 -276 q 158 -310 205 -334 q 252 -359 316 -359 l 316 -359 q 380 -359 422 -336 q 464 -313 485 -272 q 506 -232 506 -179 l 506 -179 q 506 -120 481 -77 q 456 -34 406 -11 q 355 12 278 12 l 278 12 q 209 12 154 -14 q 98 -41 66 -97 q 33 -154 33 -245 l 33 -245 q 33 -353 85 -428 q 136 -503 224 -542 q 312 -581 422 -581 z"},"ത":{"ha":1187,"x_min":35,"x_max":1152,"o":"m 590 12 l 590 12 q 508 12 451 -15 q 393 -43 363 -97 q 333 -151 333 -229 l 333 -229 q 333 -292 355 -341 q 376 -391 416 -430 q 456 -469 509 -498 l 509 -498 l 542 -528 q 598 -555 659 -568 q 720 -581 789 -581 l 789 -581 q 894 -581 964 -555 q 1034 -529 1076 -486 q 1117 -443 1135 -390 q 1152 -337 1152 -284 l 1152 -284 q 1152 -219 1134 -166 q 1115 -114 1082 -70 q 1049 -27 1005 12 l 1005 12 l 870 -68 q 900 -103 921 -136 q 941 -170 952 -205 q 963 -241 963 -281 l 963 -281 q 963 -336 943 -375 q 923 -415 883 -436 q 842 -457 778 -457 l 778 -457 q 750 -457 727 -454 q 703 -451 682 -444 l 682 -444 l 650 -434 q 612 -417 583 -386 q 553 -356 537 -316 q 520 -276 520 -230 l 520 -230 q 520 -187 530 -162 q 540 -137 556 -126 q 571 -116 589 -116 l 589 -116 q 608 -116 624 -126 q 639 -136 649 -161 q 659 -186 659 -230 l 659 -230 q 659 -278 644 -318 q 628 -358 601 -388 q 573 -419 537 -435 l 537 -435 l 507 -445 q 488 -451 468 -454 q 448 -457 427 -457 l 427 -457 q 353 -457 309 -434 q 264 -412 244 -372 q 224 -333 224 -281 l 224 -281 q 224 -241 235 -206 q 245 -172 266 -138 q 287 -105 317 -68 l 317 -68 l 181 12 q 138 -27 105 -70 q 72 -114 54 -166 q 35 -219 35 -284 l 35 -284 q 35 -334 54 -386 q 72 -438 115 -482 q 158 -527 231 -554 q 303 -581 412 -581 l 412 -581 q 480 -581 537 -569 q 593 -558 646 -532 l 646 -532 l 680 -498 q 757 -456 802 -393 q 846 -330 846 -226 l 846 -226 q 846 -145 817 -92 q 788 -39 731 -13 q 674 12 590 12 z"},"ഥ":{"ha":1011,"x_min":55,"x_max":959,"o":"m 55 -569 l 241 -569 l 241 -128 l 422 -128 l 422 0 l 55 0 l 55 -569 z m 660 -581 l 660 -581 q 730 -581 787 -562 q 844 -544 884 -506 l 884 -506 q 923 -469 941 -419 q 959 -370 959 -292 l 959 -292 l 959 0 l 361 0 l 361 -292 q 361 -345 370 -384 q 378 -424 396 -454 q 414 -485 440 -509 l 440 -509 q 481 -546 537 -563 q 593 -581 660 -581 z m 663 -451 l 663 -451 q 635 -451 615 -443 q 594 -436 579 -419 l 579 -419 q 562 -400 555 -369 q 547 -338 547 -287 l 547 -287 l 547 -128 l 773 -128 l 773 -285 q 773 -337 767 -369 q 760 -401 743 -420 l 743 -420 q 730 -436 712 -443 q 694 -451 663 -451 z"},"ദ":{"ha":751,"x_min":39,"x_max":720,"o":"m 442 -581 l 442 -581 q 539 -581 598 -559 q 656 -537 683 -500 q 709 -464 709 -420 l 709 -420 q 709 -374 690 -340 q 671 -307 621 -282 l 621 -282 l 620 -287 q 673 -268 697 -230 q 720 -193 720 -148 l 720 -148 q 720 -70 662 -29 q 604 12 491 12 l 491 12 q 452 12 417 8 q 382 3 353 -2 l 353 -2 l 376 -126 q 400 -121 420 -118 q 439 -116 461 -116 l 461 -116 q 499 -116 517 -127 q 534 -138 534 -164 l 534 -164 q 534 -178 528 -187 q 522 -197 511 -204 l 511 -204 q 498 -212 480 -214 q 461 -217 429 -217 l 429 -217 l 378 -217 l 378 -343 l 426 -343 q 458 -343 477 -347 q 495 -351 507 -361 l 507 -361 q 515 -367 519 -375 q 523 -384 523 -396 l 523 -396 q 523 -422 502 -437 q 480 -453 436 -453 l 436 -453 q 370 -453 324 -423 q 277 -394 253 -340 q 229 -286 229 -212 l 229 -212 q 229 -166 236 -118 q 243 -71 256 -29 l 256 -29 l 80 4 q 61 -46 50 -108 q 39 -170 39 -224 l 39 -224 q 39 -333 84 -413 q 128 -493 218 -537 q 307 -581 442 -581 z"},"ധ":{"ha":1044,"x_min":35,"x_max":1009,"o":"m 715 12 l 715 12 q 672 12 638 5 q 604 -3 575 -18 q 545 -34 515 -59 l 515 -59 l 531 -63 q 486 -24 439 -6 q 392 12 324 12 l 324 12 q 233 12 168 -25 q 103 -62 69 -125 q 35 -189 35 -270 l 35 -270 q 35 -333 51 -384 q 67 -435 99 -482 q 130 -530 174 -581 l 174 -581 l 313 -500 q 282 -457 263 -420 q 243 -384 234 -349 q 225 -314 225 -274 l 225 -274 q 225 -216 243 -181 q 260 -147 288 -132 q 316 -117 345 -117 l 345 -117 q 366 -117 381 -124 q 395 -131 404 -141 l 404 -141 q 418 -156 424 -179 q 429 -202 429 -242 l 429 -242 l 429 -569 l 616 -569 l 616 -249 q 616 -212 621 -185 q 625 -158 639 -142 l 639 -142 q 648 -132 663 -124 q 677 -117 700 -117 l 700 -117 q 729 -117 756 -132 q 783 -148 801 -182 q 819 -216 819 -271 l 819 -271 q 819 -311 810 -346 q 801 -382 782 -419 q 762 -456 730 -500 l 730 -500 l 871 -581 q 918 -530 949 -482 q 979 -435 994 -384 q 1009 -334 1009 -272 l 1009 -272 q 1009 -193 976 -128 q 942 -64 877 -26 q 811 12 715 12 z"},"ന":{"ha":1044,"x_min":35,"x_max":1009,"o":"m 329 -581 l 329 -581 q 372 -581 406 -573 q 440 -566 470 -550 q 499 -535 529 -510 l 529 -510 l 513 -506 q 558 -545 605 -563 q 652 -581 720 -581 l 720 -581 q 812 -581 877 -544 q 941 -507 975 -443 q 1009 -380 1009 -299 l 1009 -299 q 1009 -236 993 -185 q 977 -134 946 -86 q 915 -39 870 12 l 870 12 l 731 -69 q 762 -112 782 -148 q 801 -185 810 -220 q 819 -256 819 -295 l 819 -295 q 819 -353 802 -387 q 784 -422 757 -437 q 729 -452 699 -452 l 699 -452 q 678 -452 664 -445 q 649 -439 640 -428 l 640 -428 q 627 -413 621 -390 q 615 -367 615 -327 l 615 -327 l 615 0 l 428 0 l 428 -320 q 428 -358 424 -384 q 419 -411 405 -427 l 405 -427 q 396 -437 382 -444 q 367 -452 344 -452 l 344 -452 q 316 -452 289 -436 q 261 -421 243 -387 q 225 -354 225 -298 l 225 -298 q 225 -258 234 -222 q 243 -187 263 -150 q 282 -114 314 -69 l 314 -69 l 173 12 q 126 -39 96 -86 q 65 -134 50 -185 q 35 -236 35 -297 l 35 -297 q 35 -377 69 -441 q 102 -505 168 -543 q 233 -581 329 -581 z"},"ഩ":{"ha":1190,"x_min":33,"x_max":1155,"o":"m 422 -581 l 422 -581 q 516 -581 582 -558 q 648 -535 704 -480 l 704 -480 l 654 -505 q 700 -546 749 -563 q 798 -581 866 -581 l 866 -581 q 958 -581 1023 -544 q 1087 -507 1121 -443 q 1155 -380 1155 -299 l 1155 -299 q 1155 -236 1139 -185 q 1123 -134 1092 -86 q 1061 -39 1016 12 l 1016 12 l 877 -69 q 908 -112 928 -148 q 947 -185 956 -220 q 965 -256 965 -295 l 965 -295 q 965 -353 948 -387 q 930 -422 903 -437 q 875 -452 845 -452 l 845 -452 q 824 -452 810 -445 q 795 -439 786 -428 l 786 -428 q 773 -413 767 -390 q 761 -367 761 -327 l 761 -327 l 761 0 l 574 0 l 574 -273 q 574 -338 564 -371 q 554 -404 529 -424 l 529 -424 q 511 -438 484 -445 q 456 -453 418 -453 l 418 -453 q 360 -453 311 -429 q 261 -405 232 -358 q 202 -312 202 -244 l 202 -244 l 202 -240 q 202 -188 212 -159 q 222 -130 238 -119 q 254 -108 273 -108 l 273 -108 q 290 -108 302 -114 q 313 -121 319 -135 q 325 -150 325 -173 l 325 -173 q 325 -205 310 -222 q 294 -240 267 -240 l 267 -240 q 233 -240 207 -220 q 180 -200 139 -156 l 139 -156 l 118 -276 q 158 -310 205 -334 q 252 -359 316 -359 l 316 -359 q 380 -359 422 -336 q 464 -313 485 -273 q 506 -233 506 -180 l 506 -180 q 506 -121 481 -77 q 456 -34 406 -11 q 355 12 278 12 l 278 12 q 209 12 154 -14 q 98 -41 66 -97 q 33 -154 33 -244 l 33 -244 q 33 -352 85 -427 q 136 -503 224 -542 q 312 -581 422 -581 z"},"പ":{"ha":1015,"x_min":27,"x_max":960,"o":"m 285 -372 l 285 -372 q 375 -372 431 -342 q 486 -312 512 -266 q 538 -221 538 -173 l 538 -173 q 538 -151 533 -124 q 528 -98 518 -76 l 518 -76 l 521 -128 l 773 -128 l 773 -569 l 960 -569 l 960 0 l 392 0 l 329 -70 q 340 -87 350 -110 q 360 -133 360 -163 l 360 -163 q 360 -195 343 -220 q 326 -245 287 -245 l 287 -245 q 262 -245 245 -234 q 228 -223 220 -204 q 212 -185 212 -160 l 212 -160 q 212 -129 223 -101 q 234 -74 252 -45 l 252 -45 l 108 13 q 72 -25 50 -70 q 27 -115 27 -170 l 27 -170 q 27 -233 60 -278 q 93 -324 151 -348 q 209 -372 285 -372 z"},"ഫ":{"ha":1285,"x_min":27,"x_max":1233,"o":"m 285 -372 l 285 -372 q 375 -372 431 -342 q 486 -312 512 -266 q 538 -221 538 -173 l 538 -173 q 538 -151 533 -124 q 528 -98 518 -76 l 518 -76 l 521 -128 l 773 -128 l 774 0 l 392 0 l 329 -70 q 340 -87 350 -110 q 360 -133 360 -163 l 360 -163 q 360 -195 343 -220 q 326 -245 287 -245 l 287 -245 q 262 -245 245 -234 q 228 -223 220 -204 q 212 -185 212 -160 l 212 -160 q 212 -129 223 -101 q 234 -74 252 -45 l 252 -45 l 108 13 q 72 -25 50 -70 q 27 -115 27 -170 l 27 -170 q 27 -233 60 -278 q 93 -324 151 -348 q 209 -372 285 -372 z m 934 -581 l 934 -581 q 1004 -581 1061 -562 q 1118 -544 1158 -506 l 1158 -506 q 1197 -469 1215 -419 q 1233 -370 1233 -292 l 1233 -292 l 1233 0 l 635 0 l 635 -292 q 635 -345 644 -384 q 652 -424 670 -454 q 688 -485 714 -509 l 714 -509 q 755 -546 811 -563 q 867 -581 934 -581 z m 937 -451 l 937 -451 q 909 -451 889 -443 q 868 -436 853 -419 l 853 -419 q 836 -400 829 -369 q 821 -338 821 -287 l 821 -287 l 821 -128 l 1047 -128 l 1047 -285 q 1047 -337 1041 -369 q 1034 -401 1017 -420 l 1017 -420 q 1004 -436 986 -443 q 968 -451 937 -451 z"},"ബ":{"ha":1520,"x_min":33,"x_max":1465,"o":"m 422 -581 l 422 -581 q 516 -581 582 -558 q 648 -535 704 -480 l 704 -480 l 737 -404 l 761 -317 l 761 0 l 574 0 l 574 -273 q 574 -338 564 -371 q 554 -404 529 -424 l 529 -424 q 511 -438 484 -445 q 456 -453 418 -453 l 418 -453 q 360 -453 311 -429 q 261 -405 232 -358 q 202 -312 202 -244 l 202 -244 l 202 -240 q 202 -188 212 -159 q 222 -130 238 -119 q 254 -108 273 -108 l 273 -108 q 290 -108 302 -114 q 313 -121 319 -135 q 325 -150 325 -173 l 325 -173 q 325 -205 310 -222 q 294 -240 267 -240 l 267 -240 q 233 -240 207 -220 q 180 -200 139 -156 l 139 -156 l 118 -276 q 158 -310 205 -334 q 252 -359 316 -359 l 316 -359 q 380 -359 422 -336 q 464 -313 485 -273 q 506 -233 506 -180 l 506 -180 q 506 -121 481 -77 q 456 -34 406 -11 q 355 12 278 12 l 278 12 q 209 12 154 -14 q 98 -41 66 -97 q 33 -154 33 -244 l 33 -244 q 33 -352 85 -427 q 136 -503 224 -542 q 312 -581 422 -581 z m 1278 -569 l 1465 -569 l 1465 0 l 928 0 l 880 -65 q 910 -111 929 -148 q 947 -186 956 -221 q 965 -256 965 -295 l 965 -295 q 965 -353 948 -387 q 930 -422 903 -437 q 875 -452 845 -452 l 845 -452 q 824 -452 810 -445 q 795 -439 786 -428 l 786 -428 q 773 -413 767 -390 q 761 -367 761 -327 l 761 -327 l 761 -10 l 595 -10 l 595 -232 l 637 -424 l 654 -505 q 700 -546 749 -563 q 798 -581 866 -581 l 866 -581 q 958 -581 1023 -544 q 1087 -507 1121 -443 q 1155 -379 1155 -299 l 1155 -299 q 1155 -261 1149 -228 q 1143 -196 1129 -165 q 1115 -135 1091 -104 l 1091 -104 l 1053 -128 l 1278 -128 l 1278 -569 z"},"ഭ":{"ha":785,"x_min":39,"x_max":756,"o":"m 469 -581 l 469 -581 q 560 -581 624 -563 q 688 -545 722 -509 q 756 -474 756 -420 l 756 -420 q 756 -387 746 -364 q 736 -341 718 -327 l 718 -327 q 693 -308 659 -302 q 625 -297 573 -297 l 573 -297 l 531 -297 q 512 -297 503 -295 q 494 -294 489 -291 l 489 -291 q 485 -289 483 -285 q 480 -282 480 -276 l 480 -276 q 480 -263 495 -259 q 509 -256 532 -256 l 532 -256 l 563 -256 q 612 -256 647 -250 q 681 -244 708 -225 l 708 -225 q 729 -211 742 -187 q 755 -164 755 -129 l 755 -129 q 755 -90 733 -58 q 710 -26 660 -7 q 610 12 528 12 l 528 12 q 477 12 439 9 q 401 5 369 -2 q 336 -10 300 -22 l 300 -22 l 354 -135 q 396 -121 431 -115 q 466 -110 510 -110 l 510 -110 q 553 -110 569 -114 q 585 -119 585 -131 l 585 -131 q 585 -141 577 -145 q 568 -149 551 -149 l 551 -149 l 527 -149 q 450 -149 409 -158 q 367 -168 341 -193 l 341 -193 q 326 -208 318 -228 q 310 -248 310 -275 l 310 -275 q 310 -306 322 -328 q 334 -350 353 -365 l 353 -365 q 383 -388 425 -396 q 466 -404 521 -404 l 521 -404 l 546 -404 q 570 -404 577 -410 q 583 -417 583 -424 l 583 -424 q 583 -441 553 -448 q 523 -455 472 -455 l 472 -455 q 389 -455 335 -426 q 281 -398 255 -344 q 229 -290 229 -212 l 229 -212 q 229 -166 236 -118 q 243 -71 256 -29 l 256 -29 l 80 4 q 61 -46 50 -108 q 39 -170 39 -224 l 39 -224 q 39 -335 84 -415 q 129 -495 224 -538 q 319 -581 469 -581 z"},"മ":{"ha":855,"x_min":51,"x_max":804,"o":"m 415 -581 l 415 -581 q 507 -581 579 -563 q 651 -545 700 -507 l 700 -507 q 734 -481 757 -447 q 780 -414 792 -366 q 804 -318 804 -245 l 804 -245 l 804 0 l 51 0 l 51 -242 q 51 -313 64 -363 q 76 -413 100 -448 q 124 -484 158 -510 l 158 -510 q 205 -546 270 -563 q 335 -581 415 -581 z m 333 -448 l 333 -448 q 311 -448 295 -438 q 279 -428 267 -410 l 267 -410 q 252 -387 245 -350 q 237 -314 237 -246 l 237 -246 l 237 -68 l 179 -68 q 234 -117 279 -168 q 324 -219 352 -273 q 379 -328 379 -387 l 379 -387 q 379 -404 375 -418 q 370 -432 360 -440 q 350 -448 333 -448 z m 563 -363 l 563 -363 q 563 -317 547 -275 q 531 -234 503 -195 q 475 -157 438 -120 l 438 -120 l 421 -122 q 443 -126 466 -126 q 489 -127 514 -127 l 514 -127 l 618 -127 l 618 -240 q 618 -306 608 -348 q 598 -391 576 -417 q 554 -443 518 -459 l 518 -459 l 519 -470 q 540 -450 552 -425 q 563 -400 563 -363 z"},"യ":{"ha":1193,"x_min":30,"x_max":1156,"o":"m 758 12 l 758 12 q 706 12 654 2 q 602 -8 555 -28 l 555 -28 q 545 -33 535 -40 q 524 -47 513 -52 l 513 -52 q 462 -81 422 -121 q 382 -162 359 -216 q 336 -270 336 -338 l 336 -338 q 336 -379 348 -414 q 360 -449 379 -477 l 379 -477 l 397 -499 q 418 -527 448 -545 q 478 -563 517 -572 q 555 -581 599 -581 l 599 -581 q 723 -581 793 -517 q 863 -454 863 -334 l 863 -334 q 863 -237 815 -168 q 767 -100 692 -58 l 692 -58 q 683 -53 674 -46 q 665 -40 655 -35 l 655 -35 q 603 -12 546 0 q 489 12 432 12 l 432 12 q 331 12 256 -13 q 180 -38 130 -84 q 80 -130 55 -193 q 30 -257 30 -334 l 30 -334 q 30 -404 61 -459 q 92 -515 153 -548 q 214 -581 304 -581 l 304 -581 q 376 -581 435 -553 q 493 -526 531 -459 l 531 -459 l 391 -396 q 370 -428 350 -440 q 330 -453 304 -453 l 304 -453 q 279 -453 259 -439 q 239 -425 228 -399 q 217 -373 217 -335 l 217 -335 q 217 -272 243 -221 q 268 -171 318 -141 q 367 -111 438 -111 l 438 -111 q 461 -111 483 -114 q 504 -117 523 -123 l 523 -123 q 532 -126 543 -127 q 554 -129 562 -133 l 562 -133 q 596 -150 622 -180 q 647 -211 662 -251 q 676 -291 676 -338 l 676 -338 q 676 -379 666 -404 q 655 -430 638 -441 q 620 -453 600 -453 l 600 -453 q 579 -453 562 -441 q 544 -430 534 -404 q 523 -379 523 -336 l 523 -336 q 523 -292 537 -252 q 551 -212 577 -181 q 602 -150 636 -131 l 636 -131 q 647 -126 659 -125 q 670 -124 683 -121 l 683 -121 q 700 -117 719 -114 q 738 -111 758 -111 l 758 -111 q 820 -111 867 -135 q 913 -159 939 -206 q 965 -253 965 -322 l 965 -322 q 965 -360 954 -403 q 943 -447 908 -499 l 908 -499 l 1055 -579 q 1108 -514 1132 -449 q 1156 -385 1156 -317 l 1156 -317 q 1156 -258 1138 -200 q 1119 -142 1075 -94 q 1030 -46 953 -17 q 876 12 758 12 z"},"ര":{"ha":860,"x_min":35,"x_max":829,"o":"m 417 -581 l 417 -581 q 523 -581 601 -553 q 679 -525 730 -477 q 780 -429 805 -367 q 829 -305 829 -237 l 829 -237 q 829 -157 799 -101 q 769 -46 711 -17 q 652 12 567 12 l 567 12 q 482 12 429 -18 q 376 -48 352 -97 q 327 -147 327 -205 l 327 -205 q 327 -300 382 -355 q 436 -410 535 -410 l 535 -410 q 598 -410 645 -379 q 691 -349 719 -302 q 746 -255 750 -205 l 750 -205 l 677 -203 q 672 -227 660 -248 q 647 -269 628 -282 q 608 -295 581 -295 l 581 -295 q 545 -295 526 -272 q 507 -250 507 -205 l 507 -205 q 507 -174 515 -154 q 523 -135 538 -125 q 552 -116 570 -116 l 570 -116 q 595 -116 612 -129 q 629 -142 638 -170 q 646 -198 646 -242 l 646 -242 q 646 -257 645 -273 q 643 -290 641 -305 l 641 -305 q 640 -309 642 -317 q 644 -325 642 -329 l 642 -329 q 637 -363 611 -390 q 584 -418 539 -434 q 494 -451 431 -451 l 431 -451 q 364 -451 319 -431 q 273 -411 250 -373 q 227 -335 227 -281 l 227 -281 q 227 -241 238 -206 q 249 -171 270 -137 q 290 -104 320 -69 l 320 -69 l 181 12 q 138 -27 105 -70 q 72 -114 54 -166 q 35 -219 35 -284 l 35 -284 q 35 -337 55 -390 q 75 -443 120 -486 q 165 -529 238 -555 q 311 -581 417 -581 z"},"റ":{"ha":779,"x_min":35,"x_max":744,"o":"m 389 -581 l 389 -581 q 488 -581 557 -555 q 625 -529 666 -486 q 707 -443 726 -390 q 744 -337 744 -284 l 744 -284 q 744 -219 726 -166 q 707 -114 674 -70 q 641 -27 597 12 l 597 12 l 459 -69 q 489 -104 510 -137 q 530 -171 541 -206 q 552 -241 552 -281 l 552 -281 q 552 -334 533 -372 q 513 -410 477 -430 q 441 -451 390 -451 l 390 -451 q 343 -451 306 -431 q 269 -412 248 -374 q 227 -337 227 -281 l 227 -281 q 227 -241 238 -206 q 249 -171 270 -137 q 290 -104 320 -69 l 320 -69 l 181 12 q 138 -27 105 -70 q 72 -114 54 -166 q 35 -219 35 -284 l 35 -284 q 35 -334 54 -386 q 72 -438 113 -482 q 154 -527 222 -554 q 290 -581 389 -581 z"},"ല":{"ha":976,"x_min":51,"x_max":921,"o":"m 734 -569 l 921 -569 l 921 0 l 51 0 l 51 -297 q 51 -380 74 -431 q 97 -483 137 -517 l 137 -517 q 175 -549 227 -565 q 279 -581 345 -581 l 345 -581 q 416 -581 467 -564 q 518 -548 555 -516 l 555 -516 q 595 -481 616 -429 q 636 -378 636 -296 l 636 -296 l 636 -209 l 237 -209 l 237 -128 l 734 -128 l 734 -569 z m 344 -453 l 344 -453 q 289 -453 263 -421 q 237 -389 237 -339 l 237 -339 l 237 -335 l 450 -335 l 450 -339 q 450 -391 423 -422 q 395 -453 344 -453 z"},"ള":{"ha":817,"x_min":32,"x_max":786,"o":"m 422 -457 l 422 -457 q 375 -457 339 -453 q 302 -449 275 -441 q 247 -434 228 -422 q 208 -410 195 -395 l 195 -395 q 187 -386 187 -377 q 186 -369 184 -358 l 184 -358 q 183 -351 183 -340 q 182 -329 182 -318 l 182 -318 q 182 -283 197 -265 q 212 -248 236 -248 l 236 -248 q 262 -248 274 -261 q 285 -275 285 -294 l 285 -294 q 285 -310 279 -320 q 273 -330 262 -335 q 250 -340 234 -340 l 234 -340 q 211 -340 190 -332 q 168 -324 142 -310 l 142 -310 l 86 -354 q 103 -370 133 -388 q 163 -406 201 -419 q 239 -432 279 -432 l 279 -432 q 336 -432 375 -413 q 413 -395 433 -363 q 452 -332 452 -292 l 452 -292 q 452 -249 433 -214 q 413 -179 367 -158 q 321 -138 239 -138 l 239 -138 q 180 -138 133 -160 q 86 -182 59 -225 q 32 -268 32 -331 l 32 -331 q 32 -379 54 -423 q 76 -468 125 -503 q 173 -539 250 -560 q 327 -581 436 -581 l 436 -581 q 554 -581 629 -561 q 703 -541 739 -503 q 775 -465 775 -411 l 775 -411 q 775 -365 748 -331 q 720 -298 668 -278 q 615 -258 539 -250 l 539 -250 l 501 -326 l 501 -348 l 511 -348 q 533 -348 549 -350 q 565 -353 574 -360 l 574 -360 q 582 -366 586 -373 q 589 -381 589 -393 l 589 -393 q 589 -412 573 -426 q 557 -441 521 -449 q 484 -457 422 -457 z m 786 -163 l 786 -163 q 786 -123 772 -94 q 757 -65 734 -45 l 734 -45 q 712 -26 683 -16 q 653 -7 613 -3 q 573 0 517 0 l 517 0 l 318 0 q 283 0 269 2 q 254 3 244 8 l 244 8 q 234 12 230 19 q 225 26 225 36 l 225 36 q 225 46 229 53 q 232 59 239 64 l 239 64 q 249 71 266 74 q 283 77 321 77 l 321 77 l 773 77 l 773 206 l 308 206 q 241 206 197 200 q 152 194 115 175 l 115 175 q 80 157 59 124 q 37 91 37 42 l 37 42 q 37 -2 54 -33 q 70 -64 98 -83 l 98 -83 q 122 -100 151 -109 q 180 -119 218 -123 q 255 -127 306 -127 l 306 -127 l 499 -127 q 534 -127 554 -130 q 573 -133 584 -141 l 584 -141 q 592 -146 596 -155 q 600 -164 600 -176 l 600 -176 q 600 -190 595 -199 q 589 -208 579 -214 l 579 -214 q 569 -220 554 -222 q 539 -224 516 -224 l 516 -224 l 501 -224 l 501 -340 l 623 -315 q 713 -297 750 -256 q 786 -215 786 -163 z"},"ഴ":{"ha":773,"x_min":30,"x_max":743,"o":"m 279 -413 l 279 -413 q 279 -486 334 -533 q 388 -581 498 -581 l 498 -581 q 589 -581 643 -553 q 696 -525 720 -481 q 743 -437 743 -387 l 743 -387 q 743 -319 709 -267 q 675 -215 607 -186 q 538 -157 433 -157 l 433 -157 l 362 -157 q 259 -157 185 -186 q 110 -216 70 -271 q 30 -327 30 -404 l 30 -404 q 30 -448 47 -493 q 63 -538 95 -581 l 95 -581 l 244 -509 q 231 -484 225 -461 q 218 -438 218 -412 l 218 -412 q 218 -367 238 -335 q 258 -303 295 -286 q 331 -270 381 -270 l 381 -270 l 408 -270 q 459 -270 493 -285 q 526 -300 543 -329 q 559 -359 559 -400 l 559 -400 q 559 -427 547 -444 q 534 -462 508 -462 l 508 -462 q 492 -462 481 -454 q 470 -447 465 -435 q 459 -424 459 -410 l 459 -410 q 459 -377 472 -346 q 485 -316 503 -285 q 520 -254 533 -219 q 546 -184 546 -142 l 546 -142 q 546 -102 529 -67 q 511 -32 467 -10 q 423 12 343 12 l 343 12 q 287 12 239 5 q 191 -3 140 -22 l 140 -22 l 193 -140 q 225 -126 252 -121 q 278 -117 309 -117 l 309 -117 q 341 -117 355 -129 q 368 -142 368 -158 l 368 -158 q 368 -184 355 -211 q 341 -239 324 -270 q 306 -301 293 -336 q 279 -371 279 -413 z"},"വ":{"ha":1097,"x_min":35,"x_max":1042,"o":"m 389 -581 l 389 -581 q 487 -581 555 -555 q 622 -529 663 -486 q 704 -443 723 -390 q 742 -337 742 -284 l 742 -284 q 742 -227 727 -186 q 711 -146 682 -111 q 652 -76 611 -35 l 611 -35 l 658 -128 l 855 -128 l 855 -569 l 1042 -569 l 1042 0 l 531 0 l 471 -84 q 495 -112 513 -142 q 531 -172 542 -206 q 552 -241 552 -281 l 552 -281 q 552 -334 533 -372 q 513 -410 477 -431 q 441 -452 390 -452 l 390 -452 q 343 -452 306 -432 q 269 -412 248 -374 q 227 -336 227 -281 l 227 -281 q 227 -241 238 -205 q 249 -170 270 -137 q 290 -104 320 -69 l 320 -69 l 181 12 q 138 -27 105 -70 q 72 -114 54 -166 q 35 -219 35 -284 l 35 -284 q 35 -334 54 -386 q 72 -438 113 -482 q 154 -527 222 -554 q 290 -581 389 -581 z"},"ശ":{"ha":1204,"x_min":35,"x_max":1173,"o":"m 772 -581 l 772 -581 q 874 -581 950 -553 q 1025 -525 1075 -477 q 1124 -429 1149 -367 q 1173 -305 1173 -237 l 1173 -237 q 1173 -157 1143 -101 q 1113 -46 1055 -17 q 996 12 911 12 l 911 12 q 826 12 773 -18 q 720 -48 696 -97 q 671 -147 671 -205 l 671 -205 q 671 -300 726 -355 q 780 -410 879 -410 l 879 -410 q 942 -410 989 -379 q 1035 -349 1063 -302 q 1090 -255 1094 -205 l 1094 -205 l 1021 -203 q 1016 -227 1004 -248 q 991 -269 972 -282 q 952 -295 925 -295 l 925 -295 q 889 -295 870 -272 q 851 -250 851 -205 l 851 -205 q 851 -174 859 -154 q 867 -135 882 -125 q 896 -116 914 -116 l 914 -116 q 939 -116 956 -129 q 973 -142 982 -170 q 990 -198 990 -242 l 990 -242 q 990 -257 989 -273 q 987 -290 985 -305 l 985 -305 q 984 -309 986 -317 q 988 -325 986 -329 l 986 -329 q 981 -363 955 -390 q 929 -418 885 -434 q 841 -451 781 -451 l 781 -451 q 735 -451 705 -442 q 675 -434 655 -418 l 655 -418 q 623 -393 612 -352 q 600 -312 600 -256 l 600 -256 l 600 -250 q 600 -177 581 -126 q 561 -75 522 -43 l 522 -43 q 488 -15 438 -1 q 387 12 321 12 l 321 12 q 231 12 167 -23 q 103 -59 69 -122 q 35 -186 35 -269 l 35 -269 q 35 -332 51 -383 q 67 -435 99 -482 q 130 -530 174 -581 l 174 -581 l 313 -500 q 282 -457 263 -420 q 243 -384 234 -348 q 225 -313 225 -273 l 225 -273 q 225 -214 239 -180 q 253 -146 277 -131 q 300 -117 328 -117 l 328 -117 q 346 -117 360 -121 q 373 -126 383 -136 l 383 -136 q 397 -150 403 -175 q 409 -200 409 -249 l 409 -249 l 409 -265 q 409 -354 435 -412 q 461 -471 508 -507 l 508 -507 q 559 -546 624 -563 q 689 -581 772 -581 z"},"ഷ":{"ha":1350,"x_min":27,"x_max":1295,"o":"m 285 -372 l 285 -372 q 375 -372 431 -342 q 486 -312 512 -266 q 538 -221 538 -173 l 538 -173 q 538 -151 533 -124 q 528 -98 518 -76 l 518 -76 l 521 -128 l 790 -128 l 792 0 l 392 0 l 329 -70 q 340 -87 350 -110 q 360 -133 360 -163 l 360 -163 q 360 -195 343 -220 q 326 -245 287 -245 l 287 -245 q 262 -245 245 -234 q 228 -223 220 -204 q 212 -185 212 -160 l 212 -160 q 212 -129 223 -101 q 234 -74 252 -45 l 252 -45 l 108 13 q 72 -25 50 -70 q 27 -115 27 -170 l 27 -170 q 27 -233 60 -278 q 93 -324 151 -348 q 209 -372 285 -372 z m 1295 0 l 754 0 l 754 -387 q 754 -407 752 -420 q 750 -433 745 -440 l 745 -440 q 741 -447 735 -450 q 728 -454 717 -454 l 717 -454 q 700 -454 689 -442 q 678 -431 678 -408 l 678 -408 q 678 -392 685 -377 q 692 -363 712 -353 q 731 -344 768 -344 l 768 -344 l 843 -344 q 898 -344 940 -366 q 982 -388 1014 -422 q 1046 -456 1070 -495 q 1094 -535 1112 -569 l 1112 -569 l 1295 -569 l 1295 0 z m 719 -581 l 719 -581 q 770 -581 808 -570 q 846 -559 873 -537 l 873 -537 q 905 -512 921 -471 q 937 -430 937 -369 l 937 -369 l 937 -128 l 1112 -128 l 1112 -252 q 1112 -278 1114 -304 q 1115 -330 1118 -350 q 1120 -371 1122 -379 l 1122 -379 l 1123 -364 q 1094 -313 1051 -281 q 1007 -250 960 -235 q 912 -221 870 -221 l 870 -221 l 784 -221 q 677 -221 617 -248 q 556 -275 532 -318 q 507 -361 507 -410 l 507 -410 q 507 -455 531 -494 q 555 -533 603 -557 q 650 -581 719 -581 z"},"സ":{"ha":1395,"x_min":35,"x_max":1360,"o":"m 721 -581 l 721 -581 q 774 -581 819 -567 q 864 -554 898 -526 l 898 -526 q 927 -503 945 -471 q 962 -440 970 -398 q 978 -357 978 -303 l 978 -303 l 978 -264 q 978 -219 984 -187 q 989 -155 1008 -137 l 1008 -137 q 1018 -127 1033 -122 q 1047 -117 1066 -117 l 1066 -117 q 1094 -117 1118 -131 q 1141 -145 1156 -179 q 1170 -214 1170 -273 l 1170 -273 q 1170 -313 1161 -348 q 1152 -384 1133 -420 q 1113 -457 1082 -500 l 1082 -500 l 1221 -581 q 1266 -530 1297 -482 q 1328 -435 1344 -383 q 1360 -332 1360 -269 l 1360 -269 q 1360 -186 1326 -122 q 1291 -59 1227 -23 q 1162 12 1070 12 l 1070 12 q 999 12 951 -2 q 903 -16 868 -44 l 868 -44 q 840 -67 822 -99 q 804 -131 796 -175 q 787 -219 787 -278 l 787 -278 l 787 -293 q 787 -349 782 -381 q 776 -413 757 -431 l 757 -431 q 747 -440 734 -446 q 720 -452 699 -452 l 699 -452 q 678 -452 664 -446 q 649 -441 637 -429 l 637 -429 q 621 -413 617 -386 q 612 -360 612 -313 l 612 -313 l 612 0 l 425 0 l 425 -328 q 425 -367 420 -390 q 414 -413 400 -428 l 400 -428 q 391 -439 377 -445 q 363 -452 343 -452 l 343 -452 q 314 -452 287 -437 q 260 -422 243 -387 q 225 -353 225 -295 l 225 -295 q 225 -256 234 -220 q 243 -185 263 -148 q 282 -112 313 -69 l 313 -69 l 174 12 q 130 -39 99 -86 q 67 -134 51 -185 q 35 -236 35 -299 l 35 -299 q 35 -380 69 -443 q 103 -507 168 -544 q 232 -581 322 -581 l 322 -581 q 389 -581 436 -563 q 482 -545 527 -506 l 527 -506 l 511 -501 q 553 -543 602 -562 q 651 -581 721 -581 z"},"ഹ":{"ha":1368,"x_min":27,"x_max":1333,"o":"m 285 -372 l 285 -372 q 375 -372 431 -342 q 486 -312 512 -266 q 538 -221 538 -173 l 538 -173 q 538 -151 533 -124 q 528 -98 518 -76 l 518 -76 l 521 -128 l 790 -128 l 792 0 l 392 0 l 329 -70 q 340 -87 350 -110 q 360 -133 360 -163 l 360 -163 q 360 -195 343 -220 q 326 -245 287 -245 l 287 -245 q 262 -245 245 -234 q 228 -223 220 -204 q 212 -185 212 -160 l 212 -160 q 212 -129 223 -101 q 234 -74 252 -45 l 252 -45 l 108 13 q 72 -25 50 -70 q 27 -115 27 -170 l 27 -170 q 27 -233 60 -278 q 93 -324 151 -348 q 209 -372 285 -372 z m 978 -581 l 978 -581 q 1077 -581 1146 -555 q 1214 -529 1255 -486 q 1296 -443 1315 -390 q 1333 -337 1333 -284 l 1333 -284 q 1333 -221 1316 -169 q 1298 -118 1266 -74 q 1233 -30 1186 12 l 1186 12 l 1048 -69 q 1078 -104 1099 -137 q 1119 -171 1130 -206 q 1141 -241 1141 -281 l 1141 -281 q 1141 -334 1122 -372 q 1102 -410 1066 -430 q 1030 -451 979 -451 l 979 -451 q 932 -451 895 -431 q 858 -412 837 -374 q 816 -337 816 -281 l 816 -281 q 816 -242 826 -209 q 836 -176 854 -145 q 872 -115 896 -84 l 896 -84 l 837 0 l 759 0 l 725 -65 q 691 -100 669 -133 q 647 -167 637 -203 q 626 -240 626 -284 l 626 -284 q 626 -334 644 -386 q 662 -438 703 -482 q 743 -527 811 -554 q 879 -581 978 -581 z"},"ഺ":{"ha":796,"x_min":14,"x_max":776,"o":"m 223 -128 l 776 -128 l 776 0 l 533 0 l 533 202 l 346 202 l 346 0 l 99 0 l 14 -105 l 194 -574 l 374 -514 l 223 -128 z"},"഻":{"ha":0,"x_min":-337,"x_max":-219,"o":"m -337 -603 l -337 -864 l -219 -864 l -219 -603 l -337 -603 z"},"഼":{"ha":0,"x_min":-310,"x_max":19,"o":"m -310 -728 l -310 -728 q -310 -787 -266 -825 q -223 -864 -146 -864 l -146 -864 q -69 -864 -25 -825 q 19 -787 19 -728 l 19 -728 q 19 -671 -24 -632 q -67 -593 -146 -593 l -146 -593 q -225 -593 -267 -632 q -310 -671 -310 -728 z m -192 -728 l -192 -728 q -192 -710 -180 -697 q -169 -685 -146 -685 l -146 -685 q -123 -685 -111 -698 q -99 -711 -99 -729 l -99 -729 q -99 -749 -112 -760 q -125 -771 -146 -771 l -146 -771 q -168 -771 -180 -759 q -192 -748 -192 -728 z"},"ഽ":{"ha":549,"x_min":-84,"x_max":633,"o":"m 418 -805 l 418 -805 q 488 -805 530 -782 q 571 -759 595 -722 q 618 -685 633 -643 l 633 -643 l 473 -610 q 467 -635 460 -649 q 452 -664 443 -670 q 433 -677 418 -677 l 418 -677 q 409 -677 401 -674 q 393 -671 387 -665 l 387 -665 q 375 -653 372 -630 q 369 -607 369 -556 l 369 -556 l 369 -74 q 369 20 357 79 q 344 138 307 179 l 307 179 q 279 210 236 227 q 192 244 131 244 l 131 244 q 62 244 20 221 q -22 198 -45 161 q -69 124 -84 82 l -84 82 l 76 49 q 83 74 90 89 q 97 103 107 110 q 117 116 131 116 l 131 116 q 140 116 148 113 q 156 110 162 104 l 162 104 q 174 92 177 69 q 180 46 180 -5 l 180 -5 l 180 -487 q 180 -581 193 -640 q 205 -699 242 -740 l 242 -740 q 271 -772 314 -788 q 357 -805 418 -805 z"},"ാ":{"ha":611,"x_min":15,"x_max":576,"o":"m 576 -287 l 576 -287 q 576 -228 563 -174 q 550 -120 518 -78 q 486 -36 431 -12 q 375 12 290 12 l 290 12 q 214 12 165 -5 q 115 -23 85 -52 q 55 -81 40 -116 q 24 -151 15 -186 l 15 -186 l 207 -218 q 215 -188 225 -165 q 234 -142 251 -129 q 267 -116 294 -116 l 294 -116 q 326 -116 346 -136 q 366 -157 375 -194 q 384 -232 384 -284 l 384 -284 q 384 -336 375 -373 q 366 -411 347 -432 q 327 -453 296 -453 l 296 -453 q 271 -453 254 -439 q 237 -426 227 -403 q 217 -380 210 -351 l 210 -351 l 17 -384 q 29 -420 49 -455 q 68 -490 100 -518 q 131 -547 180 -564 q 229 -581 300 -581 l 300 -581 q 381 -581 435 -556 q 488 -532 519 -490 q 550 -448 563 -395 q 576 -343 576 -287 z"},"ി":{"ha":297,"x_min":-264,"x_max":242,"o":"m -21 -853 l -21 -853 q 28 -853 67 -843 q 105 -833 134 -814 l 134 -814 q 173 -790 197 -753 q 220 -717 231 -665 q 242 -614 242 -544 l 242 -544 l 242 0 l 55 0 l 55 -528 q 55 -585 53 -618 q 50 -652 44 -671 q 38 -691 27 -704 l 27 -704 q 18 -714 6 -719 q -6 -725 -23 -725 l -23 -725 q -38 -725 -50 -719 q -63 -713 -70 -700 q -78 -688 -78 -670 l -78 -670 q -78 -663 -76 -654 q -75 -646 -73 -639 l -73 -639 l -255 -618 q -259 -630 -261 -644 q -264 -658 -264 -674 l -264 -674 q -264 -734 -234 -773 q -204 -813 -149 -833 q -94 -853 -21 -853 z"},"ീ":{"ha":297,"x_min":-313,"x_max":242,"o":"m -99 -853 l -99 -853 q -34 -853 17 -841 q 67 -830 107 -806 l 107 -806 q 181 -762 212 -689 q 242 -616 242 -503 l 242 -503 l 242 0 l 55 0 l 55 -511 q 55 -579 49 -625 q 42 -672 27 -701 q 11 -730 -18 -742 l -18 -742 q -34 -747 -58 -750 q -83 -754 -114 -754 l -114 -754 q -130 -754 -144 -750 q -158 -746 -167 -737 q -176 -728 -176 -711 l -176 -711 q -176 -701 -168 -691 q -160 -681 -142 -681 l -142 -681 q -121 -681 -113 -693 q -105 -706 -105 -722 l -105 -722 q -105 -747 -120 -765 q -135 -783 -159 -797 l -159 -797 l -2 -779 q 6 -770 13 -748 q 19 -726 19 -707 l 19 -707 q 19 -673 2 -643 q -15 -613 -51 -594 q -88 -576 -146 -576 l -146 -576 q -201 -576 -238 -591 q -275 -607 -294 -637 q -313 -667 -313 -710 l -313 -710 q -313 -752 -291 -784 q -269 -816 -221 -834 q -174 -853 -99 -853 z"},"ു":{"ha":412,"x_min":-33,"x_max":420,"o":"m 193 241 l 193 241 q 83 241 25 188 q -33 135 -33 53 l -33 53 q -33 -3 -6 -45 q 20 -87 71 -111 q 121 -135 192 -135 l 192 -135 q 263 -135 314 -111 q 365 -88 393 -45 q 420 -3 420 55 l 420 55 q 420 111 394 153 q 367 195 317 218 q 266 241 193 241 z m 194 120 l 194 120 q 223 120 241 103 q 259 86 259 52 l 259 52 q 259 20 242 2 q 224 -17 192 -17 l 192 -17 q 164 -17 146 1 q 128 19 128 52 l 128 52 q 128 83 146 102 q 163 120 194 120 z m 159 -581 l 159 -581 q 229 -581 272 -556 q 315 -531 335 -490 q 354 -450 354 -401 l 354 -401 q 354 -322 336 -252 q 318 -183 289 -104 l 289 -104 l 117 -119 q 140 -191 153 -253 q 165 -316 165 -369 l 165 -369 q 165 -401 153 -426 q 141 -451 104 -451 l 104 -451 q 92 -451 81 -450 q 69 -449 54 -445 l 54 -445 l 29 -567 q 58 -573 88 -577 q 117 -581 159 -581 z"},"ൂ":{"ha":412,"x_min":-33,"x_max":420,"o":"m 193 241 l 193 241 q 83 241 25 188 q -33 135 -33 53 l -33 53 q -33 -3 -6 -45 q 20 -87 71 -111 q 121 -135 192 -135 l 192 -135 q 263 -135 314 -111 q 365 -88 393 -45 q 420 -3 420 55 l 420 55 q 420 111 394 153 q 367 195 317 218 q 266 241 193 241 z m 192 -36 l 192 -36 q 153 -36 122 -13 q 91 9 91 53 l 91 53 q 91 98 122 121 q 152 143 194 143 l 194 143 q 236 143 266 121 q 296 99 296 53 l 296 53 q 296 8 266 -14 q 236 -36 192 -36 z m 195 103 l 195 103 q 138 103 110 70 q 81 37 81 -16 l 81 -16 q 81 -34 92 -55 q 103 -77 125 -102 l 125 -102 l 174 -81 q 158 -72 149 -59 q 140 -47 140 -33 l 140 -33 q 140 -17 147 -6 q 153 4 166 10 q 179 15 196 15 l 196 15 q 213 15 226 9 q 238 3 245 -8 q 252 -19 252 -33 l 252 -33 q 252 -44 244 -55 q 235 -67 220 -74 l 220 -74 l 269 -102 q 292 -78 301 -57 q 310 -37 310 -15 l 310 -15 q 310 14 299 42 q 288 69 263 86 q 238 103 195 103 z m 159 -581 l 159 -581 q 229 -581 272 -556 q 315 -531 335 -490 q 354 -450 354 -401 l 354 -401 q 354 -322 336 -252 q 318 -183 289 -104 l 289 -104 l 117 -119 q 140 -191 153 -253 q 165 -316 165 -369 l 165 -369 q 165 -401 153 -426 q 141 -451 104 -451 l 104 -451 q 92 -451 81 -450 q 69 -449 54 -445 l 54 -445 l 29 -567 q 58 -573 88 -577 q 117 -581 159 -581 z"},"ൃ":{"ha":326,"x_min":-158,"x_max":327,"o":"m 68 337 l 68 337 q -4 337 -54 319 q -105 301 -131 265 q -158 228 -158 173 l -158 173 q -158 105 -106 62 q -55 19 36 19 l 36 19 q 88 19 126 32 q 164 45 209 77 l 209 77 l 166 172 q 141 155 119 147 q 97 138 67 138 l 67 138 q 40 138 28 148 q 15 157 15 174 l 15 174 q 15 194 30 203 q 45 211 68 211 l 68 211 q 94 211 112 203 q 129 194 139 174 q 148 154 148 120 l 148 120 q 148 106 144 82 q 140 58 129 23 q 118 -13 97 -62 l 97 -62 q 69 -130 53 -189 q 37 -248 37 -309 l 37 -309 q 37 -386 60 -450 q 83 -515 114 -569 l 114 -569 l 303 -569 q 276 -521 259 -479 q 241 -438 233 -400 q 224 -362 224 -322 l 224 -322 q 224 -273 236 -226 q 247 -180 269 -122 l 269 -122 q 292 -64 305 -23 q 317 17 322 50 q 327 82 327 117 l 327 117 q 327 196 292 245 q 256 293 198 315 q 139 337 68 337 z"},"ൄ":{"ha":326,"x_min":-305,"x_max":324,"o":"m -24 337 l -24 337 q -116 337 -178 316 q -241 295 -273 256 q -305 216 -305 159 l -305 159 q -305 97 -266 60 q -228 22 -168 22 l -168 22 q -133 22 -108 34 q -84 45 -65 68 l -65 68 l -84 69 q -67 49 -45 36 q -23 22 7 22 l 7 22 q 46 22 69 35 q 92 48 103 68 q 114 88 118 111 q 121 133 121 151 l 121 151 l 121 178 l 22 178 l 22 164 q 22 150 17 140 q 12 130 -1 130 l -1 130 q -16 130 -20 141 q -25 151 -25 163 l -25 163 l -25 178 l -119 178 l -119 164 q -119 144 -126 137 q -134 130 -145 130 l -145 130 q -161 130 -166 139 q -172 148 -172 159 l -172 159 q -172 187 -138 201 q -104 214 -23 214 l -23 214 q 63 214 102 191 q 141 168 141 110 l 141 110 q 141 89 138 67 q 135 44 126 15 q 117 -15 99 -58 l 99 -58 q 70 -129 54 -188 q 37 -248 37 -309 l 37 -309 q 37 -386 60 -450 q 83 -515 114 -569 l 114 -569 l 303 -569 q 276 -521 259 -479 q 241 -438 233 -400 q 224 -362 224 -322 l 224 -322 q 224 -273 236 -225 q 248 -178 272 -114 l 272 -114 q 291 -65 302 -26 q 313 13 319 47 q 324 80 324 116 l 324 116 q 324 179 292 229 q 260 279 184 308 q 108 337 -24 337 z"},"െ":{"ha":838,"x_min":33,"x_max":803,"o":"m 278 12 l 278 12 q 209 12 154 -14 q 98 -40 66 -97 q 33 -154 33 -245 l 33 -245 q 33 -317 60 -378 q 86 -440 138 -485 q 190 -531 266 -556 q 342 -581 441 -581 l 441 -581 q 544 -581 614 -555 q 683 -529 725 -486 q 766 -443 785 -390 q 803 -337 803 -284 l 803 -284 q 803 -219 785 -166 q 766 -114 733 -70 q 700 -27 656 12 l 656 12 l 518 -69 q 548 -104 569 -137 q 589 -171 600 -206 q 611 -241 611 -281 l 611 -281 q 611 -334 591 -372 q 571 -410 531 -431 q 490 -452 426 -452 l 426 -452 q 359 -452 309 -426 q 258 -400 230 -353 q 202 -307 202 -244 l 202 -244 q 202 -190 212 -160 q 222 -131 238 -119 q 254 -108 273 -108 l 273 -108 q 290 -108 302 -114 q 313 -121 319 -135 q 325 -150 325 -173 l 325 -173 q 325 -205 310 -222 q 294 -240 267 -240 l 267 -240 q 233 -240 207 -220 q 180 -200 139 -156 l 139 -156 l 118 -276 q 158 -310 204 -334 q 249 -359 316 -359 l 316 -359 q 380 -359 422 -336 q 464 -313 485 -272 q 506 -232 506 -179 l 506 -179 q 506 -120 481 -77 q 456 -34 406 -11 q 355 12 278 12 z"},"േ":{"ha":689,"x_min":32,"x_max":656,"o":"m 409 12 l 409 12 q 325 12 256 -5 q 187 -22 137 -57 q 87 -93 60 -150 q 32 -207 32 -288 l 32 -288 q 32 -363 60 -418 q 88 -474 140 -510 q 191 -546 261 -563 q 330 -581 413 -581 l 413 -581 q 505 -581 558 -559 q 611 -538 634 -504 q 656 -470 656 -431 l 656 -431 q 656 -382 634 -351 q 612 -320 571 -305 q 529 -291 468 -291 l 468 -291 q 397 -291 358 -309 q 319 -327 304 -357 q 289 -388 289 -424 l 289 -424 q 289 -442 296 -462 q 303 -483 312 -495 l 312 -495 l 464 -511 q 448 -497 436 -478 q 424 -460 424 -438 l 424 -438 q 424 -416 434 -406 q 443 -396 463 -396 l 463 -396 q 482 -396 492 -404 q 501 -413 501 -429 l 501 -429 q 501 -449 485 -461 q 469 -473 439 -473 l 439 -473 q 425 -473 409 -473 q 393 -473 379 -471 l 379 -471 q 327 -466 291 -440 q 255 -415 237 -375 q 218 -336 218 -287 l 218 -287 q 218 -235 233 -195 q 248 -156 283 -131 q 317 -107 373 -100 l 373 -100 q 383 -99 399 -97 q 415 -96 432 -96 l 432 -96 q 454 -96 468 -103 q 481 -111 488 -121 q 494 -132 494 -141 l 494 -141 q 494 -155 486 -164 q 477 -174 458 -174 l 458 -174 q 439 -174 429 -164 q 418 -154 418 -132 l 418 -132 q 418 -114 426 -96 q 434 -79 452 -62 l 452 -62 l 300 -83 q 294 -94 289 -111 q 283 -128 283 -144 l 283 -144 q 283 -184 300 -214 q 316 -244 355 -261 q 394 -279 463 -279 l 463 -279 q 522 -279 564 -264 q 605 -250 627 -218 q 649 -186 649 -135 l 649 -135 q 649 -97 626 -63 q 602 -30 550 -9 q 497 12 409 12 z"},"ൈ":{"ha":1676,"x_min":33,"x_max":1641,"o":"m 278 12 l 278 12 q 209 12 154 -14 q 98 -40 66 -97 q 33 -154 33 -245 l 33 -245 q 33 -317 60 -378 q 86 -440 138 -485 q 190 -531 266 -556 q 342 -581 441 -581 l 441 -581 q 544 -581 614 -555 q 683 -529 725 -486 q 766 -443 785 -390 q 803 -337 803 -284 l 803 -284 q 803 -219 785 -166 q 766 -114 733 -70 q 700 -27 656 12 l 656 12 l 518 -69 q 548 -104 569 -137 q 589 -171 600 -206 q 611 -241 611 -281 l 611 -281 q 611 -334 591 -372 q 571 -410 531 -431 q 490 -452 426 -452 l 426 -452 q 359 -452 309 -426 q 258 -400 230 -353 q 202 -307 202 -244 l 202 -244 q 202 -190 212 -160 q 222 -131 238 -119 q 254 -108 273 -108 l 273 -108 q 290 -108 302 -114 q 313 -121 319 -135 q 325 -150 325 -173 l 325 -173 q 325 -205 310 -222 q 294 -240 267 -240 l 267 -240 q 233 -240 207 -220 q 180 -200 139 -156 l 139 -156 l 118 -276 q 158 -310 204 -334 q 249 -359 316 -359 l 316 -359 q 380 -359 422 -336 q 464 -313 485 -272 q 506 -232 506 -179 l 506 -179 q 506 -120 481 -77 q 456 -34 406 -11 q 355 12 278 12 z m 1116 12 l 1116 12 q 1047 12 992 -14 q 936 -40 904 -97 q 871 -154 871 -245 l 871 -245 q 871 -317 898 -378 q 924 -440 976 -485 q 1028 -531 1104 -556 q 1180 -581 1279 -581 l 1279 -581 q 1382 -581 1452 -555 q 1521 -529 1563 -486 q 1604 -443 1623 -390 q 1641 -337 1641 -284 l 1641 -284 q 1641 -219 1623 -166 q 1604 -114 1571 -70 q 1538 -27 1494 12 l 1494 12 l 1356 -69 q 1386 -104 1407 -137 q 1427 -171 1438 -206 q 1449 -241 1449 -281 l 1449 -281 q 1449 -334 1429 -372 q 1409 -410 1369 -431 q 1328 -452 1264 -452 l 1264 -452 q 1197 -452 1147 -426 q 1096 -400 1068 -353 q 1040 -307 1040 -244 l 1040 -244 q 1040 -190 1050 -160 q 1060 -131 1076 -119 q 1092 -108 1111 -108 l 1111 -108 q 1128 -108 1140 -114 q 1151 -121 1157 -135 q 1163 -150 1163 -173 l 1163 -173 q 1163 -205 1148 -222 q 1132 -240 1105 -240 l 1105 -240 q 1071 -240 1045 -220 q 1018 -200 977 -156 l 977 -156 l 956 -276 q 996 -310 1042 -334 q 1087 -359 1154 -359 l 1154 -359 q 1218 -359 1260 -336 q 1302 -313 1323 -272 q 1344 -232 1344 -179 l 1344 -179 q 1344 -120 1319 -77 q 1294 -34 1244 -11 q 1193 12 1116 12 z"},"ൊ":{"ha":1667,"x_min":33,"x_max":1632,"o":"m 278 12 l 278 12 q 209 12 154 -14 q 98 -40 66 -97 q 33 -154 33 -245 l 33 -245 q 33 -317 60 -378 q 86 -440 138 -485 q 190 -531 266 -556 q 342 -581 441 -581 l 441 -581 q 544 -581 614 -555 q 683 -529 725 -486 q 766 -443 785 -390 q 803 -337 803 -284 l 803 -284 q 803 -219 785 -166 q 766 -114 733 -70 q 700 -27 656 12 l 656 12 l 518 -69 q 548 -104 569 -137 q 589 -171 600 -206 q 611 -241 611 -281 l 611 -281 q 611 -334 591 -372 q 571 -410 531 -431 q 490 -452 426 -452 l 426 -452 q 359 -452 309 -426 q 258 -400 230 -353 q 202 -307 202 -244 l 202 -244 q 202 -190 212 -160 q 222 -131 238 -119 q 254 -108 273 -108 l 273 -108 q 290 -108 302 -114 q 313 -121 319 -135 q 325 -150 325 -173 l 325 -173 q 325 -205 310 -222 q 294 -240 267 -240 l 267 -240 q 233 -240 207 -220 q 180 -200 139 -156 l 139 -156 l 118 -276 q 158 -310 204 -334 q 249 -359 316 -359 l 316 -359 q 380 -359 422 -336 q 464 -313 485 -272 q 506 -232 506 -179 l 506 -179 q 506 -120 481 -77 q 456 -34 406 -11 q 355 12 278 12 z m 956 -202 l 956 -202 q 913 -202 883 -224 q 852 -246 852 -295 l 852 -295 q 852 -347 883 -368 q 913 -389 956 -389 l 956 -389 q 997 -389 1027 -368 q 1056 -347 1056 -295 l 1056 -295 q 1056 -246 1027 -224 q 997 -202 956 -202 z m 1632 -287 l 1632 -287 q 1632 -228 1619 -174 q 1606 -120 1574 -78 q 1542 -36 1487 -12 q 1431 12 1346 12 l 1346 12 q 1270 12 1221 -5 q 1171 -23 1141 -52 q 1111 -81 1096 -116 q 1080 -151 1071 -186 l 1071 -186 l 1263 -218 q 1271 -188 1281 -165 q 1290 -142 1307 -129 q 1323 -116 1350 -116 l 1350 -116 q 1382 -116 1402 -136 q 1422 -157 1431 -194 q 1440 -232 1440 -284 l 1440 -284 q 1440 -336 1431 -373 q 1422 -411 1403 -432 q 1383 -453 1352 -453 l 1352 -453 q 1327 -453 1310 -439 q 1293 -426 1283 -403 q 1273 -380 1266 -351 l 1266 -351 l 1073 -384 q 1085 -420 1105 -455 q 1124 -490 1156 -518 q 1187 -547 1236 -564 q 1285 -581 1356 -581 l 1356 -581 q 1437 -581 1491 -556 q 1544 -532 1575 -490 q 1606 -448 1619 -395 q 1632 -343 1632 -287 z"},"ോ":{"ha":1497,"x_min":32,"x_max":1462,"o":"m 409 12 l 409 12 q 325 12 256 -5 q 187 -22 137 -57 q 87 -93 60 -150 q 32 -207 32 -288 l 32 -288 q 32 -363 60 -418 q 88 -474 140 -510 q 191 -546 261 -563 q 330 -581 413 -581 l 413 -581 q 505 -581 558 -559 q 611 -538 634 -504 q 656 -470 656 -431 l 656 -431 q 656 -382 634 -351 q 612 -320 571 -305 q 529 -291 468 -291 l 468 -291 q 397 -291 358 -309 q 319 -327 304 -357 q 289 -388 289 -424 l 289 -424 q 289 -442 296 -462 q 303 -483 312 -495 l 312 -495 l 464 -511 q 448 -497 436 -478 q 424 -460 424 -438 l 424 -438 q 424 -416 434 -406 q 443 -396 463 -396 l 463 -396 q 482 -396 492 -404 q 501 -413 501 -429 l 501 -429 q 501 -449 485 -461 q 469 -473 439 -473 l 439 -473 q 425 -473 409 -473 q 393 -473 379 -471 l 379 -471 q 327 -466 291 -440 q 255 -415 237 -375 q 218 -336 218 -287 l 218 -287 q 218 -235 233 -195 q 248 -156 283 -131 q 317 -107 373 -100 l 373 -100 q 383 -99 399 -97 q 415 -96 432 -96 l 432 -96 q 454 -96 468 -103 q 481 -111 488 -121 q 494 -132 494 -141 l 494 -141 q 494 -155 486 -164 q 477 -174 458 -174 l 458 -174 q 439 -174 429 -164 q 418 -154 418 -132 l 418 -132 q 418 -114 426 -96 q 434 -79 452 -62 l 452 -62 l 300 -83 q 294 -94 289 -111 q 283 -128 283 -144 l 283 -144 q 283 -184 300 -214 q 316 -244 355 -261 q 394 -279 463 -279 l 463 -279 q 522 -279 564 -264 q 605 -250 627 -218 q 649 -186 649 -135 l 649 -135 q 649 -97 626 -63 q 602 -30 550 -9 q 497 12 409 12 z m 786 -202 l 786 -202 q 743 -202 713 -224 q 682 -246 682 -295 l 682 -295 q 682 -347 713 -368 q 743 -389 786 -389 l 786 -389 q 827 -389 857 -368 q 886 -347 886 -295 l 886 -295 q 886 -246 857 -224 q 827 -202 786 -202 z m 1462 -287 l 1462 -287 q 1462 -228 1449 -174 q 1436 -120 1404 -78 q 1372 -36 1317 -12 q 1261 12 1176 12 l 1176 12 q 1100 12 1051 -5 q 1001 -23 971 -52 q 941 -81 926 -116 q 910 -151 901 -186 l 901 -186 l 1093 -218 q 1101 -188 1111 -165 q 1120 -142 1137 -129 q 1153 -116 1180 -116 l 1180 -116 q 1212 -116 1232 -136 q 1252 -157 1261 -194 q 1270 -232 1270 -284 l 1270 -284 q 1270 -336 1261 -373 q 1252 -411 1233 -432 q 1213 -453 1182 -453 l 1182 -453 q 1157 -453 1140 -439 q 1123 -426 1113 -403 q 1103 -380 1096 -351 l 1096 -351 l 903 -384 q 915 -420 935 -455 q 954 -490 986 -518 q 1017 -547 1066 -564 q 1115 -581 1186 -581 l 1186 -581 q 1267 -581 1321 -556 q 1374 -532 1405 -490 q 1436 -448 1449 -395 q 1462 -343 1462 -287 z"},"ൌ":{"ha":1951,"x_min":33,"x_max":1916,"o":"m 278 12 l 278 12 q 209 12 154 -14 q 98 -40 66 -97 q 33 -154 33 -245 l 33 -245 q 33 -317 60 -378 q 86 -440 138 -485 q 190 -531 266 -556 q 342 -581 441 -581 l 441 -581 q 544 -581 614 -555 q 683 -529 725 -486 q 766 -443 785 -390 q 803 -337 803 -284 l 803 -284 q 803 -219 785 -166 q 766 -114 733 -70 q 700 -27 656 12 l 656 12 l 518 -69 q 548 -104 569 -137 q 589 -171 600 -206 q 611 -241 611 -281 l 611 -281 q 611 -334 591 -372 q 571 -410 531 -431 q 490 -452 426 -452 l 426 -452 q 359 -452 309 -426 q 258 -400 230 -353 q 202 -307 202 -244 l 202 -244 q 202 -190 212 -160 q 222 -131 238 -119 q 254 -108 273 -108 l 273 -108 q 290 -108 302 -114 q 313 -121 319 -135 q 325 -150 325 -173 l 325 -173 q 325 -205 310 -222 q 294 -240 267 -240 l 267 -240 q 233 -240 207 -220 q 180 -200 139 -156 l 139 -156 l 118 -276 q 158 -310 204 -334 q 249 -359 316 -359 l 316 -359 q 380 -359 422 -336 q 464 -313 485 -272 q 506 -232 506 -179 l 506 -179 q 506 -120 481 -77 q 456 -34 406 -11 q 355 12 278 12 z m 956 -202 l 956 -202 q 913 -202 883 -224 q 852 -246 852 -295 l 852 -295 q 852 -347 883 -368 q 913 -389 956 -389 l 956 -389 q 997 -389 1027 -368 q 1056 -347 1056 -295 l 1056 -295 q 1056 -246 1027 -224 q 997 -202 956 -202 z m 1664 -581 l 1664 -581 q 1742 -581 1799 -549 q 1855 -517 1886 -456 q 1916 -395 1916 -307 l 1916 -307 q 1916 -207 1880 -135 q 1844 -64 1771 -26 q 1698 12 1588 12 l 1588 12 q 1498 12 1434 -3 q 1369 -18 1311 -47 l 1311 -47 l 1377 -165 q 1431 -138 1473 -128 q 1515 -118 1567 -118 l 1567 -118 q 1625 -118 1660 -138 q 1695 -159 1711 -201 q 1726 -244 1726 -308 l 1726 -308 q 1726 -382 1704 -417 q 1682 -453 1650 -453 l 1650 -453 q 1638 -453 1629 -449 q 1620 -446 1614 -439 l 1614 -439 q 1604 -427 1601 -407 q 1597 -388 1597 -353 l 1597 -353 l 1597 -268 l 1412 -268 l 1412 -345 q 1412 -377 1408 -402 q 1404 -427 1392 -439 l 1392 -439 q 1384 -447 1375 -450 q 1366 -453 1355 -453 l 1355 -453 q 1327 -453 1309 -433 q 1291 -413 1291 -376 l 1291 -376 q 1291 -352 1295 -331 q 1299 -311 1305 -293 l 1305 -293 l 1125 -254 q 1115 -285 1110 -318 q 1104 -352 1104 -380 l 1104 -380 q 1104 -434 1130 -479 q 1155 -525 1207 -553 q 1259 -581 1340 -581 l 1340 -581 q 1403 -581 1444 -562 q 1485 -543 1515 -514 l 1515 -514 l 1493 -514 q 1528 -552 1571 -566 q 1614 -581 1664 -581 z"},"്":{"ha":0,"x_min":-361,"x_max":97,"o":"m -133 -599 l -133 -599 q -215 -599 -265 -620 q -315 -641 -338 -679 q -361 -718 -361 -768 l -361 -768 q -361 -789 -356 -808 q -352 -827 -346 -840 l -346 -840 l -185 -812 q -188 -804 -189 -794 q -191 -784 -191 -774 l -191 -774 q -191 -753 -183 -741 q -176 -729 -162 -723 q -148 -718 -131 -718 l -131 -718 q -113 -718 -98 -723 q -84 -728 -75 -740 q -67 -753 -67 -774 l -67 -774 q -67 -784 -68 -794 q -70 -804 -72 -812 l -72 -812 l 84 -840 q 89 -827 93 -808 q 97 -789 97 -768 l 97 -768 q 97 -718 75 -679 q 52 -641 2 -620 q -48 -599 -133 -599 z"},"ൎ":{"ha":0,"x_min":-377,"x_max":-180,"o":"m -377 -843 l -180 -843 l -190 -637 l -368 -637 l -377 -843 z"},"൏":{"ha":1433,"x_min":39,"x_max":1398,"o":"m 673 -581 l 673 -581 q 767 -581 833 -558 q 899 -535 955 -480 l 955 -480 l 905 -505 q 951 -546 1000 -563 q 1049 -581 1117 -581 l 1117 -581 q 1216 -581 1278 -535 q 1340 -490 1369 -413 q 1398 -336 1398 -241 l 1398 -241 q 1398 -82 1327 28 q 1256 138 1105 195 q 953 252 712 252 l 712 252 q 556 252 442 227 q 328 202 250 157 q 172 111 126 50 q 80 -11 60 -83 q 39 -155 39 -234 l 39 -234 q 39 -311 62 -398 q 85 -486 126 -564 l 126 -564 l 275 -500 q 241 -434 227 -366 q 212 -298 212 -234 l 212 -234 q 212 -172 225 -118 q 237 -65 268 -21 q 299 22 356 53 q 412 83 499 100 q 586 116 711 116 l 711 116 q 866 116 964 90 q 1061 63 1114 15 q 1167 -33 1188 -99 q 1208 -165 1208 -244 l 1208 -244 q 1208 -314 1193 -360 q 1177 -406 1152 -429 q 1126 -452 1096 -452 l 1096 -452 q 1075 -452 1061 -445 q 1046 -439 1037 -428 l 1037 -428 q 1024 -413 1018 -390 q 1012 -367 1012 -327 l 1012 -327 l 1012 0 l 825 0 l 825 -273 q 825 -338 815 -371 q 805 -404 780 -424 l 780 -424 q 762 -438 735 -445 q 707 -453 669 -453 l 669 -453 q 611 -453 562 -429 q 512 -405 483 -358 q 453 -312 453 -244 l 453 -244 l 453 -240 q 453 -188 463 -159 q 473 -130 489 -119 q 505 -108 524 -108 l 524 -108 q 541 -108 553 -114 q 564 -121 570 -135 q 576 -150 576 -173 l 576 -173 q 576 -205 561 -222 q 545 -240 518 -240 l 518 -240 q 484 -240 458 -220 q 431 -200 390 -156 l 390 -156 l 369 -276 q 409 -310 456 -334 q 503 -359 567 -359 l 567 -359 q 631 -359 673 -336 q 715 -313 736 -273 q 757 -233 757 -180 l 757 -180 q 757 -121 732 -77 q 707 -34 657 -11 q 606 12 529 12 l 529 12 q 460 12 405 -14 q 349 -41 317 -97 q 284 -154 284 -244 l 284 -244 q 284 -352 336 -427 q 387 -503 475 -542 q 563 -581 673 -581 z"},"ൔ":{"ha":757,"x_min":51,"x_max":749,"o":"m 245 -803 l 245 -803 q 284 -803 311 -796 q 337 -789 356 -777 l 356 -777 q 392 -755 407 -715 q 421 -675 421 -619 l 421 -619 l 421 -478 q 421 -451 428 -420 q 435 -389 454 -357 q 473 -326 509 -296 l 509 -296 l 551 -270 q 589 -236 638 -195 q 687 -155 749 -111 l 749 -111 l 695 0 l 51 0 l 51 -242 q 51 -313 64 -363 q 76 -413 101 -448 q 125 -484 159 -510 l 159 -510 q 203 -544 265 -562 q 327 -580 398 -580 l 398 -580 q 470 -580 530 -558 q 589 -537 625 -493 q 661 -450 661 -384 l 661 -384 q 661 -327 635 -285 q 609 -243 568 -210 l 568 -210 l 532 -198 q 513 -182 484 -161 q 455 -141 422 -121 q 389 -101 358 -85 l 358 -85 l 373 -113 q 397 -118 426 -119 q 455 -120 471 -120 l 471 -120 l 491 -120 q 520 -120 547 -119 q 573 -119 595 -117 q 617 -116 631 -114 l 631 -114 l 605 -59 q 550 -97 515 -124 q 479 -152 449 -183 l 449 -183 l 404 -208 q 349 -247 314 -295 q 278 -344 262 -401 q 245 -458 245 -521 l 245 -521 l 245 -609 q 245 -635 241 -648 q 236 -661 229 -666 l 229 -666 q 222 -671 214 -673 q 206 -676 193 -676 l 193 -676 q 178 -676 162 -673 q 145 -671 131 -667 l 131 -667 l 101 -783 q 130 -792 168 -797 q 205 -803 245 -803 z m 237 -246 l 237 -68 l 175 -90 q 218 -115 261 -147 q 303 -180 340 -213 q 377 -247 404 -273 l 404 -273 l 449 -296 q 464 -317 473 -338 q 482 -359 482 -380 l 482 -380 q 482 -408 469 -426 q 456 -444 433 -453 q 410 -462 381 -462 l 381 -462 q 344 -462 314 -447 q 283 -433 267 -410 l 267 -410 q 257 -395 251 -374 q 244 -353 241 -322 q 237 -292 237 -246 l 237 -246 z"},"ൕ":{"ha":1187,"x_min":31,"x_max":1155,"o":"m 781 12 l 781 12 q 737 12 699 8 q 660 3 626 -6 q 592 -15 560 -28 l 560 -28 q 550 -33 540 -40 q 529 -47 518 -52 l 518 -52 q 465 -81 424 -121 q 383 -162 360 -216 q 337 -270 337 -338 l 337 -338 q 337 -379 349 -414 q 361 -449 380 -477 l 380 -477 l 398 -499 q 419 -527 449 -545 q 479 -563 518 -572 q 556 -581 600 -581 l 600 -581 q 724 -581 794 -517 q 864 -454 864 -334 l 864 -334 q 864 -269 839 -215 q 814 -162 775 -122 q 736 -82 693 -58 l 693 -58 q 684 -53 675 -46 q 666 -40 656 -35 l 656 -35 q 604 -12 547 0 q 490 12 433 12 l 433 12 q 332 12 257 -13 q 181 -38 131 -84 q 81 -130 56 -193 q 31 -257 31 -334 l 31 -334 q 31 -404 62 -459 q 93 -515 154 -548 q 215 -581 305 -581 l 305 -581 q 377 -581 436 -553 q 494 -526 532 -459 l 532 -459 l 392 -396 q 371 -428 351 -440 q 331 -453 305 -453 l 305 -453 q 280 -453 260 -439 q 240 -425 229 -399 q 218 -373 218 -335 l 218 -335 q 218 -272 244 -221 q 269 -171 319 -141 q 368 -111 439 -111 l 439 -111 q 462 -111 484 -114 q 505 -117 524 -123 l 524 -123 q 533 -126 544 -127 q 555 -129 563 -133 l 563 -133 q 597 -150 623 -180 q 648 -211 663 -251 q 677 -291 677 -338 l 677 -338 q 677 -379 667 -404 q 656 -430 639 -441 q 621 -453 601 -453 l 601 -453 q 580 -453 563 -441 q 545 -430 535 -404 q 524 -379 524 -336 l 524 -336 q 524 -292 538 -252 q 552 -212 579 -181 q 605 -150 641 -131 l 641 -131 q 652 -126 664 -125 q 675 -124 688 -121 l 688 -121 q 705 -117 725 -114 q 745 -111 783 -111 l 783 -111 q 841 -111 882 -130 q 922 -149 944 -183 q 965 -218 965 -263 l 965 -263 q 965 -292 958 -319 q 951 -346 933 -378 q 915 -411 881 -456 l 881 -456 q 844 -506 824 -540 q 803 -574 795 -602 q 787 -631 787 -662 l 787 -662 q 787 -704 808 -735 q 829 -767 870 -785 q 910 -803 966 -803 l 966 -803 q 1013 -803 1049 -798 q 1084 -793 1110 -785 l 1110 -785 l 1080 -665 q 1067 -670 1049 -674 q 1030 -678 1011 -678 l 1011 -678 q 994 -678 984 -670 q 973 -662 973 -646 l 973 -646 q 973 -633 978 -620 q 983 -607 997 -587 q 1011 -568 1039 -532 l 1039 -532 q 1078 -483 1104 -438 q 1130 -394 1143 -350 q 1155 -307 1155 -258 l 1155 -258 q 1155 -227 1146 -190 q 1136 -154 1112 -118 q 1088 -83 1046 -53 q 1003 -24 938 -6 q 873 12 781 12 z"},"ൖ":{"ha":884,"x_min":30,"x_max":854,"o":"m 331 -190 l 331 -190 q 331 -163 341 -146 q 351 -130 370 -122 q 388 -115 413 -115 l 413 -115 q 448 -115 464 -126 q 479 -138 479 -160 l 479 -160 q 479 -185 468 -211 q 456 -237 442 -266 q 427 -295 416 -328 q 404 -361 404 -401 l 404 -401 q 404 -456 433 -496 q 462 -537 509 -559 q 556 -581 609 -581 l 609 -581 q 700 -581 754 -553 q 807 -525 831 -481 q 854 -437 854 -387 l 854 -387 q 854 -319 817 -267 q 780 -215 703 -186 q 625 -157 503 -157 l 503 -157 l 429 -157 q 385 -157 344 -162 q 302 -167 261 -176 l 261 -176 l 209 -184 q 158 -200 118 -228 q 77 -256 54 -299 q 30 -342 30 -404 l 30 -404 q 30 -448 47 -493 q 63 -538 95 -581 l 95 -581 l 240 -511 q 225 -486 218 -463 q 211 -441 211 -412 l 211 -412 q 211 -375 219 -357 q 226 -340 242 -320 l 242 -320 l 299 -293 q 329 -280 365 -275 q 401 -270 440 -270 l 440 -270 l 474 -270 q 548 -270 591 -286 q 633 -303 652 -332 q 670 -362 670 -400 l 670 -400 q 670 -427 658 -444 q 645 -462 619 -462 l 619 -462 q 603 -462 592 -454 q 581 -447 576 -435 q 570 -424 570 -410 l 570 -410 q 570 -377 583 -347 q 596 -317 614 -286 q 631 -255 644 -220 q 657 -185 657 -142 l 657 -142 q 657 -112 647 -84 q 636 -57 610 -35 q 584 -13 536 0 q 488 12 413 12 l 413 12 q 341 12 287 -9 q 232 -30 202 -74 q 171 -118 171 -185 l 171 -185 q 171 -227 183 -270 q 194 -313 217 -363 q 240 -413 274 -476 l 274 -476 q 294 -512 308 -539 q 321 -567 328 -589 q 335 -611 335 -628 l 335 -628 q 335 -651 323 -663 q 311 -676 285 -676 l 285 -676 q 262 -676 245 -673 q 227 -670 216 -668 l 216 -668 l 186 -782 q 215 -791 253 -797 q 291 -803 332 -803 l 332 -803 q 406 -803 447 -781 q 487 -760 503 -726 q 519 -692 519 -654 l 519 -654 q 519 -627 514 -602 q 509 -578 497 -551 q 485 -525 466 -491 q 446 -457 417 -410 l 417 -410 q 392 -369 375 -336 q 358 -303 349 -276 q 339 -250 335 -229 q 331 -208 331 -190 z"},"ൗ":{"ha":877,"x_min":30,"x_max":842,"o":"m 590 -581 l 590 -581 q 668 -581 725 -549 q 781 -517 812 -456 q 842 -395 842 -307 l 842 -307 q 842 -207 806 -135 q 770 -64 697 -26 q 624 12 514 12 l 514 12 q 424 12 360 -3 q 295 -18 237 -47 l 237 -47 l 303 -165 q 357 -138 399 -128 q 441 -118 493 -118 l 493 -118 q 551 -118 586 -138 q 621 -159 637 -201 q 652 -244 652 -308 l 652 -308 q 652 -382 630 -417 q 608 -453 576 -453 l 576 -453 q 564 -453 555 -449 q 546 -446 540 -439 l 540 -439 q 530 -427 527 -407 q 523 -388 523 -353 l 523 -353 l 523 -268 l 338 -268 l 338 -345 q 338 -377 334 -402 q 330 -427 318 -439 l 318 -439 q 310 -447 301 -450 q 292 -453 281 -453 l 281 -453 q 253 -453 235 -433 q 217 -413 217 -376 l 217 -376 q 217 -352 221 -331 q 225 -311 231 -293 l 231 -293 l 51 -254 q 41 -285 36 -318 q 30 -352 30 -380 l 30 -380 q 30 -434 56 -479 q 81 -525 133 -553 q 185 -581 266 -581 l 266 -581 q 329 -581 370 -562 q 411 -543 441 -514 l 441 -514 l 419 -514 q 454 -552 497 -566 q 540 -581 590 -581 z"},"൘":{"ha":1395,"x_min":35,"x_max":1357,"o":"m 689 12 l 689 12 q 622 12 577 -8 q 531 -29 496 -67 l 496 -67 l 520 -59 q 475 -22 431 -5 q 386 12 321 12 l 321 12 q 228 12 164 -26 q 100 -64 68 -128 q 35 -193 35 -272 l 35 -272 q 35 -334 50 -384 q 65 -435 96 -482 q 126 -530 173 -581 l 173 -581 l 314 -500 q 282 -456 263 -419 q 243 -382 234 -346 q 225 -311 225 -270 l 225 -270 q 225 -215 242 -181 q 259 -148 285 -132 q 311 -117 336 -117 l 336 -117 q 356 -117 371 -124 q 385 -131 392 -141 l 392 -141 q 406 -158 411 -186 q 415 -214 415 -253 l 415 -253 l 415 -569 l 602 -569 l 602 -264 q 602 -212 608 -185 q 614 -158 628 -142 l 628 -142 q 639 -130 654 -123 q 669 -117 688 -117 l 688 -117 q 708 -117 724 -123 q 739 -129 749 -140 l 749 -140 q 763 -156 769 -182 q 775 -208 775 -256 l 775 -256 l 775 -569 l 962 -569 l 962 -272 l 878 -70 q 835 -24 791 -6 q 746 12 689 12 z m 1059 12 l 1059 12 q 995 12 950 -6 q 905 -24 860 -63 l 860 -63 l 785 -260 l 785 -559 l 962 -559 l 962 -242 q 962 -202 967 -180 q 971 -158 985 -141 l 985 -141 q 994 -131 1009 -124 q 1023 -117 1044 -117 l 1044 -117 q 1082 -117 1110 -143 q 1137 -170 1152 -217 q 1167 -264 1167 -324 l 1167 -324 q 1167 -391 1153 -450 q 1139 -510 1109 -558 q 1078 -607 1027 -642 q 976 -677 903 -696 q 830 -715 731 -715 l 731 -715 q 659 -715 585 -706 q 510 -698 459 -685 l 459 -685 l 437 -819 q 481 -829 529 -835 q 577 -842 630 -845 q 683 -849 741 -849 l 741 -849 q 874 -849 976 -823 q 1077 -797 1150 -749 q 1222 -701 1268 -636 q 1314 -572 1336 -494 q 1357 -416 1357 -330 l 1357 -330 q 1357 -224 1323 -147 q 1289 -71 1223 -29 q 1157 12 1059 12 z"},"൙":{"ha":1321,"x_min":35,"x_max":1303,"o":"m 417 -581 l 417 -581 q 523 -581 601 -553 q 679 -525 730 -477 q 780 -429 805 -367 q 829 -305 829 -237 l 829 -237 q 829 -154 799 -98 q 769 -43 712 -15 q 654 12 570 12 l 570 12 q 483 12 433 -13 q 383 -39 362 -80 q 341 -122 341 -168 l 341 -168 q 341 -224 366 -262 q 391 -301 429 -322 l 429 -322 q 456 -337 487 -345 q 517 -353 559 -356 q 600 -360 659 -360 l 659 -360 l 765 -360 l 765 -232 l 646 -232 q 607 -232 585 -229 q 563 -226 548 -216 l 548 -216 q 536 -209 530 -197 q 523 -185 523 -167 l 523 -167 q 523 -144 536 -128 q 548 -112 575 -112 l 575 -112 q 596 -112 613 -123 q 629 -134 638 -160 q 647 -186 647 -232 l 647 -232 q 647 -252 646 -269 q 644 -287 642 -302 l 642 -302 l 640 -334 q 627 -367 601 -393 q 575 -420 534 -435 q 492 -451 431 -451 l 431 -451 q 364 -451 319 -431 q 273 -411 250 -373 q 227 -335 227 -281 l 227 -281 q 227 -241 238 -206 q 249 -171 270 -137 q 290 -104 320 -69 l 320 -69 l 181 12 q 138 -27 105 -70 q 72 -114 54 -166 q 35 -219 35 -284 l 35 -284 q 35 -337 55 -390 q 75 -443 120 -486 q 165 -529 238 -555 q 311 -581 417 -581 z m 1089 -569 l 1089 -569 q 1167 -569 1214 -546 q 1261 -523 1282 -485 q 1303 -448 1303 -406 l 1303 -406 q 1303 -356 1285 -322 q 1267 -288 1236 -269 l 1236 -269 q 1210 -253 1181 -245 q 1151 -237 1116 -234 q 1081 -232 1035 -232 l 1035 -232 l 737 -232 l 737 -360 l 1045 -360 q 1082 -360 1097 -362 q 1111 -365 1120 -371 l 1120 -371 q 1128 -376 1132 -384 q 1136 -393 1136 -403 l 1136 -403 q 1136 -422 1124 -433 q 1112 -444 1091 -444 l 1091 -444 q 1063 -444 1051 -428 q 1038 -413 1038 -392 l 1038 -392 q 1038 -364 1051 -344 q 1063 -325 1079 -309 l 1079 -309 l 914 -302 q 899 -322 889 -351 q 878 -381 878 -407 l 878 -407 q 878 -461 905 -497 q 932 -533 980 -551 q 1027 -569 1089 -569 z"},"൚":{"ha":1228,"x_min":35,"x_max":1177,"o":"m 788 -581 l 788 -581 q 880 -581 952 -563 q 1024 -545 1073 -507 l 1073 -507 q 1107 -481 1130 -447 q 1153 -414 1165 -366 q 1177 -318 1177 -245 l 1177 -245 l 1177 0 l 609 0 l 609 -122 q 650 -163 682 -205 q 714 -248 733 -293 q 752 -338 752 -387 l 752 -387 q 752 -404 748 -418 q 743 -432 734 -440 q 724 -448 707 -448 l 707 -448 q 685 -448 669 -438 q 653 -428 641 -409 l 641 -409 q 629 -391 622 -357 q 615 -324 615 -276 l 615 -276 l 615 -230 l 428 -230 l 428 -320 q 428 -358 424 -384 q 419 -411 405 -427 l 405 -427 q 396 -437 382 -444 q 367 -452 344 -452 l 344 -452 q 316 -452 289 -436 q 261 -421 243 -387 q 225 -354 225 -298 l 225 -298 q 225 -259 234 -223 q 243 -188 263 -151 q 282 -114 314 -69 l 314 -69 l 173 12 q 126 -39 96 -86 q 65 -134 50 -185 q 35 -236 35 -297 l 35 -297 q 35 -377 69 -441 q 102 -505 168 -543 q 233 -581 329 -581 l 329 -581 q 373 -581 411 -573 q 449 -565 484 -549 q 519 -533 553 -509 l 553 -509 l 518 -493 q 552 -523 593 -542 q 634 -562 683 -571 q 732 -581 788 -581 z m 937 -363 l 937 -363 q 937 -317 921 -275 q 905 -234 877 -195 q 849 -157 812 -120 l 812 -120 l 794 -122 q 816 -126 839 -126 q 862 -127 887 -127 l 887 -127 l 991 -127 l 991 -240 q 991 -306 981 -348 q 971 -391 949 -417 q 927 -443 891 -459 l 891 -459 l 893 -470 q 914 -450 926 -425 q 937 -400 937 -363 z"},"൛":{"ha":1097,"x_min":55,"x_max":1062,"o":"m 708 12 l 708 12 q 611 12 543 -14 q 475 -40 434 -83 q 393 -127 374 -179 q 355 -232 355 -285 l 355 -285 q 355 -343 371 -383 q 386 -423 416 -458 q 445 -493 486 -534 l 486 -534 l 439 -441 l 242 -441 l 242 0 l 55 0 l 55 -569 l 566 -569 l 626 -485 q 603 -458 585 -427 q 566 -397 556 -362 q 545 -328 545 -288 l 545 -288 q 545 -236 565 -197 q 584 -159 621 -138 q 657 -117 707 -117 l 707 -117 q 754 -117 791 -137 q 828 -157 849 -195 q 870 -234 870 -288 l 870 -288 q 870 -329 860 -364 q 849 -399 828 -432 q 807 -465 777 -500 l 777 -500 l 916 -581 q 960 -543 993 -499 q 1025 -455 1044 -402 q 1062 -350 1062 -285 l 1062 -285 q 1062 -235 1044 -183 q 1025 -131 984 -86 q 943 -42 875 -15 q 807 12 708 12 z"},"൜":{"ha":1736,"x_min":35,"x_max":1701,"o":"m 1048 -581 l 1048 -581 q 1118 -581 1170 -564 q 1221 -548 1255 -515 l 1255 -515 q 1277 -494 1291 -466 q 1305 -438 1312 -399 q 1319 -360 1319 -303 l 1319 -303 l 1319 -264 q 1319 -219 1325 -187 q 1330 -155 1349 -137 l 1349 -137 q 1359 -127 1374 -122 q 1388 -117 1407 -117 l 1407 -117 q 1435 -117 1459 -131 q 1482 -145 1497 -179 q 1511 -214 1511 -273 l 1511 -273 q 1511 -313 1502 -348 q 1493 -384 1474 -420 q 1454 -457 1423 -500 l 1423 -500 l 1562 -581 q 1607 -530 1638 -482 q 1669 -435 1685 -383 q 1701 -332 1701 -269 l 1701 -269 q 1701 -186 1667 -122 q 1632 -59 1568 -23 q 1503 12 1411 12 l 1411 12 q 1340 12 1292 -2 q 1244 -16 1209 -44 l 1209 -44 q 1181 -67 1163 -99 q 1145 -131 1137 -175 q 1128 -219 1128 -278 l 1128 -278 l 1128 -296 q 1128 -358 1123 -387 q 1118 -416 1101 -432 l 1101 -432 q 1091 -442 1078 -447 q 1065 -452 1046 -452 l 1046 -452 q 1024 -452 1010 -445 q 995 -438 985 -425 l 985 -425 q 972 -407 968 -376 q 963 -346 963 -295 l 963 -295 l 963 -265 q 963 -211 956 -171 q 949 -132 935 -104 q 921 -76 899 -54 l 899 -54 q 864 -20 813 -4 q 761 12 688 12 l 688 12 q 614 12 565 -4 q 515 -20 481 -53 l 481 -53 q 459 -75 445 -102 q 431 -130 424 -169 q 417 -209 417 -265 l 417 -265 l 417 -305 q 417 -342 412 -378 q 406 -414 387 -432 l 387 -432 q 377 -442 363 -447 q 349 -452 329 -452 l 329 -452 q 302 -452 278 -438 q 254 -424 240 -390 q 225 -356 225 -296 l 225 -296 q 225 -256 234 -220 q 243 -185 263 -148 q 282 -112 313 -69 l 313 -69 l 174 12 q 130 -39 99 -86 q 67 -134 51 -185 q 35 -237 35 -300 l 35 -300 q 35 -383 70 -446 q 104 -510 169 -545 q 234 -581 325 -581 l 325 -581 q 396 -581 445 -567 q 493 -553 527 -525 l 527 -525 q 555 -503 573 -470 q 591 -438 600 -394 q 608 -350 608 -291 l 608 -291 l 608 -271 q 608 -211 614 -182 q 619 -154 635 -137 l 635 -137 q 645 -127 658 -122 q 671 -117 690 -117 l 690 -117 q 712 -117 727 -124 q 741 -131 751 -144 l 751 -144 q 765 -162 769 -192 q 773 -222 773 -270 l 773 -270 l 773 -305 q 773 -359 780 -398 q 787 -438 802 -466 q 816 -495 838 -516 l 838 -516 q 874 -550 926 -565 q 978 -581 1048 -581 z"},"൝":{"ha":2265,"x_min":8,"x_max":2230,"o":"m 866 -581 l 866 -581 q 936 -581 988 -564 q 1039 -548 1073 -515 l 1073 -515 q 1095 -494 1109 -466 q 1123 -438 1130 -399 q 1137 -360 1137 -303 l 1137 -303 l 1137 -271 q 1137 -211 1143 -182 q 1148 -154 1164 -137 l 1164 -137 q 1174 -127 1187 -122 q 1200 -117 1219 -117 l 1219 -117 q 1241 -117 1256 -124 q 1270 -131 1280 -144 l 1280 -144 q 1294 -162 1298 -192 q 1302 -222 1302 -270 l 1302 -270 l 1302 -305 q 1302 -359 1309 -398 q 1316 -438 1331 -466 q 1345 -495 1367 -516 l 1367 -516 q 1403 -550 1455 -565 q 1507 -581 1577 -581 l 1577 -581 q 1647 -581 1699 -564 q 1750 -548 1784 -515 l 1784 -515 q 1806 -494 1820 -466 q 1834 -438 1841 -399 q 1848 -360 1848 -303 l 1848 -303 l 1848 -264 q 1848 -219 1854 -187 q 1859 -155 1878 -137 l 1878 -137 q 1888 -127 1903 -122 q 1917 -117 1936 -117 l 1936 -117 q 1964 -117 1988 -131 q 2011 -145 2026 -179 q 2040 -214 2040 -273 l 2040 -273 q 2040 -313 2031 -348 q 2022 -384 2003 -420 q 1983 -457 1952 -500 l 1952 -500 l 2091 -581 q 2136 -530 2167 -482 q 2198 -435 2214 -383 q 2230 -332 2230 -269 l 2230 -269 q 2230 -186 2196 -122 q 2161 -59 2097 -23 q 2032 12 1940 12 l 1940 12 q 1869 12 1821 -2 q 1773 -16 1738 -44 l 1738 -44 q 1710 -67 1692 -99 q 1674 -131 1666 -175 q 1657 -219 1657 -278 l 1657 -278 l 1657 -296 q 1657 -358 1652 -387 q 1647 -416 1630 -432 l 1630 -432 q 1620 -442 1607 -447 q 1594 -452 1575 -452 l 1575 -452 q 1553 -452 1539 -445 q 1524 -438 1514 -425 l 1514 -425 q 1501 -407 1497 -376 q 1492 -346 1492 -295 l 1492 -295 l 1492 -265 q 1492 -211 1485 -171 q 1478 -132 1464 -104 q 1450 -76 1428 -54 l 1428 -54 q 1393 -20 1342 -4 q 1290 12 1217 12 l 1217 12 q 1143 12 1094 -4 q 1044 -20 1010 -53 l 1010 -53 q 988 -75 974 -102 q 960 -130 953 -169 q 946 -209 946 -265 l 946 -265 l 946 -296 q 946 -358 941 -387 q 936 -416 919 -432 l 919 -432 q 909 -442 896 -447 q 883 -452 864 -452 l 864 -452 q 842 -452 828 -445 q 813 -438 803 -425 l 803 -425 q 790 -407 786 -376 q 781 -346 781 -295 l 781 -295 l 781 -266 q 781 -185 763 -131 q 744 -78 701 -43 l 701 -43 q 667 -15 622 -1 q 577 12 524 12 l 524 12 q 454 12 405 -7 q 356 -26 314 -68 l 314 -68 l 330 -63 q 301 -35 276 -18 q 250 -2 221 5 q 191 12 150 12 l 150 12 q 110 12 77 3 q 43 -6 8 -25 l 8 -25 l 52 -142 q 70 -132 92 -124 q 114 -117 140 -117 l 140 -117 q 165 -117 180 -124 q 194 -131 203 -141 l 203 -141 q 217 -156 223 -179 q 228 -202 228 -241 l 228 -241 l 228 -569 l 415 -569 l 415 -256 q 415 -210 420 -183 q 424 -156 440 -140 l 440 -140 q 452 -128 467 -122 q 481 -117 502 -117 l 502 -117 q 523 -117 537 -123 q 550 -129 560 -138 l 560 -138 q 579 -156 585 -188 q 590 -220 590 -276 l 590 -276 l 590 -305 q 590 -359 597 -398 q 604 -438 619 -466 q 634 -495 656 -516 l 656 -516 q 692 -550 744 -565 q 796 -581 866 -581 z"},"൞":{"ha":1597,"x_min":35,"x_max":1571,"o":"m 417 -581 l 417 -581 q 523 -581 601 -553 q 679 -525 730 -477 q 780 -429 805 -367 q 829 -305 829 -237 l 829 -237 q 829 -154 799 -98 q 769 -43 712 -15 q 654 12 570 12 l 570 12 q 483 12 433 -13 q 383 -39 362 -80 q 341 -122 341 -168 l 341 -168 q 341 -224 366 -262 q 391 -301 429 -322 l 429 -322 q 456 -337 487 -345 q 517 -353 559 -356 q 600 -360 659 -360 l 659 -360 l 765 -360 l 765 -232 l 646 -232 q 607 -232 585 -229 q 563 -226 548 -216 l 548 -216 q 536 -209 530 -197 q 523 -185 523 -167 l 523 -167 q 523 -144 536 -128 q 548 -112 575 -112 l 575 -112 q 596 -112 613 -123 q 629 -134 638 -160 q 647 -186 647 -232 l 647 -232 q 647 -252 646 -269 q 644 -287 642 -302 l 642 -302 l 640 -334 q 627 -367 601 -393 q 575 -420 534 -435 q 492 -451 431 -451 l 431 -451 q 364 -451 319 -431 q 273 -411 250 -373 q 227 -335 227 -281 l 227 -281 q 227 -241 238 -206 q 249 -171 270 -137 q 290 -104 320 -69 l 320 -69 l 181 12 q 138 -27 105 -70 q 72 -114 54 -166 q 35 -219 35 -284 l 35 -284 q 35 -337 55 -390 q 75 -443 120 -486 q 165 -529 238 -555 q 311 -581 417 -581 z m 1313 -197 l 1313 -197 q 1224 -197 1168 -227 q 1112 -257 1086 -303 q 1060 -349 1060 -396 l 1060 -396 q 1060 -419 1065 -445 q 1070 -471 1080 -493 l 1080 -493 l 1077 -441 l 945 -441 l 968 -496 q 982 -480 992 -455 q 1001 -430 1001 -398 l 1001 -398 q 1001 -345 976 -307 q 951 -270 902 -251 q 852 -232 778 -232 l 778 -232 l 730 -232 l 730 -360 l 784 -360 q 809 -360 824 -366 q 838 -372 844 -382 q 850 -393 850 -405 l 850 -405 q 850 -419 846 -431 q 841 -444 833 -452 l 833 -452 l 878 -569 l 1206 -569 l 1269 -499 q 1259 -483 1249 -459 q 1238 -436 1238 -406 l 1238 -406 q 1238 -375 1255 -349 q 1272 -324 1311 -324 l 1311 -324 q 1337 -324 1354 -335 q 1370 -346 1378 -365 q 1386 -384 1386 -409 l 1386 -409 q 1386 -440 1375 -468 q 1364 -496 1346 -524 l 1346 -524 l 1490 -582 q 1526 -545 1549 -499 q 1571 -454 1571 -399 l 1571 -399 q 1571 -336 1538 -291 q 1505 -246 1447 -221 q 1389 -197 1313 -197 z"},"ൟ":{"ha":1561,"x_min":23,"x_max":1538,"o":"m 23 -273 l 23 -273 q 23 -334 67 -374 q 110 -415 187 -415 l 187 -415 q 264 -415 308 -375 q 352 -335 352 -273 l 352 -273 q 352 -213 309 -172 q 266 -131 187 -131 l 187 -131 q 108 -131 66 -172 q 23 -213 23 -273 z m 141 -273 l 141 -273 q 141 -254 153 -241 q 164 -228 187 -228 l 187 -228 q 210 -228 222 -241 q 234 -255 234 -274 l 234 -274 q 234 -294 221 -306 q 208 -318 187 -318 l 187 -318 q 165 -318 153 -305 q 141 -293 141 -273 z m 1209 -273 l 1209 -273 q 1209 -334 1253 -374 q 1296 -415 1373 -415 l 1373 -415 q 1450 -415 1494 -375 q 1538 -335 1538 -273 l 1538 -273 q 1538 -213 1495 -172 q 1452 -131 1373 -131 l 1373 -131 q 1294 -131 1252 -172 q 1209 -213 1209 -273 z m 1327 -273 l 1327 -273 q 1327 -254 1339 -241 q 1350 -228 1373 -228 l 1373 -228 q 1396 -228 1408 -241 q 1420 -255 1420 -274 l 1420 -274 q 1420 -294 1407 -306 q 1394 -318 1373 -318 l 1373 -318 q 1351 -318 1339 -305 q 1327 -293 1327 -273 z m 766 -581 l 766 -581 q 872 -581 950 -553 q 1028 -525 1079 -477 q 1129 -429 1154 -367 q 1178 -305 1178 -237 l 1178 -237 q 1178 -157 1148 -101 q 1118 -46 1060 -17 q 1001 12 916 12 l 916 12 q 831 12 778 -18 q 725 -48 701 -97 q 676 -147 676 -205 l 676 -205 q 676 -300 731 -355 q 785 -410 884 -410 l 884 -410 q 947 -410 994 -379 q 1040 -349 1068 -302 q 1095 -255 1099 -205 l 1099 -205 l 1026 -203 q 1021 -227 1009 -248 q 996 -269 977 -282 q 957 -295 930 -295 l 930 -295 q 894 -295 875 -272 q 856 -250 856 -205 l 856 -205 q 856 -174 864 -154 q 872 -135 887 -125 q 901 -116 919 -116 l 919 -116 q 944 -116 961 -129 q 978 -142 987 -170 q 995 -198 995 -242 l 995 -242 q 995 -257 994 -273 q 992 -290 990 -305 l 990 -305 q 989 -309 991 -317 q 993 -325 991 -329 l 991 -329 q 986 -363 960 -390 q 933 -418 888 -434 q 843 -451 780 -451 l 780 -451 q 713 -451 668 -431 q 622 -411 599 -373 q 576 -335 576 -281 l 576 -281 q 576 -241 587 -206 q 598 -171 619 -137 q 639 -104 669 -69 l 669 -69 l 530 12 q 487 -27 454 -70 q 421 -114 403 -166 q 384 -219 384 -284 l 384 -284 q 384 -337 404 -390 q 424 -443 469 -486 q 514 -529 587 -555 q 660 -581 766 -581 z"},"ൠ":{"ha":1061,"x_min":30,"x_max":1031,"o":"m 779 -581 l 779 -581 q 898 -581 965 -515 q 1031 -449 1031 -339 l 1031 -339 q 1031 -269 1005 -215 q 978 -162 929 -127 l 929 -127 q 877 -90 806 -75 q 735 -61 650 -61 l 650 -61 l 593 -61 l 471 -61 l 411 -61 q 326 -61 255 -75 q 184 -90 132 -127 l 132 -127 q 83 -162 57 -215 q 30 -269 30 -339 l 30 -339 q 30 -412 60 -466 q 90 -521 148 -551 q 205 -581 288 -581 l 288 -581 q 362 -581 412 -555 q 461 -530 486 -488 q 511 -446 511 -395 l 511 -395 q 511 -333 485 -294 q 459 -256 410 -238 q 360 -221 290 -221 l 290 -221 q 248 -221 210 -237 q 172 -254 141 -280 q 110 -306 86 -332 l 86 -332 l 130 -426 q 152 -400 172 -379 q 192 -358 215 -346 q 238 -334 266 -334 l 266 -334 q 292 -334 312 -348 q 331 -362 331 -399 l 331 -399 q 331 -429 316 -445 q 301 -461 274 -461 l 274 -461 q 253 -461 236 -447 q 219 -434 209 -408 q 199 -383 199 -345 l 199 -345 q 199 -332 200 -321 q 201 -310 203 -299 l 203 -299 l 203 -274 q 217 -240 247 -219 q 276 -199 319 -189 q 361 -179 412 -176 q 463 -173 520 -173 l 520 -173 l 539 -173 q 595 -173 647 -176 q 698 -179 741 -189 q 784 -199 815 -219 q 845 -240 858 -274 l 858 -274 l 858 -297 q 860 -309 861 -320 q 862 -332 862 -345 l 862 -345 q 862 -383 853 -408 q 843 -434 826 -447 q 809 -461 788 -461 l 788 -461 q 760 -461 745 -445 q 730 -429 730 -399 l 730 -399 q 730 -362 750 -348 q 769 -334 795 -334 l 795 -334 q 824 -334 847 -346 q 869 -358 890 -379 q 910 -400 931 -426 l 931 -426 l 975 -332 q 952 -306 920 -280 q 888 -254 850 -237 q 812 -221 767 -221 l 767 -221 q 699 -221 650 -238 q 601 -256 576 -294 q 550 -333 550 -395 l 550 -395 q 550 -446 576 -488 q 601 -530 652 -555 q 703 -581 779 -581 z m 541 261 l 541 261 q 392 261 295 241 q 198 221 151 177 q 103 132 103 59 l 103 59 q 103 3 134 -33 q 165 -69 216 -90 q 266 -112 327 -120 q 387 -129 446 -129 l 446 -129 l 615 -129 q 674 -129 735 -120 q 795 -112 846 -90 q 896 -69 927 -33 q 958 3 958 59 l 958 59 q 958 132 912 177 q 865 221 773 241 q 680 261 541 261 z m 532 139 l 532 139 q 615 139 671 130 q 726 121 754 99 q 782 77 782 39 l 782 39 q 782 10 766 -8 q 749 -27 718 -37 q 687 -47 643 -51 q 599 -55 545 -55 l 545 -55 l 516 -55 q 444 -55 391 -48 q 337 -41 308 -20 q 279 0 279 39 l 279 39 q 279 77 307 99 q 335 121 392 130 q 448 139 532 139 z m 616 -42 l 616 -42 q 652 -42 676 -29 q 699 -17 712 3 q 724 22 729 44 q 734 65 734 83 l 734 83 l 734 109 l 633 109 l 633 101 q 633 81 629 68 q 624 55 607 55 l 607 55 q 588 55 584 69 q 579 82 579 100 l 579 100 l 579 109 l 482 109 l 482 100 q 482 80 477 68 q 472 55 455 55 l 455 55 q 436 55 432 70 q 428 84 428 101 l 428 101 l 428 109 l 327 109 l 327 83 q 327 65 332 44 q 336 22 349 3 q 361 -17 385 -29 q 408 -42 445 -42 l 445 -42 q 477 -42 496 -31 q 514 -21 530 -6 l 530 -6 q 548 -24 568 -33 q 588 -42 616 -42 z"},"ൡ":{"ha":1555,"x_min":33,"x_max":1530,"o":"m 422 -581 l 422 -581 q 516 -581 582 -558 q 648 -535 704 -480 l 704 -480 l 737 -404 l 761 -227 l 761 0 l 574 0 l 574 -273 q 574 -338 564 -371 q 554 -404 529 -424 l 529 -424 q 511 -438 484 -445 q 456 -453 418 -453 l 418 -453 q 360 -453 311 -429 q 261 -405 232 -358 q 202 -312 202 -244 l 202 -244 l 202 -240 q 202 -188 212 -159 q 222 -130 238 -119 q 254 -108 273 -108 l 273 -108 q 290 -108 302 -114 q 313 -121 319 -135 q 325 -150 325 -173 l 325 -173 q 325 -205 310 -222 q 294 -240 267 -240 l 267 -240 q 233 -240 207 -220 q 180 -200 139 -156 l 139 -156 l 118 -276 q 158 -310 205 -334 q 252 -359 316 -359 l 316 -359 q 380 -359 422 -336 q 464 -313 485 -273 q 506 -233 506 -180 l 506 -180 q 506 -121 481 -77 q 456 -34 406 -11 q 355 12 278 12 l 278 12 q 209 12 154 -14 q 98 -41 66 -97 q 33 -154 33 -244 l 33 -244 q 33 -352 85 -427 q 136 -503 224 -542 q 312 -581 422 -581 z m 938 -581 l 938 -581 q 1028 -581 1103 -553 q 1178 -526 1230 -470 q 1281 -414 1302 -326 l 1302 -326 q 1307 -304 1310 -281 q 1313 -258 1313 -232 l 1313 -232 q 1313 -148 1286 -94 q 1258 -40 1203 -14 q 1147 12 1062 12 l 1062 12 q 989 12 936 -13 q 883 -38 854 -83 q 825 -128 825 -189 l 825 -189 q 825 -296 906 -353 q 987 -411 1132 -411 l 1132 -411 q 1151 -411 1169 -410 q 1187 -409 1205 -407 l 1205 -407 l 1250 -404 q 1338 -389 1401 -348 q 1463 -308 1497 -246 q 1530 -184 1530 -104 l 1530 -104 q 1530 -46 1513 9 q 1495 64 1454 107 q 1412 150 1342 176 q 1272 201 1167 201 l 1167 201 q 1120 201 1072 194 q 1024 187 982 173 l 982 173 l 1031 52 q 1066 62 1097 66 q 1127 70 1161 70 l 1161 70 q 1221 70 1259 53 q 1297 36 1317 9 q 1337 -18 1345 -48 q 1352 -79 1352 -106 l 1352 -106 q 1352 -153 1341 -187 q 1329 -222 1306 -245 q 1283 -268 1250 -280 l 1250 -280 l 1214 -286 q 1198 -289 1181 -290 q 1163 -292 1143 -292 l 1143 -292 q 1093 -292 1063 -277 q 1032 -263 1019 -238 q 1005 -214 1005 -184 l 1005 -184 q 1005 -161 1012 -144 q 1019 -128 1033 -120 q 1047 -112 1066 -112 l 1066 -112 q 1101 -112 1121 -138 q 1141 -164 1141 -233 l 1141 -233 q 1141 -257 1138 -279 q 1135 -301 1129 -321 l 1129 -321 l 1112 -372 q 1094 -396 1070 -413 q 1046 -431 1013 -441 q 980 -451 934 -451 l 934 -451 q 892 -451 865 -441 q 838 -431 818 -416 l 818 -416 q 794 -397 782 -369 q 769 -342 765 -308 q 761 -275 761 -238 l 761 -238 l 761 -212 l 628 -450 q 660 -484 701 -513 q 742 -543 800 -562 q 858 -581 938 -581 z"},"ൢ":{"ha":0,"x_min":-965,"x_max":-31,"o":"m -680 -31 l -680 -31 q -604 -31 -548 -4 q -492 22 -455 78 l -455 78 l -420 168 l -420 334 l -570 334 l -570 195 q -570 154 -576 129 q -582 104 -598 89 l -598 89 q -611 76 -633 69 q -655 62 -687 62 l -687 62 q -723 62 -751 69 q -780 76 -799 93 q -819 109 -828 137 l -828 137 q -830 146 -831 156 q -833 166 -833 178 l -833 178 q -833 221 -816 234 q -800 246 -785 246 l -785 246 q -764 246 -753 237 q -743 227 -743 209 l -743 209 q -743 190 -755 182 q -767 173 -787 173 l -787 173 q -817 173 -841 189 q -865 204 -894 233 l -894 233 l -917 157 q -885 127 -841 106 q -798 84 -752 84 l -752 84 q -679 84 -646 117 q -613 150 -613 203 l -613 203 q -613 264 -652 301 q -692 337 -776 337 l -776 337 q -867 337 -916 293 q -965 248 -965 170 l -965 170 q -965 102 -925 58 q -885 13 -820 -9 q -755 -31 -680 -31 z m -308 -31 l -308 -31 q -233 -31 -170 -8 q -107 14 -69 60 q -31 105 -31 175 l -31 175 q -31 257 -76 297 q -121 337 -211 337 l -211 337 q -268 337 -304 318 q -340 298 -356 267 q -373 235 -373 198 l -373 198 q -373 157 -355 129 q -337 101 -304 86 q -272 71 -229 71 l -229 71 q -197 71 -170 85 q -143 99 -118 129 q -94 158 -72 203 l -72 203 l -136 209 q -141 190 -157 170 q -173 149 -199 149 l -199 149 q -219 149 -230 161 q -241 173 -241 197 l -241 197 q -241 220 -231 233 q -222 246 -206 246 l -206 246 q -186 246 -175 231 q -164 216 -164 176 l -164 176 q -164 162 -166 151 q -168 139 -172 129 l -172 129 l -181 110 q -192 93 -209 83 q -226 72 -248 67 q -270 62 -296 62 l -296 62 q -324 62 -346 68 q -368 73 -384 87 l -384 87 q -400 100 -409 124 q -418 148 -420 194 l -420 194 l -542 160 q -532 83 -496 42 q -461 0 -411 -15 q -361 -31 -308 -31 z"},"ൣ":{"ha":0,"x_min":-965,"x_max":116,"o":"m -680 -31 l -680 -31 q -604 -31 -548 -4 q -492 22 -455 78 l -455 78 l -420 168 l -420 334 l -570 334 l -570 195 q -570 154 -576 129 q -582 104 -598 89 l -598 89 q -611 76 -633 69 q -655 62 -687 62 l -687 62 q -723 62 -751 69 q -780 76 -799 93 q -819 109 -828 137 l -828 137 q -830 146 -831 156 q -833 166 -833 178 l -833 178 q -833 221 -816 234 q -800 246 -785 246 l -785 246 q -764 246 -753 237 q -743 227 -743 209 l -743 209 q -743 190 -755 182 q -767 173 -787 173 l -787 173 q -817 173 -841 189 q -865 204 -894 233 l -894 233 l -917 157 q -885 127 -841 106 q -798 84 -752 84 l -752 84 q -679 84 -646 117 q -613 150 -613 203 l -613 203 q -613 264 -652 301 q -692 337 -776 337 l -776 337 q -867 337 -916 293 q -965 248 -965 170 l -965 170 q -965 102 -925 58 q -885 13 -820 -9 q -755 -31 -680 -31 z m -308 -31 l -308 -31 q -235 -31 -173 -7 q -111 16 -73 61 q -35 106 -35 172 l -35 172 q -35 229 -54 266 q -74 302 -113 320 q -153 337 -213 337 l -213 337 q -269 337 -304 319 q -340 301 -356 271 q -373 240 -373 204 l -373 204 q -373 129 -313 95 q -254 61 -154 61 l -154 61 q -140 61 -125 62 q -110 62 -97 63 l -97 63 q -37 67 11 89 q 59 110 88 153 q 116 195 116 264 l 116 264 q 116 297 107 322 q 97 347 86 361 l 86 361 l -35 325 q -29 314 -24 295 q -19 276 -19 257 l -19 257 q -19 210 -34 185 q -49 160 -84 148 l -84 148 l -108 141 q -117 139 -126 139 q -136 138 -145 138 l -145 138 q -185 138 -213 151 q -241 163 -241 203 l -241 203 q -241 222 -231 234 q -222 246 -206 246 l -206 246 q -186 246 -175 232 q -164 217 -164 183 l -164 183 q -164 164 -166 152 q -168 139 -172 129 l -172 129 l -181 110 q -194 89 -215 79 q -236 68 -257 65 q -279 62 -296 62 l -296 62 q -324 62 -346 68 q -368 73 -384 87 l -384 87 q -400 100 -409 124 q -418 148 -420 194 l -420 194 l -542 160 q -535 102 -512 65 q -490 28 -457 7 q -425 -14 -386 -22 q -348 -31 -308 -31 z"},"൦":{"ha":648,"x_min":36,"x_max":612,"o":"m 324 -33 l 324 -33 q 236 -33 171 -62 q 106 -92 71 -147 q 36 -203 36 -281 l 36 -281 q 36 -358 72 -414 q 107 -471 172 -501 q 236 -532 323 -532 l 323 -532 q 420 -532 484 -499 q 548 -467 580 -410 q 612 -354 612 -281 l 612 -281 q 612 -207 578 -151 q 543 -95 479 -64 q 414 -33 324 -33 z m 323 -159 l 323 -159 q 355 -159 378 -173 q 401 -187 414 -214 q 426 -242 426 -282 l 426 -282 q 426 -344 398 -375 q 370 -406 323 -406 l 323 -406 q 277 -406 250 -375 q 222 -344 222 -282 l 222 -282 q 222 -222 249 -190 q 276 -159 323 -159 z"},"൧":{"ha":1011,"x_min":12,"x_max":959,"o":"m 433 77 l 433 206 l 283 206 q 216 206 172 200 q 127 194 90 175 l 90 175 q 55 157 34 124 q 12 91 12 42 l 12 42 q 12 -2 29 -33 q 45 -65 73 -84 l 73 -84 q 97 -101 126 -110 q 155 -120 193 -124 q 230 -128 281 -128 l 281 -128 l 512 -128 l 513 0 l 293 0 q 258 0 244 2 q 229 3 219 8 l 219 8 q 209 12 205 19 q 200 26 200 36 l 200 36 q 200 55 214 64 l 214 64 q 224 71 241 74 q 258 77 296 77 l 296 77 l 433 77 z m 660 -581 l 660 -581 q 730 -581 787 -562 q 844 -544 884 -506 l 884 -506 q 923 -469 941 -419 q 959 -370 959 -292 l 959 -292 l 959 0 l 361 0 l 361 -292 q 361 -345 370 -384 q 378 -424 396 -454 q 414 -485 440 -509 l 440 -509 q 481 -546 537 -563 q 593 -581 660 -581 z m 663 -451 l 663 -451 q 635 -451 615 -443 q 594 -436 579 -419 l 579 -419 q 562 -400 555 -369 q 547 -338 547 -287 l 547 -287 l 547 -128 l 773 -128 l 773 -285 q 773 -337 767 -369 q 760 -401 743 -420 l 743 -420 q 730 -436 712 -443 q 694 -451 663 -451 z"},"൨":{"ha":953,"x_min":35,"x_max":933,"o":"m 389 -581 l 389 -581 q 487 -581 555 -555 q 622 -529 663 -486 q 704 -443 723 -390 q 742 -337 742 -284 l 742 -284 q 742 -227 727 -186 q 711 -146 682 -111 q 652 -76 611 -35 l 611 -35 l 658 -128 l 933 -128 l 933 0 l 531 0 l 471 -84 q 495 -112 513 -142 q 531 -172 542 -206 q 552 -241 552 -281 l 552 -281 q 552 -334 533 -372 q 513 -410 477 -431 q 441 -452 390 -452 l 390 -452 q 343 -452 306 -432 q 269 -412 248 -374 q 227 -336 227 -281 l 227 -281 q 227 -241 238 -205 q 249 -170 270 -137 q 290 -104 320 -69 l 320 -69 l 181 12 q 138 -27 105 -70 q 72 -114 54 -166 q 35 -219 35 -284 l 35 -284 q 35 -334 54 -386 q 72 -438 113 -482 q 154 -527 222 -554 q 290 -581 389 -581 z"},"൩":{"ha":1218,"x_min":35,"x_max":1198,"o":"m 329 -581 l 329 -581 q 372 -581 406 -573 q 440 -566 470 -550 q 499 -535 529 -510 l 529 -510 l 513 -506 q 558 -545 605 -563 q 652 -581 720 -581 l 720 -581 q 812 -581 877 -544 q 941 -507 975 -443 q 1009 -380 1009 -299 l 1009 -299 q 1009 -261 1003 -228 q 997 -196 983 -165 q 969 -135 945 -104 l 945 -104 l 878 0 l 782 0 l 734 -65 q 764 -111 783 -148 q 802 -185 811 -220 q 819 -256 819 -295 l 819 -295 q 819 -353 802 -387 q 784 -422 757 -437 q 729 -452 699 -452 l 699 -452 q 678 -452 664 -445 q 649 -439 640 -428 l 640 -428 q 627 -413 621 -390 q 615 -367 615 -327 l 615 -327 l 615 0 l 428 0 l 428 -320 q 428 -358 424 -384 q 419 -411 405 -427 l 405 -427 q 396 -437 382 -444 q 367 -452 344 -452 l 344 -452 q 316 -452 289 -436 q 261 -421 243 -387 q 225 -354 225 -298 l 225 -298 q 225 -258 234 -222 q 243 -187 263 -150 q 282 -114 314 -69 l 314 -69 l 173 12 q 126 -39 96 -86 q 65 -134 50 -185 q 35 -236 35 -297 l 35 -297 q 35 -377 69 -441 q 102 -505 168 -543 q 233 -581 329 -581 z m 849 0 l 907 -128 l 1198 -128 l 1198 0 l 849 0 z"},"൪":{"ha":914,"x_min":35,"x_max":910,"o":"m 423 -581 l 423 -581 q 519 -581 592 -556 q 665 -531 728 -482 l 728 -482 q 781 -439 812 -377 q 842 -315 842 -240 l 842 -240 q 842 -159 814 -102 q 785 -46 726 -17 q 666 12 573 12 l 573 12 q 488 12 432 -15 q 376 -43 349 -89 q 321 -136 321 -193 l 321 -193 q 321 -255 348 -304 q 374 -353 434 -398 q 494 -443 592 -492 l 592 -492 q 641 -521 670 -540 q 699 -560 712 -580 q 725 -600 725 -629 l 725 -629 q 725 -644 720 -657 q 715 -671 707 -681 l 707 -681 l 873 -753 q 890 -728 900 -696 q 910 -664 910 -631 l 910 -631 q 910 -575 889 -537 q 868 -499 821 -465 q 774 -432 695 -390 l 695 -390 q 624 -352 583 -322 q 541 -293 524 -263 q 506 -234 506 -196 l 506 -196 q 506 -162 524 -139 q 541 -116 576 -116 l 576 -116 q 607 -116 624 -131 q 641 -146 648 -172 q 654 -198 654 -229 l 654 -229 q 654 -275 637 -325 q 619 -375 581 -406 l 581 -406 q 550 -432 515 -444 q 480 -457 425 -457 l 425 -457 q 363 -457 319 -435 q 274 -414 251 -374 q 227 -335 227 -281 l 227 -281 q 227 -241 238 -206 q 249 -171 270 -137 q 290 -104 320 -69 l 320 -69 l 181 12 q 138 -27 105 -70 q 72 -114 54 -166 q 35 -219 35 -284 l 35 -284 q 35 -337 55 -390 q 75 -443 121 -486 q 166 -529 241 -555 q 315 -581 423 -581 z"},"൫":{"ha":1151,"x_min":38,"x_max":1113,"o":"m 580 -732 l 580 -732 q 717 -732 818 -698 q 918 -664 984 -602 q 1049 -541 1081 -458 q 1113 -375 1113 -276 l 1113 -276 q 1113 -214 1094 -138 q 1074 -62 1031 12 l 1031 12 l 883 -53 q 900 -92 911 -123 q 922 -155 927 -189 q 932 -223 932 -269 l 932 -269 q 932 -340 912 -400 q 891 -461 849 -506 q 806 -552 741 -577 q 675 -603 585 -603 l 585 -603 q 475 -603 392 -565 q 309 -528 263 -452 q 217 -376 217 -259 l 217 -259 q 217 -201 231 -145 q 244 -90 276 -46 q 307 -3 360 23 q 412 49 489 49 l 489 49 q 582 49 629 15 q 675 -19 675 -79 l 675 -79 q 675 -108 663 -131 q 650 -154 625 -167 q 600 -181 562 -181 l 562 -181 l 552 -181 l 552 -306 l 569 -306 q 601 -306 620 -310 q 639 -314 651 -324 l 651 -324 q 659 -330 663 -339 q 667 -348 667 -360 l 667 -360 q 667 -384 648 -399 q 628 -414 594 -414 l 594 -414 q 554 -414 528 -393 q 501 -372 489 -337 q 476 -303 476 -262 l 476 -262 q 476 -205 490 -162 q 504 -119 535 -66 l 535 -66 l 383 11 q 340 -52 315 -122 q 289 -192 289 -268 l 289 -268 q 289 -352 327 -413 q 364 -475 434 -509 q 504 -543 601 -543 l 601 -543 q 684 -543 740 -521 q 796 -499 825 -462 q 853 -425 853 -378 l 853 -378 q 853 -350 843 -322 q 833 -294 807 -270 q 781 -247 732 -230 l 732 -230 l 744 -248 q 801 -222 831 -174 q 861 -127 861 -67 l 861 -67 q 861 15 816 70 q 771 124 689 151 q 607 178 494 178 l 494 178 q 351 178 249 127 q 146 75 92 -22 q 38 -119 38 -255 l 38 -255 q 38 -376 81 -466 q 123 -556 198 -615 q 272 -674 370 -703 q 468 -732 580 -732 z"},"൬":{"ha":1395,"x_min":35,"x_max":1357,"o":"m 689 -581 l 689 -581 q 746 -581 791 -563 q 835 -546 878 -499 l 878 -499 l 962 -297 l 962 0 l 775 0 l 775 -313 q 775 -361 769 -387 q 763 -413 749 -429 l 749 -429 q 739 -440 724 -446 q 708 -452 688 -452 l 688 -452 q 669 -452 654 -445 q 639 -439 628 -427 l 628 -427 q 614 -411 608 -384 q 602 -357 602 -305 l 602 -305 l 602 0 l 415 0 l 415 -316 q 415 -355 411 -383 q 406 -411 392 -428 l 392 -428 q 385 -438 371 -445 q 356 -452 336 -452 l 336 -452 q 311 -452 285 -436 q 259 -421 242 -387 q 225 -354 225 -299 l 225 -299 q 225 -259 234 -223 q 243 -187 263 -150 q 282 -114 314 -69 l 314 -69 l 173 12 q 126 -39 96 -86 q 65 -134 50 -185 q 35 -236 35 -297 l 35 -297 q 35 -377 68 -441 q 100 -505 164 -543 q 228 -581 321 -581 l 321 -581 q 386 -581 431 -564 q 475 -548 520 -510 l 520 -510 l 496 -502 q 531 -540 577 -560 q 622 -581 689 -581 z m 1059 -581 l 1059 -581 q 1205 -581 1281 -488 q 1357 -395 1357 -228 l 1357 -228 q 1357 -92 1316 4 q 1275 100 1183 151 q 1091 201 938 201 l 938 201 q 905 201 871 199 q 837 197 805 191 l 805 191 l 819 62 q 841 66 866 68 q 890 70 918 70 l 918 70 q 992 70 1041 48 q 1089 26 1117 -14 q 1144 -55 1156 -110 q 1167 -166 1167 -232 l 1167 -232 q 1167 -299 1152 -348 q 1137 -398 1110 -425 q 1082 -452 1044 -452 l 1044 -452 q 1023 -452 1009 -445 q 994 -439 985 -428 l 985 -428 q 971 -412 967 -389 q 962 -367 962 -327 l 962 -327 l 962 -10 l 785 -10 l 785 -309 l 860 -506 q 905 -545 950 -563 q 995 -581 1059 -581 z"},"൭":{"ha":863,"x_min":33,"x_max":825,"o":"m 445 -581 l 445 -581 q 548 -581 621 -551 q 693 -522 738 -470 q 783 -419 804 -353 q 825 -287 825 -213 l 825 -213 q 825 -118 799 -41 q 772 35 719 89 q 665 143 584 172 q 503 201 393 201 l 393 201 q 362 201 328 199 q 294 196 262 190 l 262 190 l 276 62 q 300 66 323 68 q 346 70 376 70 l 376 70 q 449 70 499 49 q 548 27 578 -12 q 608 -51 622 -102 q 635 -153 635 -211 l 635 -211 q 635 -325 582 -388 q 528 -452 425 -452 l 425 -452 q 370 -452 319 -428 q 268 -405 235 -358 q 202 -312 202 -243 l 202 -243 l 202 -236 q 202 -186 212 -158 q 222 -130 238 -119 q 254 -108 273 -108 l 273 -108 q 290 -108 302 -114 q 313 -121 319 -135 q 325 -150 325 -173 l 325 -173 q 325 -205 310 -222 q 294 -240 268 -240 l 268 -240 q 234 -240 207 -220 q 180 -200 139 -156 l 139 -156 l 118 -276 q 158 -310 205 -334 q 252 -359 316 -359 l 316 -359 q 380 -359 422 -336 q 464 -313 485 -273 q 506 -233 506 -180 l 506 -180 q 506 -121 481 -77 q 456 -34 406 -11 q 355 12 278 12 l 278 12 q 209 12 154 -14 q 98 -40 66 -95 q 33 -150 33 -237 l 33 -237 q 33 -341 82 -418 q 131 -495 224 -538 q 316 -581 445 -581 z"},"൮":{"ha":1097,"x_min":35,"x_max":1042,"o":"m 389 -581 l 389 -581 q 487 -581 555 -555 q 622 -529 663 -486 q 704 -443 723 -390 q 742 -337 742 -284 l 742 -284 q 742 -227 727 -186 q 711 -146 682 -111 q 652 -76 611 -35 l 611 -35 l 658 -128 l 855 -128 l 855 -569 l 1042 -569 l 1042 -217 l 957 0 l 531 0 l 471 -84 q 495 -112 513 -142 q 531 -172 542 -206 q 552 -241 552 -281 l 552 -281 q 552 -334 533 -372 q 513 -410 477 -431 q 441 -452 390 -452 l 390 -452 q 343 -452 306 -432 q 269 -412 248 -374 q 227 -336 227 -281 l 227 -281 q 227 -241 238 -205 q 249 -170 270 -137 q 290 -104 320 -69 l 320 -69 l 181 12 q 138 -27 105 -70 q 72 -114 54 -166 q 35 -219 35 -284 l 35 -284 q 35 -334 54 -386 q 72 -438 113 -482 q 154 -527 222 -554 q 290 -581 389 -581 z m 666 201 l 666 201 q 641 201 605 198 q 569 195 538 189 l 538 189 l 556 62 q 576 67 603 69 q 629 71 656 71 l 656 71 q 718 71 757 59 q 796 46 818 26 q 839 6 848 -19 q 857 -45 858 -70 l 858 -70 l 1042 -336 l 1042 -163 q 1042 -88 1032 -35 q 1021 17 1000 54 q 979 90 949 118 l 949 118 q 900 164 828 183 q 755 201 666 201 z"},"൯":{"ha":1279,"x_min":35,"x_max":1275,"o":"m 329 -581 l 329 -581 q 372 -581 406 -573 q 440 -566 470 -550 q 499 -535 529 -510 l 529 -510 l 615 -199 l 615 0 l 428 0 l 428 -320 q 428 -358 424 -384 q 419 -411 405 -427 l 405 -427 q 396 -437 382 -444 q 367 -452 344 -452 l 344 -452 q 316 -452 289 -436 q 261 -421 243 -387 q 225 -354 225 -298 l 225 -298 q 225 -258 234 -222 q 243 -187 263 -150 q 282 -114 314 -69 l 314 -69 l 173 12 q 126 -39 96 -86 q 65 -134 50 -185 q 35 -236 35 -297 l 35 -297 q 35 -377 69 -441 q 102 -505 168 -543 q 233 -581 329 -581 z m 792 -581 l 792 -581 q 890 -581 961 -556 q 1031 -532 1093 -482 l 1093 -482 q 1146 -439 1177 -377 q 1207 -315 1207 -240 l 1207 -240 q 1207 -159 1179 -102 q 1150 -46 1091 -17 q 1031 12 938 12 l 938 12 q 853 12 797 -15 q 741 -43 714 -89 q 686 -136 686 -193 l 686 -193 q 686 -255 713 -304 q 739 -353 799 -398 q 859 -443 957 -492 l 957 -492 q 1006 -521 1035 -540 q 1064 -560 1077 -580 q 1090 -600 1090 -629 l 1090 -629 q 1090 -644 1085 -657 q 1080 -671 1072 -681 l 1072 -681 l 1238 -753 q 1255 -728 1265 -696 q 1275 -664 1275 -631 l 1275 -631 q 1275 -575 1254 -537 q 1233 -499 1186 -465 q 1139 -432 1060 -390 l 1060 -390 q 989 -352 948 -322 q 906 -293 889 -263 q 871 -234 871 -196 l 871 -196 q 871 -162 889 -139 q 906 -116 941 -116 l 941 -116 q 972 -116 989 -131 q 1006 -146 1013 -172 q 1019 -198 1019 -229 l 1019 -229 q 1019 -275 1002 -325 q 984 -375 946 -406 l 946 -406 q 915 -432 880 -444 q 845 -457 790 -457 l 790 -457 q 741 -457 713 -447 q 685 -438 667 -423 l 667 -423 q 649 -408 638 -386 q 626 -365 621 -333 q 615 -301 615 -254 l 615 -254 l 615 -29 l 438 -29 l 438 -312 l 486 -470 q 516 -501 553 -526 q 590 -551 647 -566 q 703 -581 792 -581 z"},"൰":{"ha":1176,"x_min":-39,"x_max":1141,"o":"m 194 -569 l 381 -569 l 381 -168 l 370 -142 q 370 -53 354 12 q 338 76 297 121 l 297 121 q 260 161 206 181 q 151 201 65 201 l 65 201 q 44 201 16 199 q -13 197 -39 190 l -39 190 l -23 61 q -11 65 5 68 q 21 70 40 70 l 40 70 q 80 70 108 62 q 136 54 153 38 l 153 38 q 174 18 184 -12 q 194 -43 194 -107 l 194 -107 l 194 -569 z m 854 12 l 854 12 q 787 12 741 -6 q 694 -24 649 -63 l 649 -63 l 670 -67 q 634 -29 588 -8 q 542 12 473 12 l 473 12 q 430 12 401 2 q 371 -9 348 -28 q 324 -47 299 -71 l 299 -71 l 220 -258 l 222 -551 l 381 -553 l 381 -259 q 381 -212 388 -184 q 394 -156 409 -140 l 409 -140 q 420 -129 436 -123 q 451 -117 473 -117 l 473 -117 q 494 -117 510 -123 q 525 -130 536 -142 l 536 -142 q 551 -159 558 -187 q 564 -216 564 -265 l 564 -265 l 564 -569 l 751 -569 l 751 -241 q 751 -202 757 -179 q 763 -157 776 -141 l 776 -141 q 785 -131 800 -124 q 814 -117 837 -117 l 837 -117 q 865 -117 891 -132 q 917 -147 934 -181 q 951 -216 951 -274 l 951 -274 q 951 -314 942 -349 q 933 -384 914 -420 q 894 -457 863 -500 l 863 -500 l 1002 -581 q 1047 -530 1078 -482 q 1109 -435 1125 -384 q 1141 -333 1141 -270 l 1141 -270 q 1141 -189 1107 -125 q 1073 -62 1009 -25 q 945 12 854 12 z"},"൱":{"ha":1048,"x_min":35,"x_max":1010,"o":"m 329 -581 l 329 -581 q 372 -581 406 -573 q 440 -566 470 -550 q 499 -535 529 -510 l 529 -510 l 615 -199 l 615 0 l 428 0 l 428 -320 q 428 -358 424 -384 q 419 -411 405 -427 l 405 -427 q 396 -437 382 -444 q 367 -452 344 -452 l 344 -452 q 316 -452 289 -436 q 261 -421 243 -387 q 225 -354 225 -298 l 225 -298 q 225 -258 234 -222 q 243 -187 263 -150 q 282 -114 314 -69 l 314 -69 l 173 12 q 126 -39 96 -86 q 65 -134 50 -185 q 35 -236 35 -297 l 35 -297 q 35 -377 69 -441 q 102 -505 168 -543 q 233 -581 329 -581 z m 712 -581 l 712 -581 q 810 -581 876 -539 q 942 -497 976 -418 q 1010 -340 1010 -228 l 1010 -228 q 1010 -92 969 4 q 928 100 836 151 q 744 201 591 201 l 591 201 q 558 201 524 199 q 490 197 458 191 l 458 191 l 472 62 q 494 66 519 68 q 543 70 571 70 l 571 70 q 645 70 694 48 q 742 26 770 -14 q 797 -55 809 -110 q 820 -166 820 -232 l 820 -232 q 820 -299 805 -348 q 790 -398 763 -425 q 735 -452 697 -452 l 697 -452 q 676 -452 662 -445 q 647 -439 638 -428 l 638 -428 q 624 -412 620 -389 q 615 -367 615 -327 l 615 -327 l 615 -10 l 438 -10 l 438 -309 l 513 -506 q 558 -545 603 -563 q 648 -581 712 -581 z"},"൲":{"ha":1641,"x_min":32,"x_max":1623,"o":"m 1409 -569 l 1409 -569 q 1487 -569 1534 -546 q 1581 -523 1602 -485 q 1623 -448 1623 -406 l 1623 -406 q 1623 -356 1605 -322 q 1587 -288 1556 -269 l 1556 -269 q 1530 -253 1501 -245 q 1471 -237 1436 -234 q 1401 -232 1355 -232 l 1355 -232 l 1057 -232 l 1057 -360 l 1365 -360 q 1402 -360 1417 -362 q 1431 -365 1440 -371 l 1440 -371 q 1448 -376 1452 -384 q 1456 -393 1456 -403 l 1456 -403 q 1456 -422 1444 -433 q 1432 -444 1411 -444 l 1411 -444 q 1383 -444 1371 -428 q 1358 -413 1358 -392 l 1358 -392 q 1358 -364 1371 -344 q 1383 -325 1399 -309 l 1399 -309 l 1234 -302 q 1219 -322 1209 -351 q 1198 -381 1198 -407 l 1198 -407 q 1198 -461 1225 -497 q 1252 -533 1300 -551 q 1347 -569 1409 -569 z m 326 -581 l 326 -581 q 372 -581 410 -572 q 447 -564 481 -545 q 515 -527 548 -498 l 548 -498 l 612 -224 l 612 0 l 425 0 l 425 -320 q 425 -358 421 -384 q 416 -411 402 -427 l 402 -427 q 393 -437 379 -444 q 364 -452 341 -452 l 341 -452 q 313 -452 286 -436 q 258 -421 240 -387 q 222 -354 222 -298 l 222 -298 q 222 -258 231 -222 q 240 -187 260 -150 q 279 -114 311 -69 l 311 -69 l 170 12 q 123 -39 93 -86 q 62 -134 47 -185 q 32 -236 32 -297 l 32 -297 q 32 -377 66 -441 q 99 -505 165 -543 q 230 -581 326 -581 z m 777 -581 l 777 -581 q 861 -581 930 -557 q 998 -534 1047 -489 q 1096 -445 1123 -383 q 1149 -321 1149 -244 l 1149 -244 q 1149 -155 1119 -98 q 1089 -41 1032 -14 q 974 12 890 12 l 890 12 q 803 12 753 -13 q 703 -39 682 -80 q 661 -122 661 -168 l 661 -168 q 661 -224 686 -262 q 711 -301 749 -322 l 749 -322 q 776 -337 807 -345 q 837 -353 879 -356 q 920 -360 979 -360 l 979 -360 l 1260 -360 l 1260 -232 l 975 -232 q 929 -232 906 -229 q 883 -226 868 -216 l 868 -216 q 856 -209 850 -197 q 843 -185 843 -167 l 843 -167 q 843 -144 856 -128 q 868 -112 895 -112 l 895 -112 q 916 -112 933 -123 q 949 -134 959 -162 q 968 -191 968 -241 l 968 -241 q 968 -255 968 -267 q 967 -279 965 -291 l 965 -291 l 962 -324 q 952 -367 925 -395 q 898 -423 860 -437 q 821 -451 773 -451 l 773 -451 q 738 -451 712 -442 q 686 -434 666 -417 l 666 -417 q 649 -403 637 -379 q 624 -356 618 -321 q 612 -287 612 -237 l 612 -237 l 612 -183 l 507 -241 l 506 -480 q 529 -503 567 -526 q 604 -549 657 -565 q 709 -581 777 -581 z"},"൳":{"ha":826,"x_min":33,"x_max":804,"o":"m 278 12 l 278 12 q 209 12 154 -14 q 98 -40 66 -94 q 33 -149 33 -234 l 33 -234 q 33 -315 67 -374 q 100 -434 164 -472 l 164 -472 q 206 -497 250 -510 q 293 -524 351 -529 q 409 -534 492 -534 l 492 -534 l 804 -534 l 804 -403 l 511 -403 q 448 -403 409 -401 q 369 -399 345 -394 q 320 -390 302 -384 l 302 -384 q 268 -373 246 -354 q 223 -336 209 -308 l 209 -308 l 204 -278 q 203 -265 203 -252 q 202 -239 202 -225 l 202 -225 q 202 -181 212 -155 q 222 -130 238 -119 q 254 -108 273 -108 l 273 -108 q 290 -108 302 -115 q 313 -122 319 -136 q 325 -151 325 -173 l 325 -173 q 325 -205 310 -222 q 294 -240 267 -240 l 267 -240 q 233 -240 207 -220 q 180 -200 139 -156 l 139 -156 l 118 -276 q 158 -310 205 -334 q 251 -359 315 -359 l 315 -359 q 379 -359 422 -336 q 464 -313 485 -273 q 506 -233 506 -180 l 506 -180 q 506 -121 481 -77 q 456 -34 406 -11 q 355 12 278 12 z"},"൴":{"ha":1078,"x_min":32,"x_max":1043,"o":"m 533 -789 l 720 -789 l 720 -236 q 720 -210 722 -191 q 724 -172 728 -158 q 732 -145 739 -135 l 739 -135 q 747 -124 759 -118 q 771 -112 788 -112 l 788 -112 q 809 -112 824 -122 q 838 -132 846 -154 q 853 -177 853 -214 l 853 -214 q 853 -264 837 -303 q 820 -342 792 -370 q 763 -399 727 -416 q 690 -434 649 -442 l 649 -442 l 607 -448 q 584 -452 561 -453 q 537 -455 514 -455 l 514 -455 q 464 -455 410 -444 q 355 -434 308 -411 q 260 -388 231 -349 q 201 -311 201 -254 l 201 -254 l 201 -238 q 201 -188 211 -159 q 221 -131 237 -119 q 253 -108 272 -108 l 272 -108 q 289 -108 301 -115 q 312 -122 318 -136 q 324 -151 324 -173 l 324 -173 q 324 -205 309 -222 q 293 -240 266 -240 l 266 -240 q 232 -240 206 -220 q 179 -200 138 -156 l 138 -156 l 117 -276 q 157 -310 204 -334 q 251 -359 315 -359 l 315 -359 q 379 -359 421 -336 q 463 -313 484 -273 q 505 -233 505 -180 l 505 -180 q 505 -121 480 -77 q 455 -34 405 -11 q 354 12 277 12 l 277 12 q 208 12 153 -14 q 97 -40 65 -96 q 32 -153 32 -242 l 32 -242 q 32 -327 69 -390 q 105 -454 171 -496 q 237 -539 327 -560 q 417 -581 524 -581 l 524 -581 q 546 -581 569 -580 q 592 -579 614 -577 l 614 -577 l 661 -574 q 732 -568 800 -543 q 868 -519 923 -476 q 978 -433 1011 -370 q 1043 -308 1043 -225 l 1043 -225 q 1043 -153 1014 -99 q 985 -46 927 -17 q 869 12 781 12 l 781 12 q 724 12 682 1 q 640 -11 611 -33 l 611 -33 q 582 -55 565 -86 q 548 -117 541 -162 q 533 -208 533 -273 l 533 -273 l 533 -789 z"},"൵":{"ha":1425,"x_min":33,"x_max":1421,"o":"m 422 -581 l 422 -581 q 516 -581 582 -558 q 648 -535 704 -480 l 704 -480 l 726 -385 l 761 -229 l 761 0 l 574 0 l 574 -273 q 574 -338 564 -371 q 554 -404 529 -424 l 529 -424 q 511 -438 484 -445 q 456 -453 418 -453 l 418 -453 q 360 -453 311 -429 q 261 -405 232 -358 q 202 -312 202 -244 l 202 -244 l 202 -240 q 202 -188 212 -159 q 222 -130 238 -119 q 254 -108 273 -108 l 273 -108 q 290 -108 302 -114 q 313 -121 319 -135 q 325 -150 325 -173 l 325 -173 q 325 -205 310 -222 q 294 -240 267 -240 l 267 -240 q 233 -240 207 -220 q 180 -200 139 -156 l 139 -156 l 118 -276 q 158 -310 205 -334 q 252 -359 316 -359 l 316 -359 q 380 -359 422 -336 q 464 -313 485 -273 q 506 -233 506 -180 l 506 -180 q 506 -121 481 -77 q 456 -34 406 -11 q 355 12 278 12 l 278 12 q 209 12 154 -14 q 98 -41 66 -97 q 33 -154 33 -244 l 33 -244 q 33 -352 85 -427 q 136 -503 224 -542 q 312 -581 422 -581 z m 938 -581 l 938 -581 q 1036 -581 1107 -556 q 1177 -532 1239 -482 l 1239 -482 q 1292 -439 1323 -377 q 1353 -315 1353 -240 l 1353 -240 q 1353 -159 1325 -102 q 1296 -46 1237 -17 q 1177 12 1084 12 l 1084 12 q 999 12 943 -15 q 887 -43 860 -89 q 832 -136 832 -193 l 832 -193 q 832 -255 859 -304 q 885 -353 945 -398 q 1004 -443 1103 -492 l 1103 -492 q 1152 -521 1181 -540 q 1210 -560 1223 -580 q 1236 -600 1236 -629 l 1236 -629 q 1236 -644 1231 -657 q 1226 -671 1218 -681 l 1218 -681 l 1384 -753 q 1401 -728 1411 -696 q 1421 -664 1421 -631 l 1421 -631 q 1421 -575 1400 -537 q 1379 -499 1332 -465 q 1285 -432 1206 -390 l 1206 -390 q 1135 -352 1094 -322 q 1052 -293 1035 -263 q 1017 -234 1017 -196 l 1017 -196 q 1017 -162 1035 -139 q 1052 -116 1087 -116 l 1087 -116 q 1118 -116 1135 -131 q 1152 -146 1159 -172 q 1165 -198 1165 -229 l 1165 -229 q 1165 -275 1148 -325 q 1130 -375 1092 -406 l 1092 -406 q 1061 -432 1026 -444 q 991 -457 936 -457 l 936 -457 q 887 -457 859 -447 q 831 -438 813 -423 l 813 -423 q 795 -408 784 -386 q 772 -365 767 -333 q 761 -301 761 -254 l 761 -254 l 761 -29 l 584 -29 l 584 -312 l 632 -470 q 662 -501 699 -526 q 736 -551 793 -566 q 849 -581 938 -581 z"},"൶":{"ha":1529,"x_min":27,"x_max":1478,"o":"m 285 -372 l 285 -372 q 375 -372 431 -342 q 486 -312 512 -266 q 538 -221 538 -173 l 538 -173 q 538 -151 533 -124 q 528 -98 518 -76 l 518 -76 l 521 -128 l 769 -128 l 773 0 l 392 0 l 329 -70 q 340 -87 350 -110 q 360 -133 360 -163 l 360 -163 q 360 -195 343 -220 q 326 -245 287 -245 l 287 -245 q 262 -245 245 -234 q 228 -223 220 -204 q 212 -185 212 -160 l 212 -160 q 212 -129 223 -101 q 234 -74 252 -45 l 252 -45 l 108 13 q 72 -25 50 -70 q 27 -115 27 -170 l 27 -170 q 27 -233 60 -278 q 93 -324 151 -348 q 209 -372 285 -372 z m 1089 -581 l 1089 -581 q 1181 -581 1253 -563 q 1325 -545 1374 -507 l 1374 -507 q 1408 -481 1431 -447 q 1454 -414 1466 -366 q 1478 -318 1478 -245 l 1478 -245 l 1478 0 l 725 0 l 725 -242 q 725 -313 738 -363 q 750 -413 774 -448 q 798 -484 832 -510 l 832 -510 q 879 -546 944 -563 q 1009 -581 1089 -581 z m 1007 -448 l 1007 -448 q 985 -448 969 -438 q 953 -428 941 -410 l 941 -410 q 926 -387 919 -350 q 911 -314 911 -246 l 911 -246 l 911 -68 l 853 -68 q 908 -117 953 -168 q 998 -219 1026 -273 q 1053 -328 1053 -387 l 1053 -387 q 1053 -404 1049 -418 q 1044 -432 1034 -440 q 1024 -448 1007 -448 z m 1237 -363 l 1237 -363 q 1237 -317 1221 -275 q 1205 -234 1177 -195 q 1149 -157 1112 -120 l 1112 -120 l 1095 -122 q 1117 -126 1140 -126 q 1163 -127 1188 -127 l 1188 -127 l 1292 -127 l 1292 -240 q 1292 -306 1282 -348 q 1272 -391 1250 -417 q 1228 -443 1192 -459 l 1192 -459 l 1193 -470 q 1214 -450 1226 -425 q 1237 -400 1237 -363 z"},"൷":{"ha":1992,"x_min":27,"x_max":1973,"o":"m 285 -372 l 285 -372 q 375 -372 431 -342 q 486 -312 512 -266 q 538 -221 538 -173 l 538 -173 q 538 -151 533 -124 q 528 -98 518 -76 l 518 -76 l 521 -128 l 790 -128 l 792 0 l 392 0 l 329 -70 q 340 -87 350 -110 q 360 -133 360 -163 l 360 -163 q 360 -195 343 -220 q 326 -245 287 -245 l 287 -245 q 262 -245 245 -234 q 228 -223 220 -204 q 212 -185 212 -160 l 212 -160 q 212 -129 223 -101 q 234 -74 252 -45 l 252 -45 l 108 13 q 72 -25 50 -70 q 27 -115 27 -170 l 27 -170 q 27 -233 60 -278 q 93 -324 151 -348 q 209 -372 285 -372 z m 921 -581 l 921 -581 q 966 -581 1004 -572 q 1041 -564 1075 -545 q 1109 -527 1142 -498 l 1142 -498 l 1206 -251 l 1206 -230 l 1019 -230 l 1019 -320 q 1019 -358 1015 -384 q 1010 -411 996 -427 l 996 -427 q 987 -437 973 -444 q 958 -452 935 -452 l 935 -452 q 907 -452 880 -436 q 852 -421 834 -387 q 816 -354 816 -298 l 816 -298 q 816 -238 836 -186 q 856 -134 901 -65 l 901 -65 l 853 0 l 751 0 l 690 -104 q 667 -135 653 -165 q 638 -196 632 -228 q 626 -260 626 -297 l 626 -297 q 626 -377 660 -441 q 693 -505 759 -543 q 825 -581 921 -581 z m 1371 -581 l 1371 -581 q 1458 -581 1527 -557 q 1596 -534 1645 -489 q 1693 -445 1718 -383 q 1743 -321 1743 -244 l 1743 -244 q 1743 -155 1713 -98 q 1683 -41 1626 -14 q 1568 12 1484 12 l 1484 12 q 1397 12 1347 -13 q 1297 -39 1276 -80 q 1255 -122 1255 -168 l 1255 -168 q 1255 -224 1280 -262 q 1305 -301 1343 -322 l 1343 -322 q 1370 -337 1401 -345 q 1431 -353 1473 -356 q 1514 -360 1573 -360 l 1573 -360 l 1603 -360 l 1603 -232 l 1569 -232 q 1523 -232 1500 -229 q 1477 -226 1462 -216 l 1462 -216 q 1450 -209 1444 -197 q 1437 -185 1437 -167 l 1437 -167 q 1437 -144 1450 -128 q 1463 -112 1493 -112 l 1493 -112 q 1513 -112 1530 -122 q 1546 -132 1556 -160 q 1566 -188 1566 -241 l 1566 -241 q 1566 -255 1566 -267 q 1565 -279 1563 -291 l 1563 -291 l 1560 -324 q 1548 -366 1521 -394 q 1494 -422 1455 -436 q 1416 -451 1367 -451 l 1367 -451 q 1332 -451 1306 -442 q 1280 -434 1260 -417 l 1260 -417 q 1243 -403 1231 -379 q 1218 -356 1212 -321 q 1206 -287 1206 -237 l 1206 -237 l 1206 -234 l 1101 -241 l 1100 -480 q 1123 -503 1161 -526 q 1198 -549 1251 -565 q 1303 -581 1371 -581 z m 1783 -448 l 1959 -479 q 1964 -466 1969 -445 q 1973 -425 1973 -402 l 1973 -402 q 1973 -355 1956 -322 q 1938 -289 1907 -269 l 1907 -269 q 1868 -244 1821 -238 q 1774 -232 1709 -232 l 1709 -232 l 1594 -232 l 1594 -360 l 1693 -360 q 1722 -360 1741 -363 q 1759 -367 1770 -375 l 1770 -375 q 1779 -382 1784 -392 q 1788 -403 1788 -418 l 1788 -418 q 1788 -425 1787 -434 q 1785 -444 1783 -448 l 1783 -448 z"},"൸":{"ha":2457,"x_min":8,"x_max":2406,"o":"m 1567 -581 l 1567 -581 q 1604 -581 1635 -575 q 1665 -569 1691 -557 q 1716 -546 1738 -528 q 1760 -511 1781 -488 l 1781 -488 l 1747 -493 q 1781 -523 1822 -542 q 1863 -562 1912 -571 q 1961 -581 2017 -581 l 2017 -581 q 2109 -581 2181 -563 q 2253 -545 2302 -507 l 2302 -507 q 2336 -481 2359 -447 q 2382 -414 2394 -366 q 2406 -318 2406 -245 l 2406 -245 l 2406 0 l 1838 0 l 1838 -122 q 1879 -163 1911 -205 q 1943 -248 1962 -293 q 1981 -338 1981 -387 l 1981 -387 q 1981 -404 1977 -418 q 1972 -432 1963 -440 q 1953 -448 1936 -448 l 1936 -448 q 1914 -448 1898 -438 q 1882 -428 1870 -409 l 1870 -409 q 1858 -391 1851 -357 q 1844 -324 1844 -276 l 1844 -276 l 1844 -230 l 1657 -230 l 1657 -296 q 1657 -358 1652 -387 q 1647 -416 1630 -432 l 1630 -432 q 1620 -442 1607 -447 q 1594 -452 1575 -452 l 1575 -452 q 1553 -452 1539 -445 q 1524 -438 1514 -425 l 1514 -425 q 1501 -407 1497 -376 q 1492 -346 1492 -295 l 1492 -295 l 1492 -265 q 1492 -211 1485 -171 q 1478 -132 1464 -104 q 1450 -76 1428 -54 l 1428 -54 q 1393 -20 1342 -4 q 1290 12 1217 12 l 1217 12 q 1143 12 1094 -4 q 1044 -20 1010 -53 l 1010 -53 q 988 -75 974 -102 q 960 -130 953 -169 q 946 -209 946 -265 l 946 -265 l 946 -296 q 946 -358 941 -387 q 936 -416 919 -432 l 919 -432 q 909 -442 896 -447 q 883 -452 864 -452 l 864 -452 q 842 -452 828 -445 q 813 -438 803 -425 l 803 -425 q 790 -407 786 -376 q 781 -346 781 -295 l 781 -295 l 781 -266 q 781 -185 763 -131 q 744 -78 701 -43 l 701 -43 q 667 -15 622 -1 q 577 12 524 12 l 524 12 q 454 12 405 -7 q 356 -26 314 -68 l 314 -68 l 330 -63 q 301 -35 276 -18 q 250 -2 221 5 q 191 12 150 12 l 150 12 q 110 12 77 3 q 43 -6 8 -25 l 8 -25 l 52 -142 q 70 -132 92 -124 q 114 -117 140 -117 l 140 -117 q 165 -117 180 -124 q 194 -131 203 -141 l 203 -141 q 217 -156 223 -179 q 228 -202 228 -241 l 228 -241 l 228 -569 l 415 -569 l 415 -256 q 415 -210 420 -183 q 424 -156 440 -140 l 440 -140 q 452 -128 467 -122 q 481 -117 502 -117 l 502 -117 q 523 -117 537 -123 q 550 -129 560 -138 l 560 -138 q 579 -156 585 -188 q 590 -220 590 -276 l 590 -276 l 590 -305 q 590 -359 597 -398 q 604 -438 619 -466 q 634 -495 656 -516 l 656 -516 q 692 -550 744 -565 q 796 -581 866 -581 l 866 -581 q 936 -581 988 -564 q 1039 -548 1073 -515 l 1073 -515 q 1095 -494 1109 -466 q 1123 -438 1130 -399 q 1137 -360 1137 -303 l 1137 -303 l 1137 -271 q 1137 -211 1143 -182 q 1148 -154 1164 -137 l 1164 -137 q 1174 -127 1187 -122 q 1200 -117 1219 -117 l 1219 -117 q 1241 -117 1256 -124 q 1270 -131 1280 -144 l 1280 -144 q 1294 -162 1298 -192 q 1302 -222 1302 -270 l 1302 -270 l 1302 -305 q 1302 -359 1309 -398 q 1316 -438 1331 -466 q 1345 -495 1367 -516 l 1367 -516 q 1403 -550 1454 -565 q 1504 -581 1567 -581 z m 2166 -363 l 2166 -363 q 2166 -317 2150 -275 q 2134 -234 2106 -195 q 2078 -157 2041 -120 l 2041 -120 l 2023 -122 q 2045 -126 2068 -126 q 2091 -127 2116 -127 l 2116 -127 l 2220 -127 l 2220 -240 q 2220 -306 2210 -348 q 2200 -391 2178 -417 q 2156 -443 2120 -459 l 2120 -459 l 2122 -470 q 2143 -450 2155 -425 q 2166 -400 2166 -363 z"},"൹":{"ha":1285,"x_min":35,"x_max":1263,"o":"m 329 -581 l 329 -581 q 375 -581 413 -572 q 450 -564 484 -545 q 518 -527 551 -498 l 551 -498 l 615 -224 l 615 0 l 428 0 l 428 -320 q 428 -358 424 -384 q 419 -411 405 -427 l 405 -427 q 396 -437 382 -444 q 367 -452 344 -452 l 344 -452 q 316 -452 289 -436 q 261 -421 243 -387 q 225 -354 225 -298 l 225 -298 q 225 -258 234 -222 q 243 -187 263 -150 q 282 -114 314 -69 l 314 -69 l 173 12 q 126 -39 96 -86 q 65 -134 50 -185 q 35 -236 35 -297 l 35 -297 q 35 -377 69 -441 q 102 -505 168 -543 q 233 -581 329 -581 z m 780 -581 l 780 -581 q 864 -581 933 -557 q 1001 -534 1050 -489 q 1099 -445 1126 -383 q 1152 -321 1152 -244 l 1152 -244 q 1152 -155 1122 -98 q 1092 -41 1035 -14 q 977 12 893 12 l 893 12 q 806 12 756 -13 q 706 -39 685 -80 q 664 -122 664 -168 l 664 -168 q 664 -224 689 -262 q 714 -301 752 -322 l 752 -322 q 779 -337 810 -345 q 840 -353 882 -356 q 923 -360 982 -360 l 982 -360 l 1263 -360 l 1263 -232 l 978 -232 q 932 -232 909 -229 q 886 -226 871 -216 l 871 -216 q 859 -209 853 -197 q 846 -185 846 -167 l 846 -167 q 846 -144 859 -128 q 871 -112 898 -112 l 898 -112 q 919 -112 936 -123 q 952 -134 962 -162 q 971 -191 971 -241 l 971 -241 q 971 -255 971 -267 q 970 -279 968 -291 l 968 -291 l 965 -324 q 955 -367 928 -395 q 901 -423 863 -437 q 824 -451 776 -451 l 776 -451 q 741 -451 715 -442 q 689 -434 669 -417 l 669 -417 q 652 -403 640 -379 q 627 -356 621 -321 q 615 -287 615 -237 l 615 -237 l 615 -183 l 510 -241 l 509 -480 q 532 -503 570 -526 q 607 -549 660 -565 q 712 -581 780 -581 z"},"ൺ":{"ha":1755,"x_min":33,"x_max":1721,"o":"m 422 -581 l 422 -581 q 516 -581 582 -558 q 648 -535 704 -480 l 704 -480 l 655 -502 q 691 -540 737 -560 q 783 -581 852 -581 l 852 -581 q 911 -581 957 -564 q 1002 -547 1045 -510 l 1045 -510 l 1056 -420 l 1131 -208 l 1131 0 l 944 0 l 944 -313 q 944 -358 938 -385 q 931 -413 916 -429 l 916 -429 q 906 -440 890 -446 q 874 -452 852 -452 l 852 -452 q 831 -452 816 -445 q 800 -439 789 -427 l 789 -427 q 774 -411 768 -382 q 761 -353 761 -305 l 761 -305 l 761 0 l 574 0 l 574 -273 q 574 -338 564 -371 q 554 -404 529 -424 l 529 -424 q 511 -438 484 -445 q 456 -453 418 -453 l 418 -453 q 360 -453 311 -429 q 261 -405 232 -358 q 202 -312 202 -244 l 202 -244 l 202 -240 q 202 -188 212 -159 q 222 -130 238 -119 q 254 -108 273 -108 l 273 -108 q 290 -108 302 -114 q 313 -121 319 -135 q 325 -150 325 -173 l 325 -173 q 325 -205 310 -222 q 294 -240 267 -240 l 267 -240 q 233 -240 207 -220 q 180 -200 139 -156 l 139 -156 l 118 -276 q 158 -310 205 -334 q 252 -359 316 -359 l 316 -359 q 380 -359 422 -336 q 464 -313 485 -272 q 506 -232 506 -179 l 506 -179 q 506 -120 481 -77 q 456 -34 406 -11 q 355 12 278 12 l 278 12 q 209 12 154 -14 q 98 -41 66 -97 q 33 -154 33 -245 l 33 -245 q 33 -353 85 -428 q 136 -503 224 -542 q 312 -581 422 -581 z m 1466 12 l 1466 12 q 1381 12 1325 -16 q 1269 -45 1242 -98 q 1214 -151 1214 -224 l 1214 -224 q 1214 -280 1232 -324 q 1250 -369 1285 -410 q 1320 -451 1372 -494 l 1372 -494 l 1406 -536 q 1434 -560 1452 -581 q 1470 -602 1470 -635 l 1470 -635 q 1470 -655 1457 -665 q 1444 -676 1418 -676 l 1418 -676 q 1396 -676 1379 -673 q 1362 -670 1351 -668 l 1351 -668 l 1321 -782 q 1350 -791 1391 -797 q 1431 -803 1472 -803 l 1472 -803 q 1546 -803 1586 -781 q 1625 -760 1640 -727 q 1654 -694 1654 -659 l 1654 -659 q 1654 -602 1625 -560 q 1596 -519 1540 -471 l 1540 -471 l 1514 -440 q 1483 -415 1457 -381 q 1431 -347 1415 -306 q 1399 -265 1399 -219 l 1399 -219 q 1399 -194 1404 -170 q 1408 -146 1423 -131 q 1438 -116 1467 -116 l 1467 -116 q 1500 -116 1517 -140 q 1533 -165 1533 -223 l 1533 -223 q 1533 -264 1522 -305 q 1510 -346 1488 -380 q 1465 -414 1430 -432 l 1430 -432 q 1408 -444 1378 -450 q 1348 -457 1301 -457 l 1301 -457 q 1255 -457 1227 -448 q 1199 -440 1181 -425 l 1181 -425 q 1163 -410 1152 -388 q 1141 -366 1136 -333 q 1131 -301 1131 -254 l 1131 -254 l 1131 -20 l 964 -20 l 964 -232 l 1000 -471 q 1030 -502 1067 -527 q 1104 -552 1159 -566 q 1214 -581 1298 -581 l 1298 -581 q 1354 -581 1399 -574 q 1444 -567 1484 -552 l 1484 -552 q 1496 -548 1508 -543 q 1519 -538 1530 -533 l 1530 -533 q 1586 -505 1629 -460 q 1672 -416 1697 -358 q 1721 -300 1721 -233 l 1721 -233 q 1721 -117 1662 -52 q 1603 12 1466 12 z"},"ൻ":{"ha":1237,"x_min":35,"x_max":1205,"o":"m 329 -581 l 329 -581 q 372 -581 406 -573 q 440 -566 470 -550 q 499 -535 529 -510 l 529 -510 l 615 -199 l 615 0 l 428 0 l 428 -320 q 428 -358 424 -384 q 419 -411 405 -427 l 405 -427 q 396 -437 382 -444 q 367 -452 344 -452 l 344 -452 q 316 -452 289 -436 q 261 -421 243 -387 q 225 -354 225 -298 l 225 -298 q 225 -258 234 -222 q 243 -187 263 -150 q 282 -114 314 -69 l 314 -69 l 173 12 q 126 -39 96 -86 q 65 -134 50 -185 q 35 -236 35 -297 l 35 -297 q 35 -377 69 -441 q 102 -505 168 -543 q 233 -581 329 -581 z m 950 12 l 950 12 q 865 12 809 -16 q 753 -45 726 -98 q 698 -151 698 -224 l 698 -224 q 698 -280 716 -324 q 734 -369 769 -410 q 804 -451 856 -494 l 856 -494 l 890 -536 q 918 -560 936 -581 q 954 -602 954 -635 l 954 -635 q 954 -655 941 -665 q 928 -676 902 -676 l 902 -676 q 880 -676 863 -673 q 846 -670 835 -668 l 835 -668 l 805 -782 q 834 -791 875 -797 q 915 -803 956 -803 l 956 -803 q 1030 -803 1070 -781 q 1109 -760 1124 -727 q 1138 -694 1138 -659 l 1138 -659 q 1138 -602 1109 -560 q 1080 -519 1024 -471 l 1024 -471 l 998 -440 q 967 -415 941 -381 q 915 -347 899 -306 q 883 -265 883 -219 l 883 -219 q 883 -194 888 -170 q 892 -146 907 -131 q 922 -116 951 -116 l 951 -116 q 984 -116 1001 -140 q 1017 -165 1017 -223 l 1017 -223 q 1017 -264 1006 -305 q 994 -346 972 -380 q 949 -414 914 -432 l 914 -432 q 892 -444 862 -450 q 832 -457 785 -457 l 785 -457 q 739 -457 711 -448 q 683 -440 665 -425 l 665 -425 q 647 -410 636 -388 q 625 -366 620 -333 q 615 -301 615 -254 l 615 -254 l 615 -20 l 448 -20 l 448 -232 l 484 -471 q 514 -502 551 -527 q 588 -552 643 -566 q 698 -581 782 -581 l 782 -581 q 838 -581 883 -574 q 928 -567 968 -552 l 968 -552 q 980 -548 992 -543 q 1003 -538 1014 -533 l 1014 -533 q 1070 -505 1113 -460 q 1156 -416 1181 -358 q 1205 -300 1205 -233 l 1205 -233 q 1205 -117 1146 -52 q 1087 12 950 12 z"},"ർ":{"ha":862,"x_min":35,"x_max":830,"o":"m 575 12 l 575 12 q 490 12 434 -16 q 378 -45 351 -98 q 323 -151 323 -224 l 323 -224 q 323 -280 341 -324 q 359 -369 394 -410 q 429 -451 481 -494 l 481 -494 l 515 -536 q 543 -560 561 -581 q 579 -602 579 -635 l 579 -635 q 579 -655 566 -665 q 553 -676 527 -676 l 527 -676 q 505 -676 488 -673 q 471 -670 460 -668 l 460 -668 l 430 -782 q 459 -791 500 -797 q 540 -803 581 -803 l 581 -803 q 655 -803 695 -781 q 734 -760 749 -727 q 763 -694 763 -659 l 763 -659 q 763 -602 734 -560 q 705 -519 649 -471 l 649 -471 l 623 -440 q 592 -415 566 -381 q 540 -347 524 -306 q 508 -265 508 -219 l 508 -219 q 508 -194 513 -170 q 517 -146 532 -131 q 547 -116 576 -116 l 576 -116 q 609 -116 626 -140 q 642 -165 642 -223 l 642 -223 q 642 -253 636 -284 q 629 -316 617 -344 q 604 -372 585 -395 q 565 -418 539 -432 l 539 -432 q 517 -444 490 -450 q 462 -456 430 -456 l 430 -456 q 366 -456 321 -436 q 275 -416 251 -377 q 227 -338 227 -281 l 227 -281 q 227 -241 238 -206 q 249 -171 270 -137 q 290 -104 320 -69 l 320 -69 l 181 12 q 138 -27 105 -70 q 72 -114 54 -166 q 35 -219 35 -284 l 35 -284 q 35 -339 55 -392 q 75 -445 120 -487 q 165 -530 239 -555 q 312 -581 418 -581 l 418 -581 q 466 -581 510 -574 q 553 -567 593 -552 l 593 -552 q 605 -548 617 -543 q 628 -538 639 -533 l 639 -533 q 695 -505 738 -460 q 781 -416 806 -358 q 830 -300 830 -233 l 830 -233 q 830 -117 771 -52 q 712 12 575 12 z"},"ൽ":{"ha":1416,"x_min":35,"x_max":1384,"o":"m 856 -581 l 856 -581 q 906 -581 953 -577 q 999 -573 1043 -564 q 1087 -556 1128 -540 l 1128 -540 l 1172 -521 q 1269 -480 1327 -406 q 1384 -332 1384 -227 l 1384 -227 q 1384 -115 1325 -51 q 1266 12 1129 12 l 1129 12 q 1044 12 988 -16 q 932 -45 905 -98 q 877 -151 877 -224 l 877 -224 q 877 -280 895 -324 q 913 -369 948 -410 q 983 -451 1035 -494 l 1035 -494 l 1069 -536 q 1097 -560 1115 -581 q 1133 -602 1133 -635 l 1133 -635 q 1133 -655 1120 -665 q 1107 -676 1081 -676 l 1081 -676 q 1059 -676 1042 -673 q 1025 -670 1014 -668 l 1014 -668 l 984 -782 q 1013 -791 1054 -797 q 1094 -803 1135 -803 l 1135 -803 q 1209 -803 1249 -781 q 1288 -760 1303 -727 q 1317 -694 1317 -659 l 1317 -659 q 1317 -602 1288 -560 q 1259 -519 1203 -471 l 1203 -471 l 1177 -440 q 1146 -415 1120 -381 q 1094 -347 1078 -306 q 1062 -265 1062 -219 l 1062 -219 q 1062 -194 1067 -170 q 1071 -146 1086 -131 q 1101 -116 1130 -116 l 1130 -116 q 1163 -116 1180 -139 q 1196 -163 1196 -215 l 1196 -215 q 1196 -256 1183 -292 q 1169 -329 1143 -359 q 1116 -390 1077 -412 l 1077 -412 l 1037 -425 q 1000 -439 955 -446 q 909 -453 855 -453 l 855 -453 q 812 -453 771 -447 q 729 -441 692 -428 l 692 -428 l 637 -408 q 584 -380 552 -333 q 520 -286 520 -225 l 520 -225 q 520 -185 530 -161 q 540 -137 556 -126 q 571 -116 589 -116 l 589 -116 q 608 -116 624 -126 q 639 -136 649 -161 q 659 -186 659 -230 l 659 -230 q 659 -278 644 -318 q 628 -358 601 -388 q 573 -419 537 -435 l 537 -435 l 507 -445 q 488 -451 468 -454 q 448 -457 427 -457 l 427 -457 q 353 -457 309 -434 q 264 -412 244 -372 q 224 -333 224 -281 l 224 -281 q 224 -241 235 -206 q 245 -172 266 -138 q 287 -105 317 -68 l 317 -68 l 181 12 q 138 -27 105 -70 q 72 -114 54 -166 q 35 -219 35 -284 l 35 -284 q 35 -334 54 -386 q 72 -438 115 -482 q 158 -527 231 -554 q 303 -581 412 -581 l 412 -581 q 480 -581 537 -569 q 593 -558 646 -532 l 646 -532 l 683 -496 q 760 -454 803 -392 q 846 -330 846 -226 l 846 -226 q 846 -145 817 -92 q 788 -39 731 -13 q 674 12 590 12 l 590 12 q 508 12 451 -15 q 393 -43 363 -95 q 333 -148 333 -223 l 333 -223 q 333 -287 357 -337 q 381 -388 423 -427 q 465 -467 517 -496 l 517 -496 l 552 -525 q 617 -554 690 -567 q 763 -581 856 -581 z"},"ൾ":{"ha":1210,"x_min":35,"x_max":1178,"o":"m 929 -803 l 929 -803 q 1003 -803 1043 -781 q 1082 -760 1097 -727 q 1111 -694 1111 -659 l 1111 -659 q 1111 -602 1082 -560 q 1053 -519 997 -471 l 997 -471 l 971 -440 q 940 -415 914 -381 q 888 -347 872 -306 q 856 -265 856 -219 l 856 -219 q 856 -194 861 -170 q 865 -146 880 -131 q 895 -116 924 -116 l 924 -116 q 957 -116 974 -140 q 990 -165 990 -223 l 990 -223 q 990 -253 984 -284 q 977 -316 965 -344 q 952 -372 933 -395 q 913 -418 887 -432 l 887 -432 q 865 -444 837 -451 q 808 -458 770 -458 l 770 -458 q 729 -458 701 -448 q 672 -438 652 -421 l 652 -421 q 624 -396 613 -361 q 602 -326 602 -273 l 602 -273 l 602 -267 q 602 -214 594 -172 q 586 -130 569 -98 q 552 -67 523 -44 l 523 -44 q 489 -16 442 -2 q 395 12 323 12 l 323 12 q 233 12 169 -23 q 104 -59 70 -122 q 35 -186 35 -269 l 35 -269 q 35 -332 51 -383 q 67 -435 99 -482 q 130 -530 174 -581 l 174 -581 l 313 -500 q 282 -457 263 -420 q 243 -384 234 -348 q 225 -313 225 -273 l 225 -273 q 225 -214 240 -179 q 254 -145 278 -131 q 301 -117 327 -117 l 327 -117 q 348 -117 361 -122 q 374 -127 384 -137 l 384 -137 q 403 -155 407 -185 q 411 -216 411 -247 l 411 -247 l 411 -263 q 411 -356 433 -414 q 455 -472 511 -515 l 511 -515 q 554 -548 619 -564 q 683 -581 770 -581 l 770 -581 q 819 -581 860 -574 q 901 -567 941 -552 l 941 -552 l 987 -533 q 1043 -505 1086 -460 q 1129 -416 1154 -358 q 1178 -300 1178 -233 l 1178 -233 q 1178 -117 1119 -52 q 1060 12 923 12 l 923 12 q 838 12 782 -16 q 726 -45 699 -98 q 671 -151 671 -224 l 671 -224 q 671 -280 689 -324 q 707 -369 742 -410 q 777 -451 829 -494 l 829 -494 l 863 -536 q 891 -560 909 -581 q 927 -602 927 -635 l 927 -635 q 927 -655 914 -665 q 901 -676 875 -676 l 875 -676 q 853 -676 836 -673 q 819 -670 808 -668 l 808 -668 l 778 -782 q 807 -791 848 -797 q 888 -803 929 -803 z"},"ൿ":{"ha":1422,"x_min":27,"x_max":1395,"o":"m 607 -581 l 607 -581 q 714 -581 779 -544 q 844 -507 873 -441 q 902 -375 902 -287 l 902 -287 q 902 -191 869 -124 q 836 -57 771 -22 q 706 12 608 12 l 608 12 q 528 12 471 -10 q 413 -32 376 -80 l 376 -80 q 345 -118 328 -170 q 311 -223 311 -287 l 311 -287 q 311 -427 385 -504 q 459 -581 607 -581 z m 607 -453 l 607 -453 q 548 -453 521 -408 q 494 -364 494 -283 l 494 -283 q 494 -233 506 -195 q 518 -157 543 -136 q 568 -116 607 -116 l 607 -116 q 645 -116 670 -136 q 695 -156 707 -194 q 719 -232 719 -286 l 719 -286 q 719 -339 707 -376 q 695 -413 671 -433 q 646 -453 607 -453 z m 250 12 l 250 12 q 144 12 86 -35 q 27 -82 27 -167 l 27 -167 q 27 -220 50 -255 q 72 -290 107 -312 l 107 -312 q 138 -331 176 -341 q 213 -351 264 -355 q 314 -359 383 -359 l 383 -359 l 1093 -359 q 1173 -359 1226 -349 q 1279 -339 1317 -316 l 1317 -316 q 1352 -295 1374 -258 q 1395 -221 1395 -171 l 1395 -171 q 1395 -88 1341 -38 q 1286 12 1170 12 l 1170 12 q 1052 12 994 -38 q 936 -89 936 -165 l 936 -165 q 936 -198 947 -230 q 958 -263 974 -298 l 974 -298 q 978 -306 979 -314 q 979 -322 983 -330 l 983 -330 q 997 -355 1013 -382 q 1028 -409 1046 -439 l 1046 -439 q 1081 -496 1100 -531 q 1118 -566 1126 -588 q 1133 -611 1133 -628 l 1133 -628 q 1133 -651 1121 -663 q 1109 -676 1083 -676 l 1083 -676 q 1059 -676 1042 -673 q 1025 -670 1014 -668 l 1014 -668 l 984 -782 q 1013 -791 1051 -797 q 1089 -803 1130 -803 l 1130 -803 q 1204 -803 1245 -781 q 1285 -760 1301 -726 q 1317 -692 1317 -654 l 1317 -654 q 1317 -622 1311 -595 q 1305 -568 1292 -539 q 1279 -510 1257 -473 q 1235 -436 1203 -384 l 1203 -384 q 1191 -365 1181 -347 q 1170 -330 1161 -314 l 1161 -314 q 1157 -306 1156 -298 q 1154 -290 1150 -282 l 1150 -282 q 1134 -251 1125 -226 q 1115 -202 1115 -181 l 1115 -181 q 1115 -159 1121 -144 q 1127 -130 1139 -123 q 1151 -116 1168 -116 l 1168 -116 q 1193 -116 1205 -130 q 1216 -144 1216 -168 l 1216 -168 q 1216 -185 1211 -196 q 1205 -208 1195 -215 l 1195 -215 q 1181 -226 1161 -228 q 1141 -231 1103 -231 l 1103 -231 l 330 -231 q 286 -231 263 -226 q 239 -222 225 -211 l 225 -211 q 215 -204 209 -193 q 203 -182 203 -168 l 203 -168 q 203 -150 211 -138 q 219 -126 235 -120 q 250 -115 274 -115 l 274 -115 q 303 -115 330 -125 q 356 -135 384 -157 l 384 -157 l 456 -46 q 422 -25 392 -12 q 361 1 328 7 q 294 12 250 12 z"},"!":{"ha":341,"x_min":65,"x_max":276,"o":"m 251 -250 l 90 -250 l 65 -714 l 276 -714 l 251 -250 z m 170 12 l 170 12 q 128 12 98 -10 q 67 -32 67 -81 l 67 -81 q 67 -133 98 -154 q 128 -175 170 -175 l 170 -175 q 211 -175 241 -154 q 271 -133 271 -81 l 271 -81 q 271 -32 241 -10 q 211 12 170 12 z"},"\"":{"ha":536,"x_min":65,"x_max":471,"o":"m 219 -542 l 85 -542 l 65 -800 l 239 -800 l 219 -542 z m 451 -542 l 317 -542 l 297 -800 l 471 -800 l 451 -542 z"},"#":{"ha":695,"x_min":32,"x_max":663,"o":"m 237 0 l 107 0 l 143 -193 l 32 -193 l 32 -313 l 166 -313 l 182 -399 l 65 -399 l 65 -522 l 205 -522 l 240 -714 l 371 -714 l 334 -522 l 421 -522 l 456 -714 l 587 -714 l 550 -522 l 663 -522 l 663 -399 l 528 -399 l 512 -313 l 632 -313 l 632 -193 l 490 -193 l 454 0 l 323 0 l 360 -193 l 272 -193 l 237 0 z m 311 -399 l 296 -313 l 382 -313 l 398 -399 l 311 -399 z"},"%":{"ha":968,"x_min":29,"x_max":939,"o":"m 358 0 l 213 0 l 609 -714 l 754 -714 l 358 0 z m 211 -276 l 211 -276 q 129 -276 79 -333 q 29 -390 29 -501 l 29 -501 q 29 -611 77 -667 q 124 -724 213 -724 l 213 -724 q 299 -724 348 -667 q 397 -611 397 -500 l 397 -500 q 397 -391 350 -333 q 302 -276 211 -276 z m 213 -394 l 213 -394 q 234 -394 242 -420 q 250 -447 250 -500 l 250 -500 q 250 -553 242 -579 q 234 -606 213 -606 l 213 -606 q 192 -606 184 -579 q 176 -553 176 -500 l 176 -500 q 176 -449 184 -421 q 192 -394 213 -394 z m 753 10 l 753 10 q 671 10 621 -47 q 571 -104 571 -215 l 571 -215 q 571 -325 619 -381 q 666 -438 755 -438 l 755 -438 q 841 -438 890 -381 q 939 -325 939 -214 l 939 -214 q 939 -105 892 -47 q 844 10 753 10 z m 755 -108 l 755 -108 q 776 -108 784 -134 q 792 -161 792 -214 l 792 -214 q 792 -267 784 -293 q 776 -320 755 -320 l 755 -320 q 734 -320 726 -293 q 718 -267 718 -214 l 718 -214 q 718 -163 726 -135 q 734 -108 755 -108 z"},"'":{"ha":304,"x_min":65,"x_max":239,"o":"m 219 -542 l 85 -542 l 65 -800 l 239 -800 l 219 -542 z"},"(":{"ha":374,"x_min":41,"x_max":347,"o":"m 41 -279 l 41 -279 q 41 -377 58 -468 q 74 -560 107 -643 q 140 -727 188 -800 l 188 -800 l 347 -800 q 302 -718 272 -634 q 241 -551 225 -463 q 209 -375 209 -279 l 209 -279 q 209 -183 225 -94 q 241 -5 272 79 q 302 162 347 244 l 347 244 l 188 244 q 140 170 107 87 q 74 3 58 -89 q 41 -181 41 -279 z"},")":{"ha":373,"x_min":27,"x_max":333,"o":"m 333 -277 l 333 -277 q 333 -180 317 -88 q 300 3 268 87 q 235 170 186 244 l 186 244 l 27 244 q 72 162 103 79 q 133 -5 149 -93 q 165 -182 165 -277 l 165 -277 q 165 -373 149 -461 q 133 -550 103 -634 q 72 -718 27 -799 l 27 -799 l 186 -799 q 235 -726 268 -642 q 300 -558 317 -466 q 333 -375 333 -277 z"},"*":{"ha":566,"x_min":36,"x_max":530,"o":"m 209 -800 l 357 -800 l 338 -628 l 512 -677 l 530 -533 l 377 -523 l 478 -387 l 351 -320 l 281 -458 l 221 -321 l 88 -387 l 189 -523 l 36 -535 l 58 -677 l 228 -628 l 209 -800 z"},"+":{"ha":572,"x_min":38,"x_max":533,"o":"m 351 -108 l 220 -108 l 220 -287 l 38 -287 l 38 -418 l 220 -418 l 220 -597 l 351 -597 l 351 -418 l 533 -418 l 533 -287 l 351 -287 l 351 -108 z"},",":{"ha":315,"x_min":32,"x_max":254,"o":"m 80 -146 l 247 -146 l 254 -135 q 245 -99 231 -49 q 217 1 201 52 q 185 102 168 139 l 168 139 l 32 139 q 42 93 51 43 q 60 -8 68 -57 q 76 -106 80 -146 l 80 -146 z"},"-":{"ha":348,"x_min":36,"x_max":312,"o":"m 312 -194 l 36 -194 l 36 -343 l 312 -343 l 312 -194 z"},".":{"ha":310,"x_min":53,"x_max":257,"o":"m 157 12 l 157 12 q 114 12 84 -10 q 53 -32 53 -81 l 53 -81 q 53 -133 84 -154 q 114 -175 157 -175 l 157 -175 q 198 -175 228 -154 q 257 -133 257 -81 l 257 -81 q 257 -32 228 -10 q 198 12 157 12 z"},"/":{"ha":457,"x_min":17,"x_max":440,"o":"m 174 244 l 17 244 l 283 -800 l 440 -800 l 174 244 z"},":":{"ha":310,"x_min":53,"x_max":257,"o":"m 157 12 l 157 12 q 114 12 84 -10 q 53 -32 53 -81 l 53 -81 q 53 -133 84 -154 q 114 -175 157 -175 l 157 -175 q 198 -175 228 -154 q 257 -133 257 -81 l 257 -81 q 257 -32 228 -10 q 198 12 157 12 z m 157 -376 l 157 -376 q 114 -376 84 -398 q 53 -420 53 -470 l 53 -470 q 53 -521 84 -542 q 114 -563 157 -563 l 157 -563 q 198 -563 228 -542 q 257 -521 257 -470 l 257 -470 q 257 -420 228 -398 q 198 -376 157 -376 z"},";":{"ha":315,"x_min":32,"x_max":262,"o":"m 80 -146 l 247 -146 l 254 -135 q 245 -99 231 -49 q 217 1 201 52 q 185 102 168 139 l 168 139 l 32 139 q 42 93 51 43 q 60 -8 68 -57 q 76 -106 80 -146 l 80 -146 z m 162 -376 l 162 -376 q 119 -376 89 -398 q 58 -420 58 -470 l 58 -470 q 58 -521 89 -542 q 119 -563 162 -563 l 162 -563 q 203 -563 233 -542 q 262 -521 262 -470 l 262 -470 q 262 -420 233 -398 q 203 -376 162 -376 z"},"<":{"ha":572,"x_min":38,"x_max":532,"o":"m 532 -231 l 532 -87 l 38 -306 l 38 -390 l 532 -637 l 532 -492 l 229 -354 l 532 -231 z"},"=":{"ha":572,"x_min":38,"x_max":533,"o":"m 533 -176 l 38 -176 l 38 -307 l 533 -307 l 533 -176 z m 533 -398 l 38 -398 l 38 -529 l 533 -529 l 533 -398 z"},">":{"ha":572,"x_min":40,"x_max":534,"o":"m 534 -306 l 40 -87 l 40 -231 l 343 -354 l 40 -492 l 40 -637 l 534 -390 l 534 -306 z"},"?":{"ha":536,"x_min":32,"x_max":514,"o":"m 281 -724 l 281 -724 q 397 -724 456 -673 q 514 -622 514 -543 l 514 -543 q 514 -502 501 -470 q 487 -438 460 -411 q 433 -384 392 -359 l 392 -359 q 364 -342 350 -328 q 335 -314 330 -301 q 324 -288 324 -272 l 324 -272 l 324 -250 l 174 -250 l 174 -287 q 174 -320 181 -345 q 187 -370 205 -391 q 222 -413 256 -435 l 256 -435 q 287 -455 305 -470 q 322 -485 330 -498 q 337 -512 337 -527 l 337 -527 q 337 -551 320 -564 q 303 -578 266 -578 l 266 -578 q 222 -578 182 -563 q 142 -549 98 -526 l 98 -526 l 32 -656 q 87 -688 148 -706 q 209 -724 281 -724 z m 256 12 l 256 12 q 213 12 183 -10 q 153 -32 153 -81 l 153 -81 q 153 -133 183 -154 q 213 -175 256 -175 l 256 -175 q 297 -175 327 -154 q 357 -133 357 -81 l 357 -81 q 357 -32 327 -10 q 297 12 256 12 z"},"[":{"ha":369,"x_min":72,"x_max":333,"o":"m 333 244 l 72 244 l 72 -800 l 333 -800 l 333 -676 l 227 -676 l 227 120 l 333 120 l 333 244 z"},"\\":{"ha":457,"x_min":17,"x_max":440,"o":"m 440 244 l 283 244 l 17 -800 l 174 -800 l 440 244 z"},"]":{"ha":369,"x_min":36,"x_max":297,"o":"m 297 244 l 36 244 l 36 120 l 142 120 l 142 -676 l 36 -676 l 36 -800 l 297 -800 l 297 244 z"},"^":{"ha":572,"x_min":13,"x_max":559,"o":"m 153 -242 l 13 -242 l 228 -714 l 311 -714 l 559 -242 l 415 -242 l 274 -524 l 153 -242 z"},"_":{"ha":414,"x_min":-2,"x_max":416,"o":"m 416 162 l -2 162 l -2 90 l 416 90 l 416 162 z"},"{":{"ha":431,"x_min":24,"x_max":395,"o":"m 395 108 l 395 244 q 293 244 239 227 q 184 209 164 172 q 144 134 144 76 l 144 76 l 144 -121 q 144 -166 117 -183 q 90 -201 24 -204 l 24 -204 l 24 -352 q 90 -355 117 -372 q 144 -390 144 -435 l 144 -435 l 144 -632 q 144 -691 164 -728 q 184 -765 239 -782 q 293 -800 395 -800 l 395 -800 l 395 -664 q 342 -664 322 -651 q 302 -639 302 -604 l 302 -604 l 302 -405 q 302 -348 272 -319 q 242 -290 185 -281 l 185 -281 l 185 -275 q 242 -266 272 -237 q 302 -208 302 -151 l 302 -151 l 302 48 q 302 71 311 84 q 319 97 340 103 q 360 108 395 108 l 395 108 z"},"|":{"ha":551,"x_min":210,"x_max":341,"o":"m 341 244 l 210 244 l 210 -800 l 341 -800 l 341 244 z"},"}":{"ha":431,"x_min":36,"x_max":407,"o":"m 36 -664 l 36 -800 q 139 -800 193 -782 q 247 -765 267 -728 q 287 -691 287 -632 l 287 -632 l 287 -435 q 287 -390 314 -372 q 341 -355 407 -352 l 407 -352 l 407 -204 q 341 -201 314 -183 q 287 -166 287 -121 l 287 -121 l 287 76 q 287 134 267 172 q 247 209 193 227 q 139 244 36 244 l 36 244 l 36 108 q 89 108 109 95 q 129 82 129 48 l 129 48 l 129 -151 q 129 -208 159 -237 q 189 -266 246 -275 l 246 -275 l 246 -281 q 189 -290 159 -319 q 129 -348 129 -405 l 129 -405 l 129 -604 q 129 -627 121 -640 q 112 -653 92 -658 q 72 -664 36 -664 l 36 -664 z"},"~":{"ha":572,"x_min":38,"x_max":533,"o":"m 267 -289 l 267 -289 q 230 -305 203 -310 q 175 -316 152 -316 l 152 -316 q 123 -316 94 -299 q 64 -282 38 -257 l 38 -257 l 38 -394 q 64 -420 96 -433 q 127 -447 167 -447 l 167 -447 q 196 -447 226 -441 q 255 -436 304 -416 l 304 -416 q 342 -401 370 -395 q 398 -389 420 -389 l 420 -389 q 448 -389 478 -406 q 508 -423 533 -448 l 533 -448 l 533 -311 q 508 -285 476 -271 q 444 -258 404 -258 l 404 -258 q 375 -258 346 -264 q 316 -270 267 -289 z"}," ":{"ha":309,"x_min":0,"x_max":0,"o":""},"­":{"ha":348,"x_min":36,"x_max":312,"o":"m 312 -194 l 36 -194 l 36 -343 l 312 -343 l 312 -194 z"},"–":{"ha":500,"x_min":39,"x_max":461,"o":"m 461 -203 l 39 -203 l 39 -338 l 461 -338 l 461 -203 z"},"—":{"ha":1000,"x_min":39,"x_max":961,"o":"m 961 -203 l 39 -203 l 39 -338 l 961 -338 l 961 -203 z"},"‘":{"ha":298,"x_min":38,"x_max":260,"o":"m 212 -515 l 45 -515 l 38 -526 q 47 -562 61 -612 q 75 -662 92 -712 q 108 -763 124 -800 l 124 -800 l 260 -800 q 251 -755 242 -704 q 232 -653 225 -604 q 217 -555 212 -515 l 212 -515 z"},"’":{"ha":298,"x_min":38,"x_max":260,"o":"m 86 -800 l 253 -800 l 260 -789 q 251 -753 237 -703 q 223 -653 207 -602 q 191 -552 174 -515 l 174 -515 l 38 -515 q 45 -549 52 -586 q 59 -624 66 -661 q 72 -699 78 -734 q 83 -770 86 -800 l 86 -800 z"},"“":{"ha":548,"x_min":38,"x_max":510,"o":"m 462 -515 l 295 -515 l 288 -526 q 297 -562 311 -612 q 325 -662 342 -712 q 358 -763 374 -800 l 374 -800 l 510 -800 q 501 -755 492 -704 q 482 -653 475 -604 q 467 -555 462 -515 l 462 -515 z m 212 -515 l 45 -515 l 38 -526 q 47 -562 61 -612 q 75 -662 92 -712 q 108 -763 124 -800 l 124 -800 l 260 -800 q 251 -755 242 -704 q 232 -653 225 -604 q 217 -555 212 -515 l 212 -515 z"},"”":{"ha":548,"x_min":38,"x_max":510,"o":"m 336 -800 l 503 -800 l 510 -789 q 501 -753 487 -703 q 473 -653 457 -602 q 441 -552 424 -515 l 424 -515 l 288 -515 q 298 -561 307 -611 q 316 -662 324 -711 q 332 -760 336 -800 l 336 -800 z m 86 -800 l 253 -800 l 260 -789 q 251 -753 237 -703 q 223 -653 207 -602 q 191 -552 174 -515 l 174 -515 l 38 -515 q 45 -549 52 -586 q 59 -624 66 -661 q 72 -699 78 -734 q 83 -770 86 -800 l 86 -800 z"},"…":{"ha":886,"x_min":52,"x_max":834,"o":"m 156 12 l 156 12 q 113 12 83 -10 q 52 -32 52 -81 l 52 -81 q 52 -133 83 -154 q 113 -175 156 -175 l 156 -175 q 197 -175 227 -154 q 256 -133 256 -81 l 256 -81 q 256 -32 227 -10 q 197 12 156 12 z m 445 12 l 445 12 q 402 12 372 -10 q 341 -32 341 -81 l 341 -81 q 341 -133 372 -154 q 402 -175 445 -175 l 445 -175 q 486 -175 516 -154 q 545 -133 545 -81 l 545 -81 q 545 -32 516 -10 q 486 12 445 12 z m 734 12 l 734 12 q 691 12 661 -10 q 630 -32 630 -81 l 630 -81 q 630 -133 661 -154 q 691 -175 734 -175 l 734 -175 q 775 -175 805 -154 q 834 -133 834 -81 l 834 -81 q 834 -32 805 -10 q 775 12 734 12 z"},"×":{"ha":572,"x_min":52,"x_max":519,"o":"m 285 -442 l 428 -585 l 519 -494 l 375 -352 l 519 -210 l 428 -119 l 285 -262 l 143 -119 l 52 -210 l 195 -352 l 52 -494 l 143 -585 l 285 -442 z"},"÷":{"ha":572,"x_min":38,"x_max":533,"o":"m 533 -287 l 38 -287 l 38 -418 l 533 -418 l 533 -287 z m 285 -79 l 285 -79 q 254 -79 232 -99 q 209 -119 209 -162 l 209 -162 q 209 -209 232 -227 q 254 -245 285 -245 l 285 -245 q 315 -245 339 -227 q 362 -209 362 -162 l 362 -162 q 362 -119 339 -99 q 315 -79 285 -79 z m 285 -460 l 285 -460 q 254 -460 232 -480 q 209 -500 209 -543 l 209 -543 q 209 -590 232 -608 q 254 -626 285 -626 l 285 -626 q 315 -626 339 -608 q 362 -590 362 -543 l 362 -543 q 362 -500 339 -480 q 315 -460 285 -460 z"},"−":{"ha":572,"x_min":38,"x_max":533,"o":"m 533 -287 l 38 -287 l 38 -418 l 533 -418 l 533 -287 z"},"₹":{"ha":572,"x_min":43,"x_max":532,"o":"m 423 0 l 209 0 l 43 -237 l 65 -350 l 90 -350 q 126 -350 148 -354 q 169 -359 182 -370 l 182 -370 q 200 -384 208 -407 q 215 -431 215 -474 l 215 -474 q 215 -508 208 -534 q 201 -560 181 -573 l 181 -573 q 170 -582 153 -586 q 135 -591 106 -591 l 106 -591 l 43 -591 l 43 -714 l 532 -714 l 532 -591 l 338 -591 q 359 -576 375 -544 q 391 -513 391 -467 l 391 -467 q 391 -403 373 -359 q 354 -316 314 -289 q 274 -262 208 -247 l 208 -247 l 215 -268 l 423 0 z m 532 -409 l 43 -409 l 43 -532 l 532 -532 l 532 -409 z"},"꠰":{"ha":309,"x_min":61,"x_max":248,"o":"m 61 0 l 61 -569 l 248 -569 l 248 0 l 61 0 z"},"꠱":{"ha":549,"x_min":61,"x_max":488,"o":"m 61 0 l 61 -569 l 244 -569 l 244 0 l 61 0 z m 305 0 l 305 -569 l 488 -569 l 488 0 l 305 0 z"},"꠲":{"ha":790,"x_min":61,"x_max":729,"o":"m 61 0 l 61 -569 l 243 -569 l 243 0 l 61 0 z m 304 0 l 304 -569 l 486 -569 l 486 0 l 304 0 z m 547 0 l 547 -569 l 729 -569 l 729 0 l 547 0 z"},"॑":{"ha":0,"x_min":-337,"x_max":-219,"o":"m -337 -648 l -337 -864 l -219 -864 l -219 -648 l -337 -648 z"},"॒":{"ha":0,"x_min":-532,"x_max":-26,"o":"m -26 79 l -26 184 l -532 184 l -532 79 l -26 79 z"},"।":{"ha":396,"x_min":138,"x_max":328,"o":"m 328 49 l 138 49 l 138 -610 l 328 -610 l 328 49 z"},"॥":{"ha":706,"x_min":136,"x_max":638,"o":"m 638 49 l 448 49 l 448 -610 l 638 -610 l 638 49 z m 326 49 l 136 49 l 136 -610 l 326 -610 l 326 49 z"},"᳚":{"ha":0,"x_min":-406,"x_max":-149,"o":"m -406 -648 l -406 -864 l -302 -864 l -302 -648 l -406 -648 z m -253 -648 l -253 -864 l -149 -864 l -149 -648 l -253 -648 z"},"̇":{"ha":0,"x_min":-379,"x_max":-176,"o":"m -379 -700 l -379 -700 q -379 -751 -349 -768 q -320 -785 -278 -785 l -278 -785 q -237 -785 -206 -768 q -176 -751 -176 -700 l -176 -700 q -176 -651 -206 -633 q -237 -616 -278 -616 l -278 -616 q -320 -616 -349 -633 q -379 -651 -379 -700 z"},"̣":{"ha":0,"x_min":-380,"x_max":-177,"o":"m -380 137 l -380 137 q -380 86 -350 69 q -321 52 -279 52 l -279 52 q -238 52 -207 69 q -177 86 -177 137 l -177 137 q -177 186 -207 204 q -238 221 -279 221 l -279 221 q -321 221 -350 204 q -380 186 -380 137 z"},"‐":{"ha":348,"x_min":36,"x_max":312,"o":"m 312 -194 l 36 -194 l 36 -343 l 312 -343 l 312 -194 z"},"​":{"ha":0,"x_min":0,"x_max":0,"o":""},"‌":{"ha":0,"x_min":0,"x_max":0,"o":""},"‍":{"ha":0,"x_min":-161,"x_max":161,"o":"m 29 244 l -29 244 l -29 -565 l -121 -474 l -161 -514 l -40 -631 l -161 -748 l -121 -788 l 0 -669 l 121 -788 l 161 -748 l 40 -631 l 161 -514 l 121 -474 l 29 -565 l 29 244 z"},"◌":{"ha":562,"x_min":59,"x_max":506,"o":"m 91 -231 l 91 -231 q 59 -231 59 -264 l 59 -264 q 59 -295 91 -295 l 91 -295 q 123 -295 123 -264 l 123 -264 q 123 -231 91 -231 z m 140 -95 l 140 -95 q 108 -95 108 -127 l 108 -127 q 108 -158 140 -158 l 140 -158 q 171 -158 171 -127 l 171 -127 q 171 -95 140 -95 z m 283 -40 l 283 -40 q 251 -40 251 -72 l 251 -72 q 251 -104 283 -104 l 283 -104 q 314 -104 314 -72 l 314 -72 q 314 -40 283 -40 z m 140 -369 l 140 -369 q 108 -369 108 -401 l 108 -401 q 108 -432 140 -432 l 140 -432 q 171 -432 171 -401 l 171 -401 q 171 -369 140 -369 z m 425 -95 l 425 -95 q 393 -95 393 -127 l 393 -127 q 393 -158 425 -158 l 425 -158 q 457 -158 457 -127 l 457 -127 q 457 -95 425 -95 z m 283 -424 l 283 -424 q 251 -424 251 -456 l 251 -456 q 251 -487 283 -487 l 283 -487 q 314 -487 314 -456 l 314 -456 q 314 -424 283 -424 z m 474 -231 l 474 -231 q 443 -231 443 -264 l 443 -264 q 443 -295 474 -295 l 474 -295 q 506 -295 506 -264 l 506 -264 q 506 -231 474 -231 z m 425 -369 l 425 -369 q 393 -369 393 -401 l 393 -401 q 393 -432 425 -432 l 425 -432 q 457 -432 457 -401 l 457 -401 q 457 -369 425 -369 z"},"«":{"ha":681,"x_min":36,"x_max":644,"o":"m 36 -274 l 36 -287 l 226 -523 l 363 -450 l 230 -281 l 363 -111 l 226 -39 l 36 -274 z m 317 -274 l 317 -287 l 506 -523 l 644 -450 l 510 -281 l 644 -111 l 506 -39 l 317 -274 z"},"»":{"ha":681,"x_min":37,"x_max":645,"o":"m 645 -287 l 645 -274 l 456 -39 l 317 -111 l 451 -281 l 317 -450 l 456 -523 l 645 -287 z m 364 -287 l 364 -274 l 175 -39 l 37 -111 l 170 -281 l 37 -450 l 175 -523 l 364 -287 z"},"̈":{"ha":0,"x_min":-202,"x_max":200,"o":"m -202 -690 l -202 -690 q -202 -730 -178 -748 q -154 -767 -119 -767 l -119 -767 q -85 -767 -60 -748 q -35 -730 -35 -690 l -35 -690 q -35 -651 -60 -632 q -85 -614 -119 -614 l -119 -614 q -154 -614 -178 -632 q -202 -651 -202 -690 z m 32 -690 l 32 -690 q 32 -730 56 -748 q 80 -767 116 -767 l 116 -767 q 150 -767 175 -748 q 200 -730 200 -690 l 200 -690 q 200 -651 175 -632 q 150 -614 116 -614 l 116 -614 q 80 -614 56 -632 q 32 -651 32 -690 z"},"̀":{"ha":0,"x_min":-559,"x_max":-221,"o":"m -559 -766 l -349 -766 q -332 -744 -308 -717 q -285 -690 -261 -664 q -237 -639 -221 -620 l -221 -620 l -221 -606 l -348 -606 q -368 -619 -396 -638 q -425 -658 -455 -679 q -486 -701 -513 -721 q -541 -742 -559 -756 l -559 -756 l -559 -766 z"},"́":{"ha":0,"x_min":-389,"x_max":-51,"o":"m -51 -766 l -51 -756 q -69 -742 -96 -721 q -123 -701 -154 -679 q -185 -658 -213 -638 q -242 -619 -262 -606 l -262 -606 l -389 -606 l -389 -620 q -372 -639 -348 -664 q -324 -690 -300 -717 q -276 -744 -260 -766 l -260 -766 l -51 -766 z"},"̋":{"ha":0,"x_min":-182,"x_max":327,"o":"m 327 -766 l 327 -756 q 319 -743 297 -723 q 275 -703 247 -681 q 218 -659 191 -639 q 163 -619 143 -606 l 143 -606 l 44 -606 l 44 -620 q 58 -639 77 -664 q 96 -690 115 -717 q 133 -744 145 -766 l 145 -766 l 327 -766 z m 100 -766 l 100 -756 q 92 -743 70 -723 q 48 -703 20 -681 q -9 -659 -36 -639 q -64 -619 -83 -606 l -83 -606 l -182 -606 l -182 -620 q -168 -639 -149 -664 q -131 -690 -112 -717 q -94 -744 -81 -766 l -81 -766 l 100 -766 z"},"̄":{"ha":0,"x_min":-178,"x_max":177,"o":"m -178 -721 l 177 -721 l 177 -606 l -178 -606 l -178 -721 z"},"˙":{"ha":283,"x_min":40,"x_max":243,"o":"m 141 -776 l 141 -776 q 182 -776 213 -759 q 243 -742 243 -691 l 243 -691 q 243 -642 213 -624 q 182 -607 141 -607 l 141 -607 q 99 -607 70 -624 q 40 -642 40 -691 l 40 -691 q 40 -742 70 -759 q 99 -776 141 -776 z"},"°":{"ha":422,"x_min":31,"x_max":391,"o":"m 211 -366 l 211 -366 q 159 -366 118 -388 q 77 -411 54 -451 q 31 -492 31 -544 l 31 -544 q 31 -596 54 -636 q 77 -677 118 -700 q 159 -724 211 -724 l 211 -724 q 264 -724 305 -700 q 345 -677 368 -636 q 391 -596 391 -544 l 391 -544 q 391 -492 368 -451 q 345 -411 305 -388 q 264 -366 211 -366 z m 211 -482 l 211 -482 q 240 -482 258 -499 q 275 -516 275 -544 l 275 -544 q 275 -573 258 -591 q 240 -609 211 -609 l 211 -609 q 182 -609 165 -591 q 147 -573 147 -544 l 147 -544 q 147 -516 165 -499 q 182 -482 211 -482 z"},"A":{"ha":726,"x_min":0,"x_max":726,"o":"m 726 0 l 515 0 l 480 -134 l 248 -134 l 212 0 l 0 0 l 233 -717 l 490 -717 l 726 0 z m 440 -292 l 409 -409 q 404 -428 395 -463 q 386 -499 377 -537 q 368 -575 363 -599 l 363 -599 q 359 -575 351 -539 q 342 -503 334 -468 q 325 -433 319 -409 l 319 -409 l 288 -292 l 440 -292 z"}}}
